<svg width="30" height="24" viewBox="0 0 30 24" fill="none" xmlns="http://www.w3.org/2000/svg">
<path d="M29.9225 3.35232C29.7873 2.67111 29.4853 2.04773 29.0634 1.53275C28.9745 1.42055 28.8816 1.32006 28.7808 1.21957C28.0335 0.468516 26.9845 0 25.8386 0H4.16139C3.01547 0 1.97027 0.468516 1.21939 1.21957C1.11891 1.32006 1.02598 1.42055 0.936797 1.53275C0.514746 2.04768 0.212695 2.67111 0.0812109 3.35232C0.0271875 3.61523 0 3.88693 0 4.16162V19.3862C0 19.9703 0.123867 20.5317 0.344766 21.0387C0.549668 21.5227 0.851777 21.9606 1.21934 22.3279C1.3125 22.4208 1.40502 22.5062 1.50598 22.5912C2.22586 23.1874 3.1551 23.5474 4.16139 23.5474H25.8386C26.8453 23.5474 27.7785 23.1874 28.4943 22.5874C28.5949 22.5062 28.6879 22.4208 28.7808 22.3279C29.1482 21.9606 29.4503 21.5227 29.6594 21.0387V21.035C29.8802 20.528 29.9999 19.9703 29.9999 19.3863V4.16162C30 3.88693 29.9732 3.61523 29.9225 3.35232ZM2.72514 2.72514C3.09691 2.35377 3.59619 2.12895 4.16139 2.12895H25.8386C26.4038 2.12895 26.9075 2.35377 27.2749 2.72514C27.3406 2.79129 27.4025 2.865 27.4572 2.93824L16.0955 12.8403C15.7821 13.1149 15.395 13.2506 15 13.2506C14.6089 13.2506 14.2221 13.1149 13.9046 12.8403L2.54719 2.93402C2.59746 2.86078 2.65939 2.79129 2.72514 2.72514ZM2.12895 19.3862V5.13709L10.3511 12.3098L2.13311 19.475C2.12895 19.4478 2.12895 19.4172 2.12895 19.3862ZM25.8386 21.4181H4.16139C3.79336 21.4181 3.449 21.3213 3.1551 21.1513L11.8257 13.5952L12.6352 14.2993C13.3126 14.888 14.1602 15.1861 15 15.1861C15.8441 15.1861 16.6917 14.888 17.3691 14.2993L18.1781 13.5952L26.8453 21.1513C26.551 21.3213 26.2066 21.4181 25.8386 21.4181ZM27.8711 19.3862C27.8711 19.4172 27.8711 19.4478 27.8671 19.475L19.6492 12.314L27.8711 5.1409V19.3862Z" fill="#061529"/>
</svg>
