<svg width="50" height="51" viewBox="0 0 50 51" fill="none" xmlns="http://www.w3.org/2000/svg">
<path fill-rule="evenodd" clip-rule="evenodd" d="M42.7894 7.21574C39.0153 3.44169 34.9837 5.88451 32.4608 8.4074L20.5433 20.325L8.62539 32.2429C6.1025 34.766 3.46112 38.5988 7.43347 42.5714C11.4061 46.544 15.2391 43.9026 17.762 41.3797L29.6799 29.4619L41.5977 17.5443C44.1206 15.0211 46.5632 10.9895 42.7894 7.21574Z" fill="#FF5C57"/>
<path fill-rule="evenodd" clip-rule="evenodd" d="M20.0151 6.2385L25.0627 11.2856L30.1995 6.14829C30.5491 5.79893 30.9022 5.47386 31.2588 5.16828C30.7213 2.45403 29.1723 0 25.0603 0C20.9401 0 19.3927 2.46337 18.8584 5.18402C19.2422 5.5163 19.6265 5.84991 20.0151 6.2385Z" fill="#FF5C57"/>
<mask id="mask0" mask-type="alpha" maskUnits="userSpaceOnUse" x="18" y="38" width="14" height="13">
<path fill-rule="evenodd" clip-rule="evenodd" d="M18.8765 38.594H31.2534V50.0015H18.8765V38.594Z" fill="white"/>
</mask>
<g mask="url(#mask0)">
<path fill-rule="evenodd" clip-rule="evenodd" d="M30.1986 43.7284L25.0645 38.594L20.0203 43.6382C19.6371 44.0212 19.2562 44.3713 18.8765 44.7004C19.4548 47.4669 21.0919 50.0016 25.0621 50.0016C29.0435 50.0016 30.6785 47.4536 31.2534 44.6782C30.9 44.3742 30.5467 44.0761 30.1986 43.7284Z" fill="#FF5C57"/>
</g>
<path fill-rule="evenodd" clip-rule="evenodd" d="M6.36633 29.9841L17.8764 18.4741H8.14647C4.57819 18.4741 0 19.5977 0 24.9346C0 28.9168 2.54878 30.5521 5.32521 31.1261C5.65428 30.7469 5.98282 30.3676 6.36633 29.9841Z" fill="#FF5C57"/>
<path fill-rule="evenodd" clip-rule="evenodd" d="M44.818 18.733C44.5103 19.0909 44.2076 19.4495 43.8553 19.8021L32.2617 31.3954H41.8539C45.4219 31.3954 50.0001 30.5526 50.0001 24.9346C50.0001 20.8155 47.5378 19.2678 44.818 18.733Z" fill="#FF5C57"/>
<path fill-rule="evenodd" clip-rule="evenodd" d="M8.14676 15.2795H21.0647L22.8032 13.5409L17.7592 8.49704C15.2364 5.97388 11.4031 3.3325 7.4307 7.30512C4.51789 10.2179 5.16483 13.0531 6.70957 15.3544C7.18036 15.3189 7.64822 15.2795 8.14676 15.2795Z" fill="#FF5C57"/>
<path fill-rule="evenodd" clip-rule="evenodd" d="M41.854 34.5883L29.0618 34.5886L27.3193 36.3313L32.4569 41.4687C34.9798 43.9918 39.0117 46.4346 42.7855 42.6606C45.6014 39.8447 44.955 36.8859 43.3982 34.517C42.8976 34.5528 42.3966 34.5883 41.854 34.5883Z" fill="#FF5C57"/>
</svg>
