<svg width="40" height="29" viewBox="0 0 40 29" fill="none" xmlns="http://www.w3.org/2000/svg">
<path fill-rule="evenodd" clip-rule="evenodd" d="M2.70833 0H37.2917C38.7826 0 40 1.18847 40 2.64387V26.3561C40 27.8084 38.7826 29 37.2917 29H2.70833C1.21745 29 0 27.8084 0 26.3561V2.64387C0 1.18847 1.21745 0 2.70833 0ZM14.2253 20.5726H10.6771L10.166 22.206H6.96615L10.7845 12.3042H14.2155L18.0176 22.206H14.7331L14.2253 20.5726ZM13.5645 18.4309L12.4577 14.8718L11.3444 18.4309H13.5645ZM19.2546 12.3042H24.4694C25.6055 12.3042 26.4551 12.5679 27.0215 13.0954C27.5846 13.6229 27.8678 14.3761 27.8678 15.3485C27.8678 16.3494 27.5586 17.1312 26.9434 17.6936C26.3281 18.2593 25.3841 18.5389 24.1178 18.5389H22.3991V22.2028H19.2546V12.3042ZM22.3991 16.5338H23.1706C23.7793 16.5338 24.2057 16.4289 24.4531 16.2255C24.6973 16.019 24.821 15.7584 24.821 15.4374C24.821 15.126 24.7135 14.8623 24.4987 14.6462C24.2871 14.4301 23.8835 14.322 23.2943 14.322H22.3958V16.5338H22.3991ZM29.8893 12.3042H33.0339V22.206H29.8893V12.3042ZM38.4017 7.40094H1.72201V26.6135C1.72201 26.8169 1.80339 26.9949 1.9401 27.1315C2.07682 27.265 2.26237 27.3444 2.4707 27.3444H37.64C37.8483 27.3444 38.0306 27.265 38.1706 27.1315C38.3105 26.9949 38.3887 26.8169 38.3887 26.6135V7.40094H38.4017ZM34.7135 2.97118C35.4525 2.97118 36.0514 3.55588 36.0514 4.27723C36.0514 4.99858 35.4525 5.58328 34.7135 5.58328C33.9746 5.58328 33.3757 4.99858 33.3757 4.27723C33.3789 3.55588 33.9779 2.97118 34.7135 2.97118ZM25.651 2.97118C26.39 2.97118 26.9889 3.55588 26.9889 4.27723C26.9889 4.99858 26.39 5.58328 25.651 5.58328C24.9121 5.58328 24.3132 4.99858 24.3132 4.27723C24.3132 3.55588 24.9121 2.97118 25.651 2.97118ZM30.1823 2.97118C30.9212 2.97118 31.5202 3.55588 31.5202 4.27723C31.5202 4.99858 30.9212 5.58328 30.1823 5.58328C29.4434 5.58328 28.8444 4.99858 28.8444 4.27723C28.8444 3.55588 29.4434 2.97118 30.1823 2.97118Z" fill="#B5BAC4"/>
</svg>
