<svg width="49" height="45" viewBox="0 0 49 45" fill="none" xmlns="http://www.w3.org/2000/svg">
<g clip-path="url(#clip0)">
<path d="M19.0686 37.2779C18.8237 36.7576 18.3968 36.7049 18.2241 36.7049C18.0514 36.7049 17.6245 36.7567 17.392 37.2489L16.755 38.5972C16.226 39.7204 14.6764 39.5965 14.3069 38.4135L12.9093 33.9776L12.0282 36.7796C11.539 38.3317 10.1696 39.375 8.62336 39.375H7.59445C6.86034 39.375 6.26575 38.7457 6.26575 37.9688C6.26575 37.1918 6.86034 36.5625 7.59445 36.5625H8.62336C9.02447 36.5625 9.3799 36.2918 9.50695 35.8893L11.0175 31.0869C11.2916 30.2247 12.0506 29.6446 12.9093 29.6446C13.7679 29.6446 14.527 30.2238 14.8002 31.0869L15.9528 34.7467C17.5929 33.3237 20.4422 33.8941 21.4337 35.9912C21.5907 36.3234 21.8896 36.5142 22.211 36.5414V29.3238L32.8407 18.1538V14.0625H21.5458C20.4497 14.0625 19.5528 13.1133 19.5528 11.9531V0H2.94398C1.8395 0 0.950928 0.94043 0.950928 2.10938V42.8906C0.950928 44.0596 1.8395 45 2.94398 45H30.8468C31.9513 45 32.8398 44.0596 32.8398 42.8906V39.375L22.2102 39.3653C20.8715 39.3381 19.6707 38.5497 19.0686 37.2779ZM32.8398 10.7139C32.8398 10.1602 32.6322 9.62402 32.2585 9.22852L24.1285 0.615234C23.7548 0.219727 23.2482 0 22.7168 0H22.2102V11.25H32.8398V10.7139ZM24.8676 30.4945V36.5625H30.5968L44.0234 22.2557L38.3863 16.2896L24.8676 30.4945ZM48.1648 14.7067L45.5182 11.9057C44.6927 11.032 43.3532 11.032 42.5277 11.9057L40.2648 14.3007L45.9018 20.2667L48.1648 17.8717C48.9911 16.998 48.9911 15.5804 48.1648 14.7067Z" fill="#FAFAFA"/>
</g>
<defs>
<clipPath id="clip0">
<rect width="47.8333" height="45" fill="white" transform="translate(0.950928)"/>
</clipPath>
</defs>
</svg>
