<svg width="97" height="712" viewBox="0 0 97 712" fill="none" xmlns="http://www.w3.org/2000/svg">
<line x1="48.9924" y1="26" x2="48.9924" y2="686" stroke="#061529"/>
<ellipse cx="48.4924" cy="13" rx="12.608" ry="13" fill="#061529" fill-opacity="0.6"/>
<path d="M96.985 535C96.985 562.614 75.2741 585 48.4925 585C21.7108 585 0 562.614 0 535C0 507.386 21.7108 485 48.4925 485C75.2741 485 96.985 507.386 96.985 535Z" fill="#6EA4F5"/>
<g clip-path="url(#clip0)">
<path d="M37.8551 513.397C37.755 513.29 37.6361 513.205 37.5052 513.147C37.3742 513.09 37.2339 513.06 37.0921 513.06C36.9503 513.06 36.81 513.09 36.679 513.147C36.5481 513.205 36.4292 513.29 36.3291 513.397L30.6132 519.456L28.5756 517.339C28.4755 517.232 28.3566 517.147 28.2257 517.09C28.0948 517.032 27.9544 517.002 27.8126 517.002C27.6709 517.002 27.5305 517.032 27.3996 517.09C27.2686 517.147 27.1497 517.232 27.0497 517.339L25.6404 518.844C25.54 518.951 25.4603 519.077 25.406 519.217C25.3516 519.357 25.3236 519.506 25.3236 519.657C25.3236 519.809 25.3516 519.958 25.406 520.098C25.4603 520.237 25.54 520.364 25.6404 520.471L29.9121 525.007C30.1254 525.223 30.4083 525.344 30.7025 525.344C30.9967 525.344 31.2796 525.223 31.4928 525.007L32.8922 523.512L39.3729 516.604C39.5748 516.388 39.6889 516.096 39.6904 515.792C39.692 515.487 39.5808 515.194 39.381 514.977L37.8551 513.397ZM37.8551 528.632C37.755 528.525 37.6361 528.44 37.5052 528.382C37.3742 528.325 37.2339 528.295 37.0921 528.295C36.9503 528.295 36.81 528.325 36.679 528.382C36.5481 528.44 36.4292 528.525 36.3291 528.632L30.6132 534.731L28.5756 532.616C28.4755 532.509 28.3566 532.424 28.2257 532.366C28.0948 532.308 27.9544 532.278 27.8126 532.278C27.6709 532.278 27.5305 532.308 27.3996 532.366C27.2686 532.424 27.1497 532.509 27.0497 532.616L25.6404 534.117C25.54 534.224 25.4603 534.351 25.406 534.49C25.3516 534.63 25.3236 534.78 25.3236 534.931C25.3236 535.082 25.3516 535.231 25.406 535.371C25.4603 535.511 25.54 535.637 25.6404 535.744L29.9014 540.29C30.1144 540.506 30.3972 540.627 30.6913 540.627C30.9853 540.627 31.2681 540.506 31.4811 540.29L32.8904 538.788L39.3711 531.877C39.5723 531.663 39.686 531.373 39.6875 531.07C39.689 530.767 39.5782 530.476 39.3792 530.259L37.8551 528.632ZM31.0682 545.219C28.6905 545.219 26.7068 547.276 26.7068 549.813C26.7068 552.349 28.6923 554.406 31.0682 554.406C32.2109 554.406 33.3068 553.922 34.1148 553.061C34.9228 552.199 35.3768 551.031 35.3768 549.813C35.3768 548.594 34.9228 547.426 34.1148 546.564C33.3068 545.703 32.2109 545.219 31.0682 545.219ZM69.8449 546.75H43.9938C43.6129 546.75 43.2476 546.911 42.9783 547.199C42.7089 547.486 42.5576 547.875 42.5576 548.281V551.344C42.5576 551.75 42.7089 552.139 42.9783 552.427C43.2476 552.714 43.6129 552.875 43.9938 552.875H69.8449C70.2258 552.875 70.5911 552.714 70.8604 552.427C71.1298 552.139 71.2811 551.75 71.2811 551.344V548.281C71.2811 547.875 71.1298 547.486 70.8604 547.199C70.5911 546.911 70.2258 546.75 69.8449 546.75ZM69.8449 516.125H43.9938C43.6129 516.125 43.2476 516.286 42.9783 516.574C42.7089 516.861 42.5576 517.25 42.5576 517.656V520.719C42.5576 521.125 42.7089 521.514 42.9783 521.802C43.2476 522.089 43.6129 522.25 43.9938 522.25H69.8449C70.2258 522.25 70.5911 522.089 70.8604 521.802C71.1298 521.514 71.2811 521.125 71.2811 520.719V517.656C71.2811 517.25 71.1298 516.861 70.8604 516.574C70.5911 516.286 70.2258 516.125 69.8449 516.125ZM69.8449 531.438H43.9938C43.6129 531.438 43.2476 531.599 42.9783 531.886C42.7089 532.173 42.5576 532.563 42.5576 532.969V536.031C42.5576 536.437 42.7089 536.827 42.9783 537.114C43.2476 537.401 43.6129 537.563 43.9938 537.563H69.8449C70.2258 537.563 70.5911 537.401 70.8604 537.114C71.1298 536.827 71.2811 536.437 71.2811 536.031V532.969C71.2811 532.563 71.1298 532.173 70.8604 531.886C70.5911 531.599 70.2258 531.438 69.8449 531.438Z" fill="#FAFAFA"/>
</g>
<path d="M96.985 355C96.985 382.614 75.2741 405 48.4925 405C21.7108 405 0 382.614 0 355C0 327.386 21.7108 305 48.4925 305C75.2741 305 96.985 327.386 96.985 355Z" fill="#6EA4F5"/>
<g clip-path="url(#clip1)">
<path d="M43.2561 356.463C43.7415 356.976 44.5283 356.976 45.0138 356.463L45.8922 355.536C46.3777 355.023 46.3777 354.192 45.8922 353.679L43.1178 350.75L45.8914 347.82C46.3769 347.307 46.3769 346.476 45.8914 345.963L45.013 345.036C44.5275 344.523 43.7407 344.523 43.2553 345.036L38.724 349.821C38.2386 350.334 38.2386 351.165 38.724 351.678L43.2561 356.463ZM50.7132 355.537L51.5917 356.464C52.0771 356.977 52.8639 356.977 53.3494 356.464L57.8807 351.679C58.3661 351.166 58.3661 350.335 57.8807 349.822L53.3494 345.037C52.8639 344.524 52.0771 344.524 51.5917 345.037L50.7132 345.964C50.2278 346.477 50.2278 347.308 50.7132 347.821L53.4868 350.75L50.7132 353.68C50.2278 354.193 50.2278 355.024 50.7132 355.537ZM71.9142 369.125H53.0822C53.0247 370.75 51.9396 371.75 50.5392 371.75H45.8169C44.3652 371.75 43.2522 370.317 43.2716 369.125H24.6905C24.007 369.125 23.4478 369.716 23.4478 370.438V371.75C23.4478 374.638 25.6847 377 28.4187 377H68.186C70.92 377 73.1569 374.638 73.1569 371.75V370.438C73.1569 369.716 72.5977 369.125 71.9142 369.125ZM68.186 338.938C68.186 336.772 66.5083 335 64.4578 335H32.1469C30.0964 335 28.4187 336.772 28.4187 338.938V366.5H68.186V338.938ZM63.2151 361.25H33.3896V340.25H63.2151V361.25Z" fill="#FAFAFA"/>
</g>
<path d="M96.985 175C96.985 202.614 75.2741 225 48.4925 225C21.7108 225 0 202.614 0 175C0 147.386 21.7108 125 48.4925 125C75.2741 125 96.985 147.386 96.985 175Z" fill="#6EA4F5"/>
<g clip-path="url(#clip2)">
<path d="M49.0686 191.278C48.8237 190.758 48.3968 190.705 48.2241 190.705C48.0514 190.705 47.6245 190.757 47.392 191.249L46.755 192.597C46.226 193.72 44.6764 193.596 44.3069 192.413L42.9093 187.978L42.0282 190.78C41.539 192.332 40.1696 193.375 38.6234 193.375H37.5944C36.8603 193.375 36.2657 192.746 36.2657 191.969C36.2657 191.192 36.8603 190.562 37.5944 190.562H38.6234C39.0245 190.562 39.3799 190.292 39.507 189.889L41.0175 185.087C41.2916 184.225 42.0506 183.645 42.9093 183.645C43.7679 183.645 44.527 184.224 44.8002 185.087L45.9528 188.747C47.5929 187.324 50.4422 187.894 51.4337 189.991C51.5907 190.323 51.8896 190.514 52.211 190.541V183.324L62.8407 172.154V168.062H51.5458C50.4497 168.062 49.5528 167.113 49.5528 165.953V154H32.944C31.8395 154 30.9509 154.94 30.9509 156.109V196.891C30.9509 198.06 31.8395 199 32.944 199H60.8468C61.9513 199 62.8398 198.06 62.8398 196.891V193.375L52.2102 193.365C50.8715 193.338 49.6707 192.55 49.0686 191.278ZM62.8398 164.714C62.8398 164.16 62.6322 163.624 62.2585 163.229L54.1285 154.615C53.7548 154.22 53.2482 154 52.7168 154H52.2102V165.25H62.8398V164.714ZM54.8676 184.495V190.562H60.5968L74.0234 176.256L68.3863 170.29L54.8676 184.495ZM78.1648 168.707L75.5182 165.906C74.6927 165.032 73.3532 165.032 72.5277 165.906L70.2648 168.301L75.9018 174.267L78.1648 171.872C78.9911 170.998 78.9911 169.58 78.1648 168.707Z" fill="#FAFAFA"/>
</g>
<ellipse cx="48.4924" cy="699" rx="12.608" ry="13" fill="#061529" fill-opacity="0.6"/>
<defs>
<clipPath id="clip0">
<rect width="45.9575" height="49" fill="white" transform="translate(25.3235 510)"/>
</clipPath>
<clipPath id="clip1">
<rect width="49.7092" height="42" fill="white" transform="translate(23.4478 335)"/>
</clipPath>
<clipPath id="clip2">
<rect width="47.8333" height="45" fill="white" transform="translate(30.9509 154)"/>
</clipPath>
</defs>
</svg>
