<svg width="171" height="171" viewBox="0 0 171 171" fill="none" xmlns="http://www.w3.org/2000/svg">
<path d="M0 171H171V0H0V171Z" fill="#FAFAFA"/>
<path d="M99.3768 100.896C99.3768 99.3062 98.0759 98.0053 96.4859 98.0053H77.2895C75.6996 98.0053 74.3983 99.3062 74.3983 100.896C74.3983 102.486 75.6996 103.787 77.2895 103.787C75.6996 103.787 74.3983 105.088 74.3983 106.678C74.3983 108.268 75.6996 109.569 77.2895 109.569H78.894C77.304 109.569 76.0031 110.87 76.0031 112.46C76.0031 114.05 77.304 115.351 78.894 115.351H94.8811C96.4714 115.351 97.7724 114.05 97.7724 112.46C97.7724 110.87 96.4714 109.569 94.8811 109.569H96.4859C98.0759 109.569 99.3768 108.268 99.3768 106.678C99.3768 105.088 98.0759 103.787 96.4859 103.787C98.0759 103.787 99.3768 102.486 99.3768 100.896Z" fill="#48C0D8"/>
<path d="M90.2212 75.4245V73.4652C90.2212 73.1357 90.4622 72.8631 90.7818 72.8312C91.0091 72.8085 91.2235 72.7974 91.4231 72.7974C92.087 72.7974 92.5856 72.9207 92.8306 73.1538C92.9305 73.2485 93.0607 73.4248 93.04 73.8595C93.0058 74.5764 91.8055 75.0976 90.2212 75.4245ZM99.7304 88.7059C99.3851 88.9684 99.1822 89.3771 99.1822 89.8109V93.8422C99.1822 96.5203 97.0036 98.6989 94.3255 98.6989H90.2212V77.1381C92.4593 76.7146 94.6185 75.8178 94.7083 73.9391C94.7573 72.9069 94.3396 72.2837 93.9805 71.9427C93.2798 71.2771 92.1485 71.018 90.6164 71.1696C89.4392 71.287 88.5513 72.2738 88.5513 73.4652V75.6853C87.5289 75.8014 86.4651 75.851 85.5127 75.8349C85.5068 75.8349 85.5006 75.8346 85.495 75.8349C85.4924 75.8346 85.4897 75.8349 85.4871 75.8349C84.5348 75.8504 83.4709 75.801 82.4486 75.6853V73.4652C82.4486 72.2738 81.5607 71.287 80.3834 71.1696C78.8516 71.017 77.7201 71.2771 77.0193 71.9427C76.6602 72.2837 76.2426 72.9069 76.2916 73.9391C76.381 75.8181 78.5399 76.7146 80.7787 77.1381V98.6989H76.6743C73.9962 98.6989 71.8173 96.5203 71.8173 93.8422V89.8109C71.8173 89.3771 71.6147 88.9684 71.2691 88.7059C65.3476 84.2063 61.9512 77.3686 61.9512 69.9463C61.9512 56.9614 72.5151 46.3976 85.4999 46.3976C98.4847 46.3976 109.049 56.9614 109.049 69.9463C109.049 77.3686 105.653 84.2063 99.7304 88.7059ZM88.5513 98.6989H82.4486V77.3759C83.7889 77.5117 84.9642 77.5137 85.4989 77.5051C86.0326 77.514 87.2093 77.512 88.5513 77.3759V98.6989ZM80.7787 75.4245C79.1946 75.0973 77.9937 74.5761 77.9598 73.8595C77.9391 73.4248 78.0693 73.2485 78.1693 73.1538C78.4146 72.9207 78.9128 72.7974 79.5771 72.7974C79.7763 72.7974 79.9908 72.8085 80.2177 72.8312C80.5376 72.8631 80.7787 73.1357 80.7787 73.4652V75.4245ZM95.0983 101.474C95.9273 101.474 96.6014 102.149 96.6014 102.978C96.6014 103.807 95.9273 104.481 95.0983 104.481H75.9019C75.0729 104.481 74.3984 103.807 74.3984 102.978C74.3984 102.149 75.0729 101.474 75.9019 101.474H76.6743H94.3255H95.0983ZM93.4938 116.045H89.5039H81.4959H77.5063C76.6773 116.045 76.0028 115.371 76.0028 114.542C76.0028 113.713 76.6773 113.039 77.5063 113.039H93.4938C94.3229 113.039 94.997 113.713 94.997 114.542C94.997 115.371 94.3229 116.045 93.4938 116.045ZM85.4999 124.602C79.9924 124.602 79.9924 121.713 79.9924 120.324C79.9924 119.495 80.6669 118.82 81.4959 118.82H89.5039C90.333 118.82 91.0074 119.495 91.0074 120.324C91.0074 121.924 91.0074 124.602 85.4999 124.602ZM96.6014 108.76C96.6014 109.589 95.9273 110.263 95.0983 110.263H93.4938H77.5063H75.9019C75.0729 110.263 74.3984 109.589 74.3984 108.76C74.3984 107.931 75.0729 107.256 75.9019 107.256H95.0983C95.9273 107.256 96.6014 107.931 96.6014 108.76ZM85.4999 43.6221C70.9846 43.6221 59.1758 55.4313 59.1758 69.9463C59.1758 78.0119 62.7628 85.4592 69.0422 90.488V93.8422C69.0422 96.5463 70.4568 98.9248 72.5842 100.281C71.984 101.017 71.6229 101.956 71.6229 102.978C71.6229 104.093 72.0554 105.106 72.7568 105.869C72.0554 106.631 71.6229 107.645 71.6229 108.76C71.6229 110.342 72.4888 111.724 73.7693 112.464C73.4253 113.08 73.2277 113.788 73.2277 114.542C73.2277 116.898 75.1413 118.814 77.4955 118.82C77.3186 119.289 77.2173 119.794 77.2173 120.324C77.2173 126.154 81.7215 127.378 85.4999 127.378C90.9963 127.378 93.7826 125.005 93.7826 120.324C93.7826 119.794 93.6813 119.289 93.5047 118.82C95.8589 118.814 97.7721 116.898 97.7721 114.542C97.7721 113.788 97.5745 113.08 97.2305 112.464C98.511 111.724 99.3769 110.342 99.3769 108.76C99.3769 107.645 98.9445 106.631 98.2434 105.869C98.9445 105.106 99.3769 104.093 99.3769 102.978C99.3769 101.956 99.0158 101.017 98.4157 100.281C100.543 98.9245 101.958 96.5463 101.958 93.8422V90.488C108.237 85.4592 111.824 78.0119 111.824 69.9463C111.824 55.4313 100.015 43.6221 85.4999 43.6221Z" fill="#333333"/>
</svg>
