<svg width="51" height="42" viewBox="0 0 51 42" fill="none" xmlns="http://www.w3.org/2000/svg">
<g clip-path="url(#clip0)">
<path d="M20.2561 21.4635C20.7415 21.9762 21.5283 21.9762 22.0138 21.4635L22.8922 20.5357C23.3777 20.023 23.3777 19.192 22.8922 18.6793L20.1178 15.75L22.8914 12.8198C23.3769 12.3071 23.3769 11.4762 22.8914 10.9635L22.013 10.0357C21.5275 9.52301 20.7407 9.52301 20.2553 10.0357L15.724 14.8214C15.2386 15.3341 15.2386 16.1651 15.724 16.6778L20.2561 21.4635ZM27.7132 20.5365L28.5917 21.4643C29.0771 21.977 29.8639 21.977 30.3494 21.4643L34.8807 16.6786C35.3661 16.1659 35.3661 15.3349 34.8807 14.8222L30.3494 10.0365C29.8639 9.52383 29.0771 9.52383 28.5917 10.0365L27.7132 10.9643C27.2278 11.477 27.2278 12.308 27.7132 12.8207L30.4868 15.75L27.7132 18.6802C27.2278 19.1929 27.2278 20.0238 27.7132 20.5365ZM48.9142 34.125H30.0822C30.0247 35.75 28.9396 36.75 27.5392 36.75H22.8169C21.3652 36.75 20.2522 35.3169 20.2716 34.125H1.69048C1.00698 34.125 0.447754 34.7156 0.447754 35.4375V36.75C0.447754 39.6375 2.68467 42 5.41867 42H45.186C47.92 42 50.1569 39.6375 50.1569 36.75V35.4375C50.1569 34.7156 49.5977 34.125 48.9142 34.125ZM45.186 3.9375C45.186 1.77188 43.5083 0 41.4578 0H9.14686C7.09635 0 5.41867 1.77188 5.41867 3.9375V31.5H45.186V3.9375ZM40.2151 26.25H10.3896V5.25H40.2151V26.25Z" fill="#FAFAFA"/>
</g>
<defs>
<clipPath id="clip0">
<rect width="49.7092" height="42" fill="white" transform="translate(0.447754)"/>
</clipPath>
</defs>
</svg>
