<svg width="175" height="174" viewBox="0 0 175 174" fill="none" xmlns="http://www.w3.org/2000/svg">
<path d="M139.449 130.891H127.21C123.725 130.891 120.899 128.086 120.899 124.621C120.899 121.156 123.725 118.35 127.21 118.35H131.417C134.902 118.35 137.728 115.545 137.728 112.079C137.728 108.614 134.902 105.809 131.417 105.809H106.175C102.69 105.809 99.8642 103.003 99.8642 99.5381C99.8642 96.0728 102.69 93.2674 106.175 93.2674H148.628C152.113 93.2674 154.939 90.4621 154.939 86.9967C154.939 83.5313 152.113 80.726 148.628 80.726H118.414C114.929 80.726 112.103 77.9202 112.103 74.4553C112.103 70.9899 114.929 68.1846 118.414 68.1846H129.887C133.373 68.1846 136.198 65.3792 136.198 61.9139C136.198 58.4485 133.373 55.6432 129.887 55.6432H104.645C101.161 55.6432 98.3349 52.8378 98.3349 49.3724C98.3349 45.907 101.161 43.1017 104.645 43.1017H108.47C111.955 43.1017 114.781 40.2964 114.781 36.831C114.781 33.366 111.955 30.5603 108.47 30.5603H70.2236C66.7387 30.5603 63.9131 33.366 63.9131 36.831C63.9131 40.2964 66.7387 43.1017 70.2236 43.1017H72.5185C76.0038 43.1017 78.8291 45.9071 78.8291 49.3724C78.8291 52.8377 76.0038 55.6432 72.5185 55.6432H68.3112C64.8263 55.6432 62.0007 58.4485 62.0007 61.9139C62.0007 65.3792 64.8263 68.1846 68.3112 68.1846H67.5465C71.0314 68.1846 73.857 70.99 73.857 74.4553C73.857 77.9203 71.0314 80.726 67.5465 80.726H25.858C22.3727 80.726 19.5471 83.5313 19.5471 86.9967C19.5471 90.4621 22.3727 93.2674 25.858 93.2674H36.5662C40.0512 93.2674 42.8767 96.0728 42.8767 99.5381C42.8767 103.003 40.0512 105.809 36.5662 105.809H35.0365C31.5512 105.809 28.7256 108.614 28.7256 112.079C28.7256 115.545 31.5512 118.35 35.0365 118.35H63.7207C67.2057 118.35 70.0312 121.156 70.0312 124.621C70.0312 128.086 67.2057 130.891 63.7207 130.891H49.187C45.7017 130.891 42.8761 133.697 42.8761 137.162C42.8761 140.628 45.7017 143.433 49.187 143.433H139.443C142.928 143.433 145.754 140.628 145.754 137.162C145.754 133.697 142.928 130.891 139.443 130.891H139.449Z" fill="#A7CFE8"/>
<path d="M38.3907 80.5786L27.2581 93.9948L28.3089 94.8126L39.4092 81.5007L38.3907 80.5786Z" fill="#9DB6C9"/>
<path d="M28.3079 95.1606C28.2327 95.1606 28.1571 95.1365 28.093 95.0871L27.0419 94.2743C26.9673 94.2164 26.9194 94.1311 26.9088 94.0375C26.8986 93.944 26.9267 93.8503 26.9869 93.7775L38.1204 80.3595C38.1813 80.286 38.2702 80.2408 38.3657 80.234C38.4612 80.2272 38.5556 80.2598 38.6265 80.3238L39.6447 81.2458C39.7833 81.3709 39.7979 81.5826 39.6786 81.7259L28.5783 95.0342C28.5093 95.1168 28.4093 95.16 28.3084 95.16L28.3079 95.1606ZM27.7571 93.9447L28.2553 94.3298L38.926 81.5373L38.4271 81.0855L27.7574 93.945L27.7571 93.9447Z" fill="#305D8A"/>
<path d="M27.4985 98.6406L34.0899 111.386H35.4917L28.6159 98.0316L27.4985 98.6406Z" fill="#9DB6C9"/>
<path d="M35.4916 111.734H34.0901C33.9588 111.734 33.8386 111.661 33.7784 111.545L27.1869 98.8002C27.1004 98.6325 27.1636 98.4263 27.33 98.3355L28.4472 97.7258C28.5306 97.6809 28.6275 97.6707 28.7188 97.6983C28.8091 97.7258 28.8844 97.7888 28.9279 97.8725L35.8036 111.227C35.8591 111.335 35.8543 111.464 35.7906 111.567C35.7271 111.671 35.6138 111.734 35.4916 111.734V111.734ZM34.304 111.037H34.9185L28.4683 98.5093L27.9661 98.7831L34.304 111.038V111.037Z" fill="#305D8A"/>
<path d="M38.5148 70.2542C39.2669 71.0027 39.2669 72.2158 38.5148 72.9639C37.762 73.712 36.5419 73.712 35.7892 72.9639C35.0371 72.2158 35.0371 71.0027 35.7892 70.2542C36.5419 69.5061 37.762 69.5061 38.5148 70.2542Z" fill="#9DB6C9"/>
<path d="M37.1515 73.8735C36.5432 73.8735 35.9711 73.638 35.5409 73.2103C34.6533 72.3276 34.6533 70.8912 35.5409 70.008C35.9711 69.5803 36.5432 69.3448 37.1515 69.3448C37.7599 69.3448 38.332 69.5803 38.7621 70.008C39.6497 70.8911 39.6497 72.3275 38.7621 73.2103C38.3319 73.638 37.7598 73.8735 37.1515 73.8735ZM37.1515 70.0417C36.7303 70.0417 36.3345 70.2047 36.0364 70.5006C35.4222 71.112 35.4222 72.1067 36.0364 72.7178C36.3344 73.0137 36.7303 73.1767 37.1515 73.1767C37.5727 73.1767 37.9686 73.0136 38.2666 72.7178C38.8809 72.1067 38.8809 71.112 38.2666 70.5006C37.9686 70.2047 37.5727 70.0417 37.1515 70.0417Z" fill="#305D8A"/>
<path d="M49.2081 78.8359C50.5302 80.1508 50.5302 82.2826 49.2081 83.5974C47.8859 84.9116 45.7416 84.912 44.4192 83.5974C43.0971 82.2825 43.0974 80.1504 44.4192 78.8359C45.7417 77.5213 47.8859 77.5213 49.2081 78.8359Z" fill="white"/>
<path d="M46.8142 84.9311C45.8161 84.9311 44.8776 84.5447 44.172 83.8432C42.7154 82.3946 42.7154 80.0377 44.172 78.589C44.8779 77.8876 45.8161 77.5011 46.8142 77.5011C47.8127 77.5011 48.7508 77.8876 49.4564 78.589C50.913 80.0377 50.913 82.3946 49.4564 83.8432C48.7508 84.5447 47.8123 84.9311 46.8142 84.9311ZM46.8142 78.1978C46.0033 78.1978 45.2409 78.5118 44.6675 79.0816C43.4843 80.2584 43.4843 82.1738 44.6675 83.3505C45.2409 83.9204 46.0033 84.2344 46.8142 84.2344C47.6252 84.2344 48.3875 83.9205 48.9609 83.3505C50.1441 82.1738 50.1441 80.2584 48.9609 79.0816C48.3878 78.5118 47.6255 78.1978 46.8142 78.1978Z" fill="#305D8A"/>
<path d="M39.2582 68.7738L34.3032 73.7005L36.0373 75.4247L40.9923 70.498L39.2582 68.7738Z" fill="#9DB6C9"/>
<path d="M36.0368 75.7761C35.9472 75.7761 35.8575 75.7421 35.7891 75.6741L34.055 73.9499C33.9182 73.8138 33.9182 73.5934 34.055 73.4573L39.0102 68.5304C39.0759 68.4651 39.1649 68.4283 39.2579 68.4283C39.351 68.4283 39.4399 68.4651 39.5057 68.5304L41.2397 70.2549C41.3766 70.391 41.3766 70.6114 41.2397 70.7475L36.2845 75.6741C36.2161 75.7421 36.1265 75.7761 36.0368 75.7761ZM34.7982 73.7036L36.0368 74.9352L40.4966 70.5012L39.2579 69.2693L34.7982 73.7036Z" fill="#305D8A"/>
<path d="M52.3887 77.8911L43.469 86.759L34.3025 75.6735L41.2395 68.7761L52.3887 77.8911Z" fill="#9DB6C9"/>
<path d="M43.469 87H43.452C43.3535 87 43.2614 87.0028 43.1985 86.9266L34.032 75.868C33.9173 75.7296 33.9273 75.5411 34.0549 75.4142L40.9919 68.5233C41.1198 68.3967 41.3238 68.3903 41.4621 68.5039L52.6113 77.6198C52.6876 77.6823 52.7342 77.7745 52.739 77.8725C52.7437 77.9712 52.7064 78.0671 52.6367 78.1365L43.7178 86.9514C43.6521 87.0171 43.5628 87 43.47 87H43.469ZM34.7748 75.697L43.4944 86.2414L51.8675 77.9162L41.2625 69.2464L34.7751 75.6966L34.7748 75.697Z" fill="#305D8A"/>
<g opacity="0.2">
<path opacity="0.2" d="M47.6814 82.0784L51.8525 77.932L41.2633 69.2468L38.0188 72.471L47.6814 82.0784Z" fill="#9DB6C9"/>
</g>
<g opacity="0.2">
<path opacity="0.2" d="M39.2574 69.2696L37.0276 71.4867L37.5231 71.9793L39.7529 69.7622L39.2574 69.2696Z" fill="#9DB6C9"/>
</g>
<g opacity="0.2">
<path opacity="0.2" d="M37.4413 70.0906C37.4413 70.0906 36.4288 69.8178 35.7271 70.8677C35.7271 70.8677 36.2643 70.768 36.5328 70.9939L37.4413 70.0906Z" fill="#9DB6C9"/>
</g>
<g opacity="0.2">
<path opacity="0.2" d="M46.4109 84.2856L46.9385 84.296L49.6633 81.586L49.9109 81.3398L49.8899 80.8682L46.4424 84.296" fill="#9DB6C9"/>
</g>
<path d="M29.9619 96.1611C29.9619 97.5288 28.8468 98.6372 27.4713 98.6372C26.0958 98.6372 24.9807 97.5288 24.9807 96.1611C24.9807 94.7931 26.0958 93.6844 27.4713 93.6844C28.8468 93.6844 29.9619 94.7931 29.9619 96.1611Z" fill="#9DB6C9"/>
<path d="M27.4708 98.9886C25.9044 98.9886 24.6299 97.7216 24.6299 96.1641C24.6299 94.6064 25.9044 93.3391 27.4708 93.3391C29.0373 93.3391 30.3118 94.6063 30.3118 96.1641C30.3118 97.7216 29.0373 98.9886 27.4708 98.9886ZM27.4708 94.0358C26.2907 94.0358 25.3307 94.9904 25.3307 96.1641C25.3307 97.3372 26.2908 98.2918 27.4708 98.2918C28.6509 98.2918 29.6111 97.3372 29.6111 96.1641C29.6111 94.9903 28.651 94.0358 27.4708 94.0358Z" fill="#305D8A"/>
<g opacity="0.2">
<path opacity="0.2" d="M27.4331 94.0383V98.2942C28.4842 98.2942 29.5733 97.3416 29.5733 96.1665C29.5734 94.9908 28.4842 94.0383 27.4331 94.0383Z" fill="#9DB6C9"/>
</g>
<path d="M28.6161 96.1611C28.6161 96.7895 28.1035 97.2992 27.4713 97.2992C26.839 97.2992 26.3264 96.7895 26.3264 96.1611C26.3264 95.5322 26.839 95.0225 27.4713 95.0225C28.1035 95.0225 28.6161 95.5321 28.6161 96.1611Z" fill="#9DB6C9"/>
<path d="M27.4705 97.6488C26.6459 97.6488 25.9753 96.982 25.9753 96.1624C25.9753 95.3425 26.646 94.6754 27.4705 94.6754C28.2951 94.6754 28.9658 95.3425 28.9658 96.1624C28.9658 96.982 28.2951 97.6488 27.4705 97.6488ZM27.4705 95.3722C27.0326 95.3722 26.676 95.7266 26.676 96.1624C26.676 96.5979 27.0326 96.9521 27.4705 96.9521C27.9085 96.9521 28.265 96.5979 28.265 96.1624C28.265 95.7266 27.9085 95.3722 27.4705 95.3722Z" fill="#305D8A"/>
<path d="M42.3666 118.703C42.4515 118.272 42.4987 117.828 42.4987 117.373C42.4987 113.586 39.411 110.516 35.602 110.516C31.793 110.516 28.7051 113.586 28.7051 117.373C28.7051 117.828 28.752 118.272 28.8371 118.703H42.3664H42.3666Z" fill="#9DB6C9"/>
<path d="M42.3667 119.051H28.8375C28.6702 119.051 28.5261 118.933 28.4936 118.77C28.4015 118.305 28.355 117.835 28.355 117.373C28.355 113.4 31.6062 110.167 35.6023 110.167C39.5985 110.167 42.8493 113.4 42.8493 117.373C42.8493 117.833 42.8028 118.303 42.7108 118.769C42.6786 118.933 42.5346 119.051 42.3669 119.051H42.3667ZM29.1315 118.354H42.0718C42.1225 118.025 42.1481 117.696 42.1481 117.373C42.1481 113.784 39.2114 110.864 35.6018 110.864C31.992 110.864 29.0552 113.784 29.0552 117.373C29.0552 117.697 29.0809 118.026 29.1312 118.354H29.1315Z" fill="#305D8A"/>
<g opacity="0.2">
<path opacity="0.2" d="M35.6021 110.516C34.4391 110.516 33.3452 110.805 32.3838 111.311C32.7479 111.252 33.1191 111.213 33.4999 111.213C37.3089 111.213 40.3965 114.283 40.3965 118.07C40.3965 118.284 40.3843 118.494 40.3644 118.703H42.3668C42.4516 118.272 42.4988 117.828 42.4988 117.373C42.4988 113.586 39.4111 110.516 35.6021 110.516Z" fill="#9DB6C9"/>
</g>
<g opacity="0.2">
<path opacity="0.2" d="M38.5867 81.3685L28.5032 93.5337L28.8059 93.6903L38.8054 81.6591L38.5867 81.3685Z" fill="#9DB6C9"/>
</g>
<g opacity="0.2">
<path opacity="0.2" d="M28.6011 98.7537L28.3237 98.8755L34.251 110.342H34.5721L28.6011 98.7537Z" fill="#9DB6C9"/>
</g>
<path d="M138.661 82.0262C138.041 83.2445 136.673 83.7966 135.604 83.2587C134.536 82.7216 134.173 81.2977 134.793 80.0795C135.413 78.8609 136.782 78.309 137.85 78.8466C138.918 79.3842 139.281 80.8075 138.661 82.0262Z" fill="#AFDDB5"/>
<path d="M136.474 83.8123C136.109 83.8123 135.761 83.7307 135.44 83.5691C134.832 83.2628 134.399 82.7093 134.22 82.0096C134.046 81.3274 134.137 80.5858 134.475 79.9214C134.978 78.9318 135.958 78.2918 136.969 78.2918C137.334 78.2918 137.682 78.3738 138.002 78.5351C139.241 79.1583 139.675 80.7947 138.969 82.1827C138.465 83.1728 137.486 83.8123 136.474 83.8123ZM136.969 78.9885C136.219 78.9885 135.486 79.4784 135.1 80.236C134.838 80.7501 134.767 81.3192 134.9 81.8381C135.028 82.3396 135.332 82.7335 135.757 82.9472C135.979 83.0592 136.22 83.1156 136.474 83.1156C137.224 83.1156 137.957 82.6261 138.343 81.8685C138.875 80.823 138.58 79.6067 137.686 79.157C137.464 79.0453 137.223 78.9885 136.969 78.9885Z" fill="#305D8A"/>
<g opacity="0.38">
<path opacity="0.38" d="M137.848 78.8464C137.804 78.8243 137.759 78.8069 137.714 78.7885C137.996 79.4339 137.983 80.2442 137.608 80.9808C137.014 82.1492 135.732 82.702 134.685 82.2713C134.87 82.6938 135.18 83.0463 135.602 83.2586C136.671 83.7965 138.039 83.2443 138.659 82.0261C139.279 80.8073 138.916 79.3839 137.848 78.8464Z" fill="#9DB6C9"/>
</g>
<path d="M136.745 83.0702C138.164 85.7578 137.412 88.9283 135.067 90.1519C132.721 91.3756 129.67 90.1886 128.252 87.501C126.833 84.8137 127.585 81.6433 129.93 80.4192C132.276 79.1956 135.326 80.3826 136.745 83.0702Z" fill="#AFDDB5"/>
<path d="M133.087 90.9846C131.031 90.9846 129.014 89.6815 127.95 87.6651C127.225 86.2911 127.01 84.753 127.347 83.3337C127.687 81.8966 128.55 80.7525 129.775 80.1129C130.439 79.7666 131.162 79.591 131.925 79.591C133.982 79.591 135.999 80.894 137.063 82.9104C137.788 84.2845 138.003 85.823 137.667 87.242C137.326 88.6793 136.464 89.8232 135.238 90.4628C134.574 90.8091 133.851 90.9846 133.087 90.9846ZM131.925 80.288C131.277 80.288 130.663 80.4369 130.101 80.7302C129.058 81.2745 128.322 82.2561 128.029 83.4937C127.731 84.7495 127.923 86.1161 128.571 87.3415C129.515 89.1314 131.288 90.288 133.087 90.288C133.736 90.288 134.35 90.1391 134.912 89.8458C135.955 89.3018 136.691 88.3202 136.984 87.0826C137.282 85.8266 137.09 84.4599 136.443 83.2346C135.498 81.4447 133.725 80.288 131.925 80.288Z" fill="#305D8A"/>
<g opacity="0.38">
<path opacity="0.38" d="M136.745 83.0702C135.327 80.3826 132.276 79.1956 129.93 80.4193C129.842 80.4656 129.76 80.5197 129.676 80.5714C131.666 80.7453 133.539 82.2704 134.265 84.5355C135.029 86.9183 134.282 89.3655 132.584 90.6017C133.433 90.6937 134.289 90.5582 135.067 90.152C137.412 88.9283 138.164 85.7578 136.745 83.0702Z" fill="#9DB6C9"/>
</g>
<path d="M127.886 98.9168C129.445 99.438 130.997 99.0104 131.351 97.9618C131.706 96.9132 130.729 95.6406 129.17 95.1194C127.611 94.5982 126.06 95.0257 125.705 96.0744C125.351 97.123 126.327 98.3956 127.886 98.9168Z" fill="#AFDDB5"/>
<path d="M129.194 99.4844C128.72 99.4844 128.237 99.4033 127.761 99.2441C125.991 98.6525 124.937 97.2103 125.359 95.9605C125.654 95.0879 126.603 94.5459 127.835 94.5459C128.309 94.5459 128.791 94.6269 129.268 94.7861C131.037 95.3778 132.092 96.8199 131.669 98.0698C131.374 98.9423 130.426 99.4844 129.194 99.4844ZM127.835 95.2427C126.927 95.2427 126.216 95.6114 126.024 96.1824C125.736 97.0328 126.634 98.1324 127.984 98.5835C128.389 98.719 128.795 98.7876 129.194 98.7876C130.101 98.7876 130.812 98.4189 131.005 97.8481C131.292 96.9976 130.395 95.898 129.044 95.4468C128.64 95.3114 128.233 95.2427 127.835 95.2427Z" fill="#305D8A"/>
<g opacity="0.38">
<path opacity="0.38" d="M129.159 95.1172C127.6 94.596 126.048 95.0236 125.694 96.0722C125.646 96.213 125.624 96.3583 125.623 96.505C126.291 96.2276 127.197 96.2062 128.107 96.5107C129.457 96.9619 130.368 97.976 130.359 98.9204C130.836 98.7227 131.192 98.3958 131.34 97.9596C131.694 96.9111 130.718 95.6383 129.159 95.1172Z" fill="#9DB6C9"/>
</g>
<path d="M147.402 88.305C148.116 89.3804 147.398 91.1026 145.798 92.1515C144.2 93.2004 142.324 93.1783 141.611 92.1028C140.898 91.0274 141.616 89.305 143.215 88.2564C144.814 87.2075 146.689 87.2293 147.402 88.305Z" fill="#AFDDB5"/>
<path d="M143.412 93.2727C142.482 93.2727 141.739 92.9253 141.32 92.295C140.502 91.0604 141.266 89.1185 143.024 87.9659C143.84 87.4308 144.757 87.1357 145.605 87.1357C146.536 87.1357 147.279 87.4831 147.697 88.1134C148.515 89.3478 147.751 91.2896 145.993 92.4426C145.177 92.9778 144.261 93.2727 143.412 93.2727ZM145.605 87.8325C144.893 87.8325 144.113 88.0863 143.41 88.5477C141.999 89.4727 141.31 91.0132 141.906 91.9113C142.19 92.34 142.725 92.576 143.412 92.576C144.125 92.576 144.905 92.3219 145.607 91.8609C147.018 90.9355 147.707 89.395 147.112 88.4973C146.827 88.0686 146.292 87.8325 145.605 87.8325Z" fill="#305D8A"/>
<g opacity="0.38">
<path opacity="0.38" d="M147.403 88.305C147.24 88.0601 147.015 87.8726 146.749 87.7372C147.13 88.9492 146.007 90.4103 144.213 91.0186C143.165 91.3742 142.119 91.3581 141.342 91.0468C141.323 91.4313 141.407 91.7939 141.611 92.1028C142.325 93.1782 144.2 93.2003 145.799 92.1515C147.398 91.1026 148.116 89.3804 147.403 88.305Z" fill="#9DB6C9"/>
</g>
<path d="M136.754 105.462C141.011 105.462 144.462 101.29 144.462 96.1437C144.462 90.9972 141.011 86.8251 136.754 86.8251C132.496 86.8251 129.045 90.9972 129.045 96.1437C129.045 101.29 132.496 105.462 136.754 105.462Z" fill="#AFDDB5"/>
<path d="M136.754 105.809C132.31 105.809 128.695 101.473 128.695 96.1419C128.695 90.8112 132.31 86.4745 136.754 86.4745C141.197 86.4745 144.812 90.8111 144.812 96.1419C144.812 101.473 141.197 105.809 136.754 105.809ZM136.754 87.1714C132.697 87.1714 129.396 91.1957 129.396 96.1419C129.396 101.088 132.697 105.112 136.754 105.112C140.811 105.112 144.112 101.088 144.112 96.1419C144.112 91.1957 140.811 87.1714 136.754 87.1714Z" fill="#305D8A"/>
<g opacity="0.38">
<path opacity="0.38" d="M136.754 86.826C136.213 86.826 135.686 86.8941 135.177 87.022C138.678 87.9018 141.308 91.6515 141.308 96.1448C141.308 100.638 138.678 104.388 135.177 105.268C135.686 105.396 136.213 105.464 136.754 105.464C141.011 105.464 144.462 101.291 144.462 96.145C144.462 90.9987 141.011 86.8264 136.754 86.8264V86.826Z" fill="#9DB6C9"/>
</g>
<path d="M145.863 116.728C145.863 117.819 144.973 118.703 143.876 118.703H129.98C128.883 118.703 127.994 117.819 127.994 116.728L126.242 103.955C126.242 102.865 127.131 101.981 128.228 101.981H145.628C146.725 101.981 147.614 102.865 147.614 103.955L145.862 116.728H145.863Z" fill="#E4C6AA"/>
<path d="M143.876 119.051H129.98C128.7 119.051 127.657 118.022 127.643 116.752L125.895 104.002C125.893 103.987 125.892 103.971 125.892 103.955C125.892 102.674 126.94 101.632 128.229 101.632H145.628C146.917 101.632 147.965 102.674 147.965 103.955C147.965 103.971 147.964 103.987 147.962 104.002L146.213 116.752C146.2 118.022 145.156 119.051 143.876 119.051H143.876ZM126.592 103.933L128.341 116.68C128.343 116.695 128.344 116.711 128.344 116.727C128.344 117.624 129.078 118.353 129.98 118.353H143.876C144.779 118.353 145.513 117.624 145.513 116.727C145.513 116.711 145.513 116.695 145.516 116.68L147.264 103.933C147.252 103.046 146.523 102.329 145.628 102.329H128.229C127.334 102.329 126.605 103.046 126.593 103.933H126.592Z" fill="#305D8A"/>
<g opacity="0.38">
<path opacity="0.38" d="M145.626 101.981H143.874C144.971 101.981 145.861 102.866 145.861 103.956L144.109 116.729C144.109 117.819 143.22 118.704 142.123 118.704H143.874C144.971 118.704 145.861 117.819 145.861 116.729L147.613 103.956C147.613 102.866 146.723 101.981 145.626 101.981Z" fill="#AA9E80"/>
</g>
<path d="M122.386 113.944C122.386 115.035 121.497 115.919 120.4 115.919H56.0496C54.9526 115.919 54.063 115.035 54.063 113.944V70.8632C54.063 69.7725 54.9526 68.8883 56.0496 68.8883H120.4C121.497 68.8883 122.386 69.7725 122.386 70.8632V113.944Z" fill="white"/>
<path d="M120.4 116.267H56.0498C54.7612 116.267 53.7129 115.225 53.7129 113.943V70.8628C53.7129 69.5816 54.7612 68.5395 56.0498 68.5395H120.4C121.689 68.5395 122.737 69.5816 122.737 70.8628V113.943C122.737 115.225 121.689 116.267 120.4 116.267L120.4 116.267ZM56.0498 69.2364C55.1475 69.2364 54.4136 69.9661 54.4136 70.8629V113.944C54.4136 114.84 55.1475 115.57 56.0498 115.57H120.4C121.302 115.57 122.036 114.84 122.036 113.944V70.8629C122.036 69.9661 121.302 69.2364 120.4 69.2364H56.0498Z" fill="#305D8A"/>
<g opacity="0.2">
<path opacity="0.2" d="M120.05 68.8849H119.409C120.279 68.8849 120.985 69.5867 120.985 70.4525V113.128H122.037V70.8597C122.036 69.7689 121.147 68.8848 120.05 68.8848V68.8849Z" fill="#9DB6C9"/>
</g>
<g opacity="0.2">
<path opacity="0.2" d="M118.177 103.486C118.177 104.577 117.288 105.461 116.191 105.461H60.2503C59.1533 105.461 58.2637 104.577 58.2637 103.486V73.6437C58.2637 72.553 59.1533 71.6688 60.2503 71.6688H116.191C117.288 71.6688 118.177 72.5531 118.177 73.6437V103.486Z" fill="#9DB6C9"/>
</g>
<path d="M118.177 113.239C118.177 114.33 117.288 115.214 116.191 115.214H60.2503C59.1533 115.214 58.2637 114.33 58.2637 113.239V74.6878C58.2637 73.5971 59.1533 72.7129 60.2503 72.7129H116.191C117.288 72.7129 118.177 73.5971 118.177 74.6878V113.239Z" fill="#EFEFEF"/>
<path d="M116.191 115.571H60.2508C58.9622 115.571 57.9138 114.529 57.9138 113.248V74.6961C57.9138 73.4149 58.9622 72.3729 60.2508 72.3729H116.191C117.48 72.3729 118.528 73.4149 118.528 74.6961V113.248C118.528 114.529 117.48 115.571 116.191 115.571V115.571ZM60.2508 73.0696C59.3485 73.0696 58.6146 73.7993 58.6146 74.696V113.247C58.6146 114.144 59.3486 114.874 60.2508 114.874H116.191C117.094 114.874 117.827 114.144 117.827 113.247V74.696C117.827 73.7992 117.093 73.0696 116.191 73.0696H60.2508Z" fill="#305D8A"/>
<g opacity="0.41">
<path opacity="0.41" d="M116.104 73.0652H78.2803L117.829 100.587V75.0401C117.829 73.5592 117.077 73.0652 116.104 73.0652H116.104Z" fill="white"/>
</g>
<path d="M134.19 113.474H42.6038C41.5068 113.474 41.0035 114.404 41.3179 115.449C41.4226 115.797 41.6369 116.606 41.7272 116.958C41.9985 118.015 42.9083 118.7 44.0053 118.7H132.792C133.889 118.7 134.798 118.015 135.07 116.958C135.16 116.606 135.374 115.797 135.479 115.449C135.793 114.404 135.29 113.474 134.193 113.474H134.19Z" fill="white"/>
<path d="M132.79 119.051H44.0037C42.7459 119.051 41.6938 118.246 41.3861 117.047C41.2992 116.709 41.0844 115.896 40.9807 115.551C40.7798 114.885 40.864 114.236 41.2116 113.773C41.5226 113.357 42.0164 113.129 42.6021 113.129H134.188C134.774 113.129 135.268 113.357 135.579 113.773C135.927 114.236 136.011 114.885 135.81 115.552C135.706 115.896 135.491 116.709 135.404 117.047C135.097 118.246 134.045 119.051 132.787 119.051H132.79ZM42.6037 113.825C42.2396 113.825 41.9532 113.951 41.775 114.189C41.5611 114.474 41.517 114.898 41.6535 115.352C41.7613 115.711 41.9759 116.521 42.0665 116.875C42.2975 117.773 43.0585 118.354 44.0053 118.354H132.792C133.738 118.354 134.499 117.773 134.73 116.875C134.821 116.521 135.035 115.711 135.143 115.352C135.28 114.898 135.236 114.474 135.022 114.189C134.843 113.951 134.557 113.825 134.193 113.825H42.6068H42.6037Z" fill="#305D8A"/>
<g opacity="0.2">
<path opacity="0.2" d="M94.2288 113.474H78.5908V114.635C78.5908 115.725 79.4804 116.61 80.5774 116.61H95.8751C96.972 116.61 97.8616 115.725 97.8616 114.635V113.474H94.2288Z" fill="#9DB6C9"/>
</g>
<path d="M94.2288 113.474H78.9565C79.0728 114.455 79.9105 115.216 80.9281 115.216H95.5248C96.5425 115.216 97.38 114.455 97.4964 113.474H94.229H94.2288Z" fill="#9DB6C9"/>
<path d="M95.5237 115.571H80.9269C79.7434 115.571 78.746 114.69 78.6074 113.521C78.5957 113.423 78.6269 113.323 78.6936 113.249C78.76 113.175 78.8554 113.132 78.9554 113.132H97.4949C97.5948 113.132 97.6902 113.175 97.7566 113.249C97.8233 113.323 97.8545 113.423 97.8428 113.521C97.7042 114.69 96.7068 115.571 95.5233 115.571H95.5237ZM79.3992 113.829C79.6356 114.445 80.2357 114.874 80.9266 114.874H95.5233C96.2142 114.874 96.8143 114.445 97.0508 113.829H79.3994H79.3992Z" fill="#305D8A"/>
<g opacity="0.2">
<path opacity="0.2" d="M42.0322 117.311C42.4524 117.961 43.1747 118.356 44.0061 118.356H132.792C133.624 118.356 134.346 117.961 134.766 117.311H42.0339H42.0322Z" fill="#9DB6C9"/>
</g>
<g opacity="0.33">
<path opacity="0.33" d="M116.191 72.7164H60.2508C59.1538 72.7164 58.2642 73.6006 58.2642 74.6913V75.7364C58.2642 74.6457 59.1538 73.7615 60.2508 73.7615H116.191C117.288 73.7615 118.178 74.6458 118.178 75.7364V74.6913C118.178 73.6006 117.288 72.7164 116.191 72.7164Z" fill="#9DB6C9"/>
</g>
<g opacity="0.2">
<path opacity="0.2" d="M120.983 112.43H54.061V113.127H120.983V112.43Z" fill="#9DB6C9"/>
</g>
<path d="M88.4013 71.062C88.619 71.062 88.7955 70.8866 88.7955 70.6701C88.7955 70.4537 88.619 70.2782 88.4013 70.2782C88.1836 70.2782 88.0071 70.4537 88.0071 70.6701C88.0071 70.8866 88.1836 71.062 88.4013 71.062Z" fill="#305D8A"/>
<g opacity="0.2">
<path opacity="0.2" d="M119.578 68.9022C119.636 68.8954 119.693 68.8846 119.753 68.8846H119.578V68.9022Z" fill="#9DB6C9"/>
</g>
<path d="M154.971 119.051H153.219C153.026 119.051 152.869 118.895 152.869 118.702C152.869 118.51 153.026 118.354 153.219 118.354H154.971C155.165 118.354 155.322 118.51 155.322 118.702C155.322 118.895 155.165 119.051 154.971 119.051ZM150.416 119.051H147.613C147.42 119.051 147.263 118.895 147.263 118.702C147.263 118.51 147.42 118.354 147.613 118.354H150.416C150.61 118.354 150.767 118.51 150.767 118.702C150.767 118.895 150.61 119.051 150.416 119.051Z" fill="#305D8A"/>
<path d="M147.613 119.051H33.04C32.8464 119.051 32.6897 118.895 32.6897 118.702C32.6897 118.51 32.8464 118.354 33.04 118.354H147.613C147.806 118.354 147.963 118.51 147.963 118.702C147.963 118.895 147.806 119.051 147.613 119.051Z" fill="#305D8A"/>
<path d="M32.6917 119.051C32.4984 119.051 32.3396 118.895 32.3396 118.702C32.3396 118.51 32.4946 118.354 32.6883 118.354H32.6917C32.8854 118.354 33.0421 118.51 33.0421 118.702C33.0421 118.895 32.8854 119.051 32.6917 119.051ZM29.8853 119.051H27.0823C26.8886 119.051 26.7319 118.895 26.7319 118.702C26.7319 118.51 26.8886 118.354 27.0823 118.354H29.8853C30.079 118.354 30.2357 118.51 30.2357 118.702C30.2357 118.895 30.079 119.051 29.8853 119.051ZM24.2794 119.051H21.4763C21.2827 119.051 21.126 118.895 21.126 118.702C21.126 118.51 21.2827 118.354 21.4763 118.354H24.2794C24.473 118.354 24.6297 118.51 24.6297 118.702C24.6297 118.895 24.4729 119.051 24.2794 119.051Z" fill="#305D8A"/>
<path d="M139.729 82.6456C139.679 82.6456 139.628 82.6351 139.58 82.6123L137.668 81.7162C137.493 81.6342 137.418 81.4267 137.501 81.2525C137.583 81.079 137.792 81.0031 137.967 81.0861L139.879 81.9822C140.053 82.0642 140.128 82.2718 140.046 82.446C139.986 82.5718 139.86 82.6456 139.729 82.6456Z" fill="#305D8A"/>
<path d="M136.728 79.0064C136.547 79.0064 136.394 78.869 136.379 78.687L136.275 77.449C136.259 77.2575 136.402 77.0891 136.595 77.0731C136.792 77.0503 136.957 77.1993 136.973 77.3912L137.077 78.6292C137.093 78.8207 136.95 78.9891 136.757 79.0051C136.747 79.0061 136.737 79.0064 136.728 79.0064Z" fill="#305D8A"/>
<path d="M135.573 80.2854C135.513 80.2854 135.453 80.2704 135.398 80.2387L133.775 79.3079C133.607 79.2116 133.55 78.9986 133.647 78.832C133.743 78.6655 133.957 78.6085 134.125 78.7044L135.748 79.6352C135.916 79.7315 135.973 79.9444 135.877 80.1112C135.812 80.2228 135.694 80.2854 135.573 80.2854Z" fill="#305D8A"/>
<path d="M138.959 80.2854C138.789 80.2854 138.64 80.1622 138.613 79.9897C138.584 79.7996 138.715 79.622 138.906 79.5927L139.673 79.4757C139.864 79.4461 140.042 79.5771 140.072 79.7674C140.101 79.9575 139.97 80.1351 139.779 80.1644L139.012 80.2814C138.994 80.284 138.976 80.2854 138.959 80.2854Z" fill="#305D8A"/>
<path d="M139.729 93.7947C139.647 93.7947 139.564 93.7662 139.498 93.7083C139.352 93.5814 139.338 93.3613 139.465 93.2168L140.651 91.8722C140.778 91.7273 141 91.7137 141.145 91.8399C141.29 91.9668 141.305 92.187 141.177 92.3316L139.992 93.676C139.923 93.7545 139.826 93.7947 139.729 93.7947Z" fill="#305D8A"/>
<path d="M147.613 92.4463C147.538 92.4463 147.463 92.4227 147.4 92.3745L145.473 90.9079C145.319 90.7908 145.29 90.5724 145.408 90.4197C145.525 90.2669 145.746 90.238 145.899 90.3547L147.826 91.8213C147.979 91.9384 148.009 92.1567 147.891 92.3095C147.822 92.3993 147.718 92.4463 147.613 92.4463Z" fill="#305D8A"/>
<path d="M145.337 93.4467C145.192 93.4467 145.056 93.356 145.006 93.2117L144.806 92.6326C144.743 92.4506 144.84 92.2524 145.023 92.19C145.207 92.1271 145.406 92.2244 145.468 92.406L145.669 92.9851C145.732 93.1671 145.634 93.3654 145.451 93.4276C145.414 93.4407 145.375 93.4467 145.337 93.4467Z" fill="#305D8A"/>
<path d="M143.43 89.2185C143.277 89.2185 143.136 89.1175 143.093 88.9633L142.603 87.2116C142.552 87.0262 142.661 86.8342 142.847 86.7826C143.034 86.7316 143.227 86.8397 143.279 87.0251L143.768 88.7769C143.82 88.9623 143.711 89.1542 143.524 89.2059C143.493 89.2144 143.461 89.2185 143.43 89.2185Z" fill="#305D8A"/>
<path d="M145.512 87.696C145.46 87.696 145.406 87.6841 145.356 87.6593C145.183 87.5733 145.113 87.3639 145.199 87.1918L145.55 86.4951C145.636 86.3229 145.847 86.2535 146.02 86.3392C146.193 86.4253 146.263 86.6346 146.177 86.8067L145.826 87.5034C145.765 87.6256 145.641 87.696 145.512 87.696Z" fill="#305D8A"/>
<path d="M146.913 89.2186C146.755 89.2186 146.612 89.1123 146.573 88.9538C146.526 88.7671 146.641 88.5783 146.829 88.532L148.756 88.0578C148.943 88.0125 149.134 88.1254 149.18 88.3122C149.227 88.499 149.112 88.6878 148.924 88.7341L146.997 89.2084C146.969 89.2152 146.941 89.2186 146.913 89.2186Z" fill="#305D8A"/>
<path d="M148.251 90.2016C148.241 90.2016 148.231 90.2012 148.221 90.2002L147.579 90.1454C147.386 90.1291 147.243 89.9603 147.26 89.7685C147.276 89.5773 147.444 89.4275 147.639 89.4514L148.281 89.5061C148.474 89.5224 148.617 89.6912 148.6 89.8831C148.584 90.0645 148.431 90.2016 148.251 90.2016Z" fill="#305D8A"/>
<path d="M131.145 81.0779C131.122 81.0779 131.099 81.0759 131.076 81.0711C130.886 81.0334 130.763 80.85 130.801 80.6612L131.151 78.9194C131.189 78.7306 131.373 78.6067 131.564 78.6462C131.753 78.684 131.876 78.8674 131.839 79.0561L131.488 80.7981C131.455 80.9637 131.308 81.0779 131.145 81.0779Z" fill="#305D8A"/>
<path d="M129.658 80.9274C129.584 80.9274 129.509 80.9043 129.446 80.8563L128.596 80.2147C128.442 80.0984 128.412 79.8799 128.529 79.7268C128.646 79.5731 128.866 79.5437 129.02 79.6601L129.87 80.3018C130.024 80.4181 130.054 80.6366 129.937 80.7896C129.868 80.8801 129.763 80.9274 129.658 80.9274Z" fill="#305D8A"/>
<path d="M127.54 88.74C127.383 88.74 127.24 88.6342 127.2 88.4757C127.154 88.2889 127.268 88.0998 127.456 88.0535L129.574 87.5309C129.762 87.4859 129.952 87.5982 129.999 87.785C130.045 87.9717 129.931 88.1609 129.743 88.2072L127.625 88.7298C127.597 88.7366 127.568 88.74 127.54 88.74Z" fill="#305D8A"/>
<path d="M131.145 85.6341C131.108 85.6341 131.071 85.6284 131.034 85.6164L129.548 85.1245C129.364 85.0636 129.265 84.8663 129.326 84.6839C129.387 84.5012 129.586 84.4036 129.769 84.4631L131.255 84.9551C131.439 85.016 131.538 85.2133 131.478 85.3957C131.429 85.5419 131.292 85.6341 131.145 85.6341Z" fill="#305D8A"/>
<path d="M132.501 83.2259C132.48 83.2259 132.459 83.2241 132.437 83.22C132.247 83.185 132.121 83.003 132.156 82.8138L132.432 81.3374C132.467 81.1482 132.65 81.022 132.841 81.0584C133.031 81.0934 133.156 81.2754 133.121 81.4646L132.845 82.941C132.814 83.1088 132.667 83.2259 132.501 83.2259Z" fill="#305D8A"/>
<path d="M135.293 83.4582C135.228 83.4582 135.161 83.4401 135.103 83.4024C134.94 83.2984 134.893 83.0826 134.999 82.921L136.108 81.2121C136.213 81.0502 136.431 81.0038 136.592 81.1083C136.755 81.2124 136.802 81.4281 136.697 81.5897L135.587 83.2986C135.52 83.4021 135.408 83.4582 135.293 83.4582Z" fill="#305D8A"/>
<path d="M138.154 85.3879C138.139 85.3879 138.125 85.3872 138.11 85.3851L136.124 85.1391C135.932 85.1153 135.796 84.9415 135.82 84.7503C135.844 84.5594 136.016 84.425 136.211 84.4478L138.197 84.6937C138.389 84.7175 138.525 84.8914 138.501 85.0826C138.479 85.2589 138.328 85.3879 138.154 85.3879Z" fill="#305D8A"/>
<path d="M127.768 86.625C127.738 86.625 127.707 86.6213 127.677 86.6135L125.799 86.1178C125.612 86.0685 125.501 85.8776 125.55 85.6916C125.6 85.5058 125.793 85.3952 125.979 85.4442L127.857 85.94C128.044 85.9893 128.156 86.1802 128.106 86.3662C128.064 86.5219 127.923 86.625 127.768 86.625Z" fill="#305D8A"/>
<path d="M126.823 84.2709C126.653 84.2709 126.504 84.148 126.477 83.9759C126.447 83.7856 126.578 83.6078 126.769 83.5781L127.481 83.4683C127.674 83.4396 127.852 83.569 127.881 83.7592C127.911 83.9494 127.78 84.1273 127.589 84.1569L126.877 84.2668C126.858 84.2695 126.84 84.2709 126.823 84.2709Z" fill="#305D8A"/>
<path d="M133.595 86.3771C133.556 86.3771 133.517 86.3707 133.479 86.3574C133.296 86.2934 133.2 86.0945 133.264 85.9131L133.615 84.9241C133.679 84.7424 133.88 84.6482 134.062 84.7111C134.244 84.775 134.34 84.9741 134.276 85.1554L133.925 86.1444C133.875 86.2877 133.739 86.3771 133.595 86.3771Z" fill="#305D8A"/>
<path d="M129.045 82.6456C128.957 82.6456 128.868 82.6127 128.8 82.5466L127.876 81.6505C127.737 81.5165 127.734 81.2956 127.869 81.1579C128.005 81.0201 128.227 81.0181 128.365 81.1518L129.29 82.0479C129.428 82.182 129.431 82.4027 129.296 82.5405C129.227 82.6106 129.136 82.6456 129.045 82.6456Z" fill="#305D8A"/>
<path d="M131.906 87.696C131.863 87.696 131.819 87.6882 131.776 87.6712L131.192 87.4388C131.012 87.3671 130.925 87.1643 130.997 86.9856C131.069 86.807 131.273 86.7206 131.453 86.7917L132.037 87.0241C132.216 87.0959 132.304 87.2986 132.232 87.4772C132.177 87.6134 132.045 87.696 131.906 87.696Z" fill="#305D8A"/>
<path d="M128.118 95.9958C128.012 95.9958 127.907 95.9486 127.838 95.8584L126.549 94.1746C126.432 94.0215 126.462 93.8031 126.615 93.6865C126.769 93.5698 126.989 93.5994 127.107 93.7529L128.396 95.4366C128.513 95.5897 128.483 95.8081 128.329 95.9247C128.266 95.9728 128.191 95.9958 128.118 95.9958Z" fill="#305D8A"/>
<path d="M126.236 95.7C126.153 95.7 126.07 95.6711 126.003 95.6122L125.386 95.067C125.241 94.9395 125.228 94.7195 125.356 94.5752C125.484 94.4313 125.707 94.4183 125.851 94.5459L126.469 95.091C126.614 95.2185 126.627 95.4386 126.498 95.5829C126.429 95.6605 126.333 95.7 126.236 95.7Z" fill="#305D8A"/>
<path d="M125.247 97.9707C125.107 97.9707 124.975 97.8862 124.921 97.7481C124.851 97.5688 124.941 97.367 125.121 97.2973L126.702 96.6876C126.882 96.6186 127.085 96.7071 127.156 96.8867C127.226 97.066 127.136 97.2678 126.956 97.3374L125.374 97.9471C125.333 97.9631 125.289 97.9707 125.247 97.9707Z" fill="#305D8A"/>
<path d="M126.236 99.4845C126.16 99.4845 126.083 99.4599 126.019 99.4089C125.867 99.2895 125.842 99.0704 125.962 98.9197L126.551 98.1821C126.671 98.0314 126.891 98.0056 127.043 98.1256C127.194 98.2451 127.22 98.4641 127.099 98.6148L126.511 99.3525C126.442 99.4392 126.339 99.4845 126.236 99.4845Z" fill="#305D8A"/>
<path d="M127.768 99.8325C127.744 99.8325 127.72 99.8302 127.696 99.8254C127.507 99.7862 127.385 99.6019 127.424 99.4138L127.774 97.73C127.813 97.5414 127.998 97.421 128.188 97.4592C128.378 97.4984 128.5 97.6827 128.461 97.8708L128.11 99.5545C128.076 99.7192 127.93 99.8325 127.768 99.8325Z" fill="#305D8A"/>
<path d="M139.965 89.2185C139.927 89.2185 139.889 89.2127 139.852 89.1998C139.669 89.1375 139.571 88.9398 139.633 88.7575L140.334 86.7156C140.396 86.5336 140.596 86.4356 140.779 86.4985C140.962 86.5607 141.06 86.7584 140.997 86.9407L140.296 88.9826C140.247 89.1273 140.111 89.2185 139.965 89.2185Z" fill="#305D8A"/>
<path d="M138.661 87.4611C138.646 87.4611 138.632 87.46 138.617 87.4584C138.425 87.4343 138.289 87.2598 138.313 87.0688L138.42 86.2292C138.445 86.0383 138.618 85.9067 138.812 85.9274C139.004 85.9516 139.14 86.1261 139.116 86.317L139.008 87.1566C138.986 87.3325 138.835 87.4611 138.661 87.4611Z" fill="#305D8A"/>
<path d="M132.501 90.2016C132.432 90.2016 132.363 90.1816 132.302 90.1394L130.534 88.917C130.375 88.8071 130.335 88.5901 130.446 88.432C130.556 88.2737 130.774 88.2346 130.934 88.3448L132.702 89.5671C132.861 89.6771 132.9 89.8942 132.789 90.0523C132.721 90.1496 132.612 90.2016 132.501 90.2016Z" fill="#305D8A"/>
<path d="M135.345 87.348C135.308 87.348 135.271 87.3422 135.234 87.3299C135.051 87.2694 134.952 87.072 135.013 86.8894L135.363 85.8443C135.424 85.6619 135.621 85.5626 135.806 85.6242C135.99 85.6847 136.089 85.882 136.028 86.0647L135.677 87.1098C135.628 87.2557 135.492 87.348 135.345 87.348Z" fill="#305D8A"/>
<path d="M135.293 89.5926C135.194 89.5926 135.097 89.5517 135.028 89.4722L134.496 88.8607C134.37 88.7152 134.386 88.4951 134.532 88.3692C134.678 88.2437 134.899 88.2593 135.026 88.4049L135.558 89.0163C135.684 89.1618 135.668 89.3819 135.522 89.5078C135.455 89.5647 135.374 89.5926 135.293 89.5926Z" fill="#305D8A"/>
<path d="M136.623 90.5496C136.608 90.5496 136.593 90.5486 136.578 90.5469C136.386 90.5231 136.251 90.349 136.274 90.1577L136.503 88.3498C136.527 88.1596 136.698 88.0266 136.894 88.0477C137.086 88.0715 137.222 88.2457 137.198 88.4369L136.97 90.2448C136.948 90.4206 136.797 90.5496 136.623 90.5496Z" fill="#305D8A"/>
<path d="M142.179 91.2368C142.049 91.2368 141.925 91.1658 141.864 91.0429C141.778 90.8705 141.85 90.6615 142.023 90.5762L143.425 89.8876C143.599 89.8022 143.809 89.873 143.894 90.0454C143.98 90.2178 143.909 90.4269 143.735 90.5122L142.334 91.2007C142.284 91.2253 142.231 91.2368 142.179 91.2368Z" fill="#305D8A"/>
<path d="M144.104 92.2287H143.053C142.859 92.2287 142.702 92.0729 142.702 91.8803C142.702 91.6877 142.859 91.5319 143.053 91.5319H144.104C144.298 91.5319 144.454 91.6877 144.454 91.8803C144.454 92.0729 144.298 92.2287 144.104 92.2287Z" fill="#305D8A"/>
<path d="M129.92 94.8996C129.844 94.8996 129.767 94.8752 129.703 94.8246L128.301 93.7216C128.149 93.6021 128.124 93.3829 128.244 93.232C128.364 93.0813 128.583 93.0554 128.736 93.1752L130.138 94.2782C130.289 94.3975 130.315 94.6167 130.195 94.7677C130.126 94.8544 130.023 94.8996 129.92 94.8996Z" fill="#305D8A"/>
<path d="M129.658 92.8377C129.637 92.8377 129.616 92.8358 129.594 92.8322L129.095 92.742C128.905 92.7073 128.779 92.526 128.813 92.3368C128.848 92.1473 129.029 92.0232 129.221 92.0561L129.72 92.1463C129.91 92.1809 130.037 92.3623 130.002 92.5514C129.971 92.72 129.824 92.8377 129.658 92.8377Z" fill="#305D8A"/>
<path d="M132.641 92.7507C132.565 92.7507 132.489 92.7266 132.425 92.6763L131.103 91.6434C130.951 91.5247 130.924 91.3056 131.044 91.1542C131.164 91.0032 131.384 90.9759 131.536 91.0957L132.858 92.1286C133.01 92.2473 133.037 92.4664 132.917 92.6178C132.848 92.7052 132.745 92.7507 132.641 92.7507Z" fill="#305D8A"/>
<path d="M134.488 92.8638C134.37 92.8638 134.255 92.8049 134.189 92.6985L133.647 91.8259C133.546 91.6619 133.597 91.4472 133.762 91.3462C133.927 91.2452 134.142 91.2965 134.244 91.4598L134.786 92.3324C134.887 92.4964 134.836 92.7111 134.671 92.8121C134.614 92.8471 134.55 92.8638 134.488 92.8638Z" fill="#305D8A"/>
<path d="M140.324 97.1007C140.239 97.1007 140.154 97.0705 140.087 97.0092C139.944 96.8789 139.935 96.6589 140.065 96.517L141.083 95.4136C141.214 95.2717 141.436 95.2623 141.578 95.3922C141.721 95.5225 141.73 95.7426 141.6 95.8845L140.582 96.9878C140.513 97.0627 140.419 97.1007 140.324 97.1007Z" fill="#305D8A"/>
<path d="M142.179 97.6661C142.03 97.6661 141.891 97.5708 141.844 97.4215C141.787 97.2381 141.89 97.0425 142.074 96.9853L142.775 96.7675C142.959 96.7091 143.156 96.8122 143.214 96.9962C143.272 97.1795 143.169 97.3751 142.984 97.4323L142.283 97.65C142.249 97.661 142.213 97.6661 142.179 97.6661Z" fill="#305D8A"/>
<path d="M143.185 95.4303C143.012 95.4303 142.862 95.3031 142.838 95.1281C142.812 94.9373 142.947 94.7621 143.139 94.7366L145.189 94.4641C145.383 94.4406 145.557 94.5729 145.583 94.7632C145.608 94.9541 145.473 95.1292 145.282 95.1548L143.232 95.4272C143.216 95.4293 143.201 95.4303 143.185 95.4303Z" fill="#305D8A"/>
<path d="M144.506 97.1007C144.371 97.1007 144.242 97.0221 144.185 96.8905C144.108 96.7139 144.19 96.5088 144.367 96.4326L144.841 96.2291C145.019 96.1529 145.225 96.2346 145.302 96.4108C145.378 96.5872 145.297 96.7925 145.119 96.8687L144.645 97.0722C144.6 97.0917 144.553 97.1007 144.506 97.1007Z" fill="#305D8A"/>
<path d="M129.045 100.937C128.943 100.937 128.843 100.894 128.773 100.81C128.651 100.661 128.673 100.441 128.823 100.319L130.182 99.2159C130.333 99.0941 130.553 99.1162 130.675 99.2653C130.798 99.4142 130.775 99.634 130.625 99.7554L129.267 100.859C129.201 100.912 129.123 100.937 129.045 100.937Z" fill="#305D8A"/>
<path d="M132.501 98.3796C132.482 98.3796 132.461 98.3778 132.442 98.3745L131.083 98.1424C130.892 98.1101 130.764 97.9299 130.796 97.7404C130.829 97.5508 131.01 97.424 131.201 97.4559L132.56 97.6879C132.751 97.7203 132.879 97.9006 132.846 98.09C132.817 98.2599 132.669 98.3796 132.501 98.3796Z" fill="#305D8A"/>
<path d="M131.976 100.702C131.863 100.702 131.751 100.648 131.684 100.546C131.577 100.386 131.621 100.17 131.783 100.063L133.107 99.1925C133.268 99.086 133.485 99.1299 133.592 99.2909C133.699 99.4515 133.655 99.6674 133.494 99.7736L132.169 100.645C132.11 100.684 132.043 100.702 131.976 100.702Z" fill="#305D8A"/>
<path d="M135.293 100.381C135.25 100.381 135.206 100.373 135.164 100.356C134.984 100.285 134.896 100.083 134.967 99.904L135.522 98.5105C135.593 98.3315 135.798 98.2444 135.976 98.3149C136.156 98.3857 136.244 98.5881 136.173 98.767L135.618 100.161C135.564 100.297 135.432 100.381 135.293 100.381Z" fill="#305D8A"/>
<path d="M137.462 100.937C137.33 100.937 137.202 100.862 137.143 100.734L136.835 100.066C136.755 99.8917 136.832 99.6848 137.008 99.6045C137.187 99.5248 137.393 99.6015 137.473 99.776L137.781 100.444C137.861 100.619 137.784 100.826 137.608 100.906C137.561 100.927 137.511 100.937 137.462 100.937Z" fill="#305D8A"/>
<path d="M133.77 95.7C133.736 95.7 133.701 95.6952 133.667 95.6847L131.876 95.1396C131.691 95.0834 131.586 94.8885 131.643 94.7045C131.7 94.5205 131.895 94.4161 132.081 94.4735L133.872 95.0185C134.057 95.0747 134.162 95.2696 134.105 95.4537C134.059 95.6037 133.92 95.7 133.77 95.7Z" fill="#305D8A"/>
<path d="M138.154 97.5618C138.107 97.5618 138.059 97.5523 138.013 97.5326C137.836 97.455 137.756 97.2495 137.833 97.0733L138.125 96.4125C138.203 96.2364 138.409 96.1571 138.587 96.2336C138.764 96.3112 138.845 96.5167 138.767 96.6928L138.475 97.3536C138.417 97.4842 138.289 97.5618 138.154 97.5618Z" fill="#305D8A"/>
<path d="M141.417 99.9194C141.394 99.9194 141.369 99.9172 141.345 99.912L140.235 99.6797C140.046 99.6398 139.925 99.4551 139.965 99.2669C140.005 99.0789 140.192 98.9577 140.38 98.9979L141.489 99.2302C141.679 99.2701 141.8 99.4548 141.76 99.6429C141.725 99.8069 141.58 99.9194 141.417 99.9194Z" fill="#305D8A"/>
<path d="M147.263 106.505H126.591C126.397 106.505 126.24 106.35 126.24 106.157C126.24 105.964 126.397 105.809 126.591 105.809H147.263C147.456 105.809 147.613 105.964 147.613 106.157C147.613 106.35 147.456 106.505 147.263 106.505Z" fill="#305D8A"/>
<path d="M54.9957 111.473C54.9957 108.837 52.8541 106.7 50.2071 106.684V106.044C50.2071 104.953 49.3175 104.069 48.2205 104.069H40.281C39.184 104.069 38.2944 104.953 38.2944 106.044V116.726C38.2944 117.817 39.184 118.701 40.281 118.701H48.2205C49.3175 118.701 50.2071 117.817 50.2071 116.726V116.263C52.8542 116.246 54.9957 114.109 54.9957 111.473V111.473ZM50.2072 114.172V108.774C51.6936 108.79 52.8936 109.991 52.8936 111.473C52.8936 112.955 51.6936 114.156 50.2072 114.172Z" fill="#EAE8E1"/>
<path d="M48.2203 119.051H40.2808C38.9922 119.051 37.9438 118.009 37.9438 116.727V106.046C37.9438 104.764 38.9923 103.722 40.2808 103.722H48.2203C49.5089 103.722 50.5572 104.764 50.5572 106.046V106.35C53.2278 106.546 55.3458 108.775 55.3458 111.475C55.3458 114.174 53.2278 116.403 50.5572 116.599V116.727C50.5572 118.009 49.5089 119.051 48.2203 119.051ZM40.2808 104.419C39.3785 104.419 38.6445 105.149 38.6445 106.046V116.728C38.6445 117.624 39.3785 118.354 40.2808 118.354H48.2203C49.1227 118.354 49.8565 117.624 49.8565 116.728V116.264C49.8565 116.073 50.0122 115.917 50.2048 115.916C52.6529 115.901 54.6451 113.909 54.6451 111.475C54.6451 109.041 52.6529 107.049 50.2048 107.034C50.0121 107.032 49.8565 106.877 49.8565 106.685V106.046C49.8565 105.149 49.1226 104.419 48.2203 104.419H40.2808ZM50.2068 114.522C50.1144 114.522 50.0262 114.486 49.9605 114.422C49.8938 114.356 49.8565 114.267 49.8565 114.174V108.776C49.8565 108.682 49.8938 108.593 49.9605 108.528C50.0272 108.462 50.1213 108.421 50.2106 108.427C51.883 108.445 53.2435 109.812 53.2435 111.475C53.2435 113.137 51.883 114.504 50.2106 114.522C50.2092 114.522 50.2082 114.522 50.2068 114.522ZM50.5571 109.154V113.795C51.6798 113.613 52.5427 112.638 52.5427 111.475C52.5427 110.312 51.6798 109.337 50.5571 109.154Z" fill="#305D8A"/>
<g opacity="0.2">
<path opacity="0.2" d="M50.2075 106.688V106.048C50.2075 104.958 49.3179 104.074 48.2209 104.074H45.6526V118.705H48.2209C49.3179 118.705 50.2075 117.821 50.2075 116.73V116.267C52.8544 116.251 54.9961 114.114 54.9961 111.478C54.9961 108.842 52.8544 106.704 50.2075 106.688V106.688ZM50.2075 114.177V108.778C51.6938 108.794 52.8938 109.996 52.8938 111.477C52.8938 112.959 51.6938 114.161 50.2075 114.177Z" fill="#9DB6C9"/>
</g>
<path d="M48.105 105.809H40.3967C40.2031 105.809 40.0464 105.654 40.0464 105.461C40.0464 105.268 40.2031 105.113 40.3967 105.113H48.105C48.2986 105.113 48.4554 105.268 48.4554 105.461C48.4554 105.654 48.2986 105.809 48.105 105.809Z" fill="#305D8A"/>
</svg>
