<svg width="112" height="29" viewBox="0 0 112 29" fill="none" xmlns="http://www.w3.org/2000/svg">
<g clip-path="url(#clip0)">
<path d="M17.0121 18.582C14.9219 20.6561 12.7832 21.6932 10.5962 21.6932C9.96124 21.6932 9.35044 21.6133 8.76402 21.454C8.17736 21.2951 7.46311 21.0262 6.62104 20.6475C5.77873 20.2689 5.03567 19.9937 4.39211 19.8219C3.20129 21.0957 2.12537 21.7326 1.16422 21.7326C0.828893 21.7326 0.550953 21.6256 0.330769 21.4105C0.110338 21.1941 0 20.9321 0 20.6221C0 19.9684 0.328429 19.3934 0.985534 18.8989C1.64239 18.4038 2.57066 18.0617 3.7701 17.8727C4.27278 17.2009 4.59456 16.5448 4.73581 15.9036C4.87681 15.2631 4.98702 14.2068 5.06658 12.7347C5.21644 9.70613 6.04755 7.33293 7.56027 5.61596C9.0725 3.89923 10.7153 3.04075 12.4878 3.04075C13.7049 3.04075 14.7036 3.41736 15.484 4.17033C16.2647 4.92343 16.6548 5.88514 16.6548 7.05558C16.6548 8.40651 16.2447 9.58993 15.4246 10.6054C14.6044 11.6208 13.6607 12.1285 12.5937 12.1285C12.0381 12.1285 11.6015 11.9795 11.2841 11.6827C10.9666 11.3858 10.8079 10.9785 10.8079 10.463C10.8079 10.1962 10.8608 9.88614 10.9667 9.53285C11.2048 9.79962 11.5044 9.93301 11.8662 9.93301C12.4647 9.93301 12.9905 9.58452 13.44 8.88755C13.8895 8.19057 14.1148 7.3602 14.1148 6.39525C14.1148 5.65502 13.9424 5.0722 13.5988 4.6456C13.2553 4.219 12.7836 4.0063 12.1851 4.0063C11.4623 4.0063 10.9007 4.25986 10.4993 4.76817C10.0978 5.27648 9.81827 5.88237 9.65941 6.58872C9.50056 7.29411 9.33185 8.43451 9.15205 10.0099C8.97226 11.5841 8.67302 12.9805 8.25309 14.198C7.83193 15.4153 7.0475 16.6092 5.89732 17.779C6.64727 17.7274 7.29748 17.7706 7.84794 17.9088C8.3984 18.0462 9.18777 18.3066 10.216 18.6893C11.2431 19.0727 12.1272 19.2637 12.8674 19.2637C14.3131 19.2637 15.6935 18.5415 17.0075 17.0959V18.58L17.0121 18.582ZM26.8938 18.582C25.7736 19.6579 24.7683 20.4518 23.8777 20.9635C22.9868 21.4754 22.0034 21.7326 20.9277 21.7326C19.7283 21.7326 18.7604 21.3589 18.024 20.6102C17.2875 19.8616 16.9193 18.8762 16.9193 17.6541C16.9193 15.8299 17.5677 14.18 18.864 12.7043C20.1604 11.2287 21.5979 10.4908 23.1766 10.4908C23.9968 10.4908 24.6536 10.6975 25.1477 11.1109C25.6415 11.5243 25.889 12.0662 25.889 12.738C25.889 14.5201 23.9495 15.9657 20.0692 17.0761C20.4226 18.7548 21.3437 19.5936 22.8338 19.5936C23.4162 19.5936 23.9716 19.441 24.5012 19.1357C25.0307 18.8305 25.8287 18.1528 26.8963 17.1025V18.5878L26.8938 18.582ZM19.9619 16.1939C22.2195 15.5743 23.3484 14.4298 23.3484 12.7601C23.3484 11.9339 23.0397 11.5208 22.4223 11.5208C21.8404 11.5208 21.2848 11.9534 20.7557 12.8181C20.2265 13.683 19.962 14.8084 19.962 16.1939H19.9619ZM41.0219 18.582C39.6106 19.8903 38.6011 20.7423 37.9925 21.138C37.3839 21.5337 36.8019 21.7316 36.2463 21.7316C34.8528 21.7316 34.1959 20.5311 34.2752 18.1302C33.3935 19.3609 32.5807 20.2688 31.8357 20.8539C31.0907 21.4379 30.321 21.7311 29.528 21.7311C28.7521 21.7311 28.0933 21.3754 27.5502 20.6652C27.0084 19.9551 26.7375 19.0838 26.7375 18.0516C26.7375 16.7598 27.102 15.5293 27.8298 14.3588C28.5576 13.1884 29.4898 12.2414 30.6276 11.518C31.7655 10.7946 32.7704 10.4329 33.6435 10.4329C34.7456 10.4329 35.5178 10.928 35.9586 11.917L38.6629 10.4581H39.4055L38.2393 14.241C37.6383 16.1433 37.3378 17.4471 37.3378 18.1525C37.3378 18.8916 37.6063 19.2617 38.1445 19.2617C38.488 19.2617 38.8673 19.0826 39.2811 18.7257C39.6949 18.3688 40.2773 17.8245 41.0261 17.0926V18.5779L41.0219 18.582ZM31.3386 19.292C32.2203 19.292 33.0515 18.5589 33.8323 17.0917C34.6126 15.6244 35.0029 14.2713 35.0029 13.0324C35.0029 12.5505 34.8925 12.1744 34.6721 11.9028C34.4517 11.6324 34.1561 11.4966 33.7858 11.4966C32.9039 11.4966 32.0682 12.2285 31.2791 13.6921C30.4897 15.1558 30.0957 16.5029 30.0957 17.7334C30.0957 18.1984 30.2126 18.5746 30.4466 18.863C30.6806 19.1514 30.9774 19.2956 31.3394 19.2956L31.3386 19.292ZM51.7502 18.583C50.834 19.59 49.9266 20.3663 49.0282 20.913C48.1297 21.4598 47.328 21.7326 46.6231 21.7326C46.2884 21.7326 45.8305 21.6088 45.2492 21.3601C44.8773 23.2527 44.5495 25.2968 44.2661 27.4899C43.348 27.6112 42.2445 27.7963 40.9557 28.0462C41.2377 25.6885 41.7274 22.629 42.4239 18.869C42.3266 18.7055 42.1547 18.2934 41.9079 17.63L41.0219 18.5854H40.7177V17.4233L43.2395 14.8722C43.7188 12.5637 44.1084 10.8922 44.4084 9.85995C44.7081 8.8277 45.127 7.6849 45.6651 6.43274C46.2029 5.18059 46.5425 4.46198 46.6835 4.27692C46.8246 4.09186 47.1665 3.91522 47.7088 3.74818C48.2511 3.58115 48.8309 3.42133 49.4484 3.27111C50.0656 3.1209 50.3962 3.0452 50.4405 3.0452C50.7767 3.0452 51.0501 3.2579 51.2607 3.68449C51.4725 4.10989 51.5784 4.67108 51.5784 5.36769C51.5784 6.57178 51.2533 7.73225 50.6019 8.84981C49.9504 9.96738 48.719 11.3421 46.9075 12.9757L45.7955 18.3712C46.2265 19.2737 46.8742 19.7252 47.7363 19.7252C48.9689 19.7252 50.3075 18.8515 51.7508 17.1043V18.5892L51.7502 18.583ZM47.3076 11.2249C48.3386 10.3471 49.147 9.40271 49.7333 8.39137C50.3195 7.38015 50.6126 6.44849 50.6126 5.59625C50.6126 5.23491 50.5443 4.93797 50.4081 4.7058C50.2718 4.47328 50.1027 4.35732 49.9005 4.35732C49.5136 4.35732 49.12 4.85241 48.7201 5.8426C48.3198 6.83279 47.8491 8.6269 47.3076 11.2249ZM60.4943 18.5829C59.2948 19.6584 58.2432 20.4527 57.3393 20.9641C56.4351 21.476 55.5734 21.7326 54.7532 21.7326C53.8093 21.7326 53.0486 21.3757 52.4713 20.6619C51.8935 19.9481 51.6048 18.9879 51.6048 17.7839C51.6048 15.9765 52.006 13.8087 52.8085 11.2779C53.6109 8.74839 54.5855 6.41592 55.732 4.28173L59.092 3.06803C59.1979 3.03438 59.2772 3.01636 59.3302 3.01636C59.5851 3.01636 59.7944 3.20022 59.9582 3.56553C60.1208 3.93204 60.202 4.42473 60.202 5.0436C60.202 6.79926 59.787 8.49964 58.9583 10.1435C58.1295 11.7874 56.8328 13.5431 55.0693 15.4105C54.9979 16.3058 54.9634 16.921 54.9634 17.2563C54.9634 18.005 55.1038 18.5986 55.387 19.0384C55.669 19.477 56.0434 19.6969 56.5114 19.6969C56.9879 19.6969 57.4941 19.5287 58.0322 19.1934C58.5691 18.8582 59.3893 18.1612 60.4927 17.1025V18.5873L60.4943 18.5829ZM55.4278 13.5346C56.5476 12.3197 57.456 10.9579 58.1528 9.44957C58.8493 7.94146 59.1978 6.6446 59.1978 5.55852C59.1978 5.23971 59.1491 4.98339 59.0522 4.78944C58.9549 4.59549 58.8318 4.49863 58.6818 4.49863C58.3555 4.49863 57.8814 5.29139 57.2597 6.87713C56.6381 8.46215 56.0273 10.6817 55.4277 13.5345L55.4278 13.5346ZM70.3891 18.582C69.269 19.6579 68.2636 20.4518 67.373 20.9635C66.4827 21.4754 65.5 21.7326 64.4237 21.7326C63.2243 21.7326 62.2564 21.3589 61.5199 20.6102C60.7835 19.8616 60.4153 18.8762 60.4153 17.6541C60.4153 15.8299 61.0643 14.18 62.3598 12.7043C63.6565 11.2287 65.0936 10.4908 66.6723 10.4908C67.4925 10.4908 68.1501 10.6975 68.6439 11.1109C69.1377 11.5243 69.3852 12.0662 69.3852 12.738C69.3852 14.5201 67.4457 15.9657 63.5654 17.0761C63.9188 18.7548 64.8399 19.5936 66.33 19.5936C66.9125 19.5936 67.4679 19.441 67.9974 19.1357C68.5269 18.8305 69.3249 18.1528 70.3926 17.1025V18.5878L70.3891 18.582ZM63.4573 16.1939C65.7149 15.5743 66.8438 14.4298 66.8438 12.7601C66.8438 11.9339 66.535 11.5208 65.9177 11.5208C65.3357 11.5208 64.7802 11.9534 64.2511 12.8181C63.7215 13.683 63.4568 14.8084 63.4568 16.1939H63.4573ZM78.0088 18.582C76.8976 19.6579 75.9362 20.4518 75.1249 20.9635C74.3134 21.4754 73.5419 21.7326 72.8098 21.7326C72.0512 21.7326 71.4362 21.4214 70.9646 20.7965C70.4927 20.1728 70.2569 19.3533 70.2569 18.3378C70.2569 17.4438 70.4822 16.2613 70.9354 14.7929L71.4969 12.8389L70.481 12.8906L70.9046 10.8646L72.1619 10.8129L73.4032 6.78484L76.9363 6.07705L75.5694 10.5665L77.4375 10.4632L77.0003 12.452L74.9475 12.607L74.0658 15.4995C73.7591 16.5053 73.6064 17.3044 73.6064 17.8992C73.6064 18.3042 73.7099 18.6334 73.9168 18.8882C74.1239 19.143 74.3909 19.2691 74.7184 19.2691C75.1683 19.2691 75.6149 19.1297 76.0558 18.8497C76.4979 18.571 77.1469 17.9869 78.004 17.1013V18.5854L78.0088 18.582Z" fill="#B5BAC4"/>
<path d="M83.0393 11.1029C83.3144 11.4163 88.7159 13.172 90.5939 15.3052C92.4718 17.4387 93.2916 19.3426 93.0265 21.1733C92.7617 23.0039 91.614 22.9736 91.1128 23.6403C90.6116 24.3069 89.9195 25.129 88.5896 25.0415C86.8483 24.9276 85.0528 24.0785 83.7561 21.1312C82.4594 18.1838 82.5591 15.4151 82.6626 13.879C82.766 12.3433 83.0369 11.1029 83.0369 11.1029H83.0393Z" fill="url(#paint0_linear)"/>
<path d="M82.7149 12.0892L90.8043 23.857L90.4314 24.2631" fill="url(#paint1_linear)"/>
<path fill-rule="evenodd" clip-rule="evenodd" d="M51.7115 28.4454L51.7876 27.9242C53.9451 26.8024 56.6327 26.37 58.8199 25.2871C59.476 25.5755 59.7677 25.1597 60.4675 25.1982C60.7215 25.4217 60.1481 25.7209 60.8338 25.6753C62.3916 25.8772 63.9087 25.5936 65.4407 25.4662C67.0563 25.3316 68.6609 25.4818 70.2458 25.3905C70.7519 25.3616 71.5314 24.6779 72.1521 25.0179C72.4329 25.5142 71.2359 25.5575 71.5573 26.1055C74.7295 26.8337 82.6638 29.9124 84.0209 26.5633C84.0393 26.7676 83.7832 27.1714 84.1575 27.1149C86.8323 25.9468 91.3776 23.4245 92.178 22.7636C93.0573 22.0378 94.2296 22.0606 95.3798 21.8022C97.4511 21.3372 99.6616 20.8637 101.455 19.8447C102.563 20.5957 104.883 20.9695 106.123 20.7075C107.417 20.4335 109.426 18.3366 110.501 17.5951C110.923 17.3043 111.541 16.7383 111.996 17.0592C111.69 17.2635 112.05 17.8619 111.676 17.7586C111.48 17.3933 111.089 17.815 110.805 17.7442C109.723 18.6106 108.598 19.4217 107.495 20.2605C106.98 20.5693 107.991 20.889 107.388 20.9899C104.538 21.5427 100.198 20.1583 98.402 22.0798C95.5555 23.0304 92.8629 23.2719 90.0577 24.7476C88.4457 25.596 86.4732 27.1389 84.7952 27.9501C84.5107 28.0883 84.0941 28.1363 83.7579 28.3382C83.3491 28.5833 83.2486 28.891 82.9037 28.9636C82.0441 29.1442 80.2684 28.7064 79.1502 28.5478C75.4214 28.019 71.4401 26.5354 67.9213 26.3475C66.5298 26.273 64.887 26.4881 63.3142 26.5571C59.9708 26.7044 57.8798 26.7818 55.1989 27.6614C54.1029 28.0216 52.417 28.9749 51.706 28.4521L51.7115 28.4454Z" fill="#B5BAC4"/>
<path d="M103.376 0C103 0.594113 94.4354 4.90371 91.8647 8.94918C89.2943 12.9946 88.561 16.18 89.493 19.1743C90.4247 22.1682 92.2059 22.0334 93.2212 23.0207C94.2367 24.0084 95.6142 25.2069 97.8145 24.723C100.696 24.0891 103.472 22.2126 104.853 16.9541C106.234 11.6953 105.328 7.0903 104.745 4.54765C104.161 2.00525 103.376 0 103.376 0H103.376Z" fill="url(#paint2_linear)"/>
<path d="M103.23 0.888062L92.8442 22.6257L93.4538 23.2229" fill="url(#paint3_linear)"/>
</g>
<defs>
<linearGradient id="paint0_linear" x1="82.9079" y1="18.5742" x2="94.3189" y2="20.552" gradientUnits="userSpaceOnUse">
<stop stop-color="#B5BAC4"/>
<stop offset="1" stop-color="#74B844"/>
</linearGradient>
<linearGradient id="paint1_linear" x1="82.1617" y1="17.3509" x2="92.0082" y2="19.0576" gradientUnits="userSpaceOnUse">
<stop stop-color="#B5BAC4"/>
<stop offset="1" stop-color="#4A9634"/>
</linearGradient>
<linearGradient id="paint2_linear" x1="-15.3824" y1="-345.804" x2="-33.7061" y2="-339.507" gradientUnits="userSpaceOnUse">
<stop stop-color="#C1EA71"/>
<stop offset="1" stop-color="#ACDA55"/>
</linearGradient>
<linearGradient id="paint3_linear" x1="-15.4703" y1="-344.689" x2="-31.4368" y2="-339.202" gradientUnits="userSpaceOnUse">
<stop stop-color="#ACDA55"/>
<stop offset="1" stop-color="#89C442"/>
</linearGradient>
<clipPath id="clip0">
<rect width="112" height="29" fill="white"/>
</clipPath>
</defs>
</svg>
