<svg width="69" height="20" viewBox="0 0 69 20" fill="none" xmlns="http://www.w3.org/2000/svg">
<path d="M14.8117 4.90032C13.5052 3.5793 12.1096 4.43431 11.2362 5.31743L2.98546 13.6602C2.11206 14.5432 1.19789 15.8849 2.57295 17.2751C3.948 18.6657 5.27496 17.7412 6.14818 16.8581L14.3991 8.51553C15.2725 7.63232 16.1181 6.22116 14.8117 4.90032Z" fill="#FC5656"/>
<path d="M6.92903 4.55865L8.67611 6.32508L10.4544 4.52698C10.5751 4.40462 10.6977 4.29107 10.821 4.18398C10.6348 3.23397 10.0987 2.37512 8.67528 2.37512C7.24914 2.37512 6.7137 3.23735 6.52846 4.18941C6.66163 4.30587 6.79448 4.42261 6.92903 4.55865Z" fill="#FC5656"/>
<path d="M10.4534 17.6801L8.6762 15.8831L6.93004 17.6485C6.79747 17.7826 6.66549 17.9051 6.53412 18.0203C6.73435 18.9887 7.30103 19.8758 8.67546 19.8758C10.0535 19.8758 10.6194 18.984 10.8184 18.0124C10.6961 17.9061 10.5738 17.8018 10.4534 17.6801Z" fill="#FC5656"/>
<path d="M6.18801 8.84088H2.81988C1.58493 8.84088 0 9.23428 0 11.1023C0 12.4961 0.882298 13.0684 1.84335 13.2695C1.95714 13.1366 6.18801 8.84088 6.18801 8.84088Z" fill="#FC5656"/>
<path d="M15.5143 8.93158C15.4077 9.05693 11.168 13.3636 11.168 13.3636H14.4883C15.7234 13.3636 17.3082 13.0685 17.3082 11.1023C17.3082 9.66051 16.4557 9.11879 15.5143 8.93158Z" fill="#FC5656"/>
<path d="M7.2916 7.72297L7.89332 7.11455L6.14735 5.34893C5.27385 4.46588 3.94708 3.54145 2.57202 4.93181C1.56371 5.95134 1.78767 6.94358 2.32249 7.74911C2.48538 7.73697 7.2916 7.72297 7.2916 7.72297Z" fill="#FC5656"/>
<path d="M10.0601 14.4814L9.45677 15.0915L11.2352 16.8896C12.1086 17.7728 13.5043 18.6276 14.8106 17.3067C15.7854 16.3211 15.5617 15.2858 15.0228 14.4565C14.8493 14.4691 10.0601 14.4814 10.0601 14.4814Z" fill="#FC5656"/>
<path d="M51.9455 5.30396C51.6474 5.30396 51.1253 5.37935 50.5531 5.63075C49.8074 5.95754 49.41 6.20889 49.2108 6.53558C48.4651 5.65596 47.4955 5.37935 46.4016 5.37935C43.1946 5.37935 40.9074 8.1193 40.9074 12.0155C40.9074 15.2834 42.6477 17.6965 45.1089 17.6965C45.8546 17.6965 46.5258 17.3947 47.3216 16.6408C47.943 16.0626 48.2416 15.6857 48.2416 15.3337C48.2416 15.0822 48.0672 14.9062 47.8188 14.9062C47.4706 14.9062 47.0976 15.2078 46.6251 15.2078C45.606 15.2078 44.9098 13.6241 44.9098 11.2864C44.9098 8.94875 45.8297 7.36512 47.2218 7.36512C48.1418 7.36512 48.8377 8.06879 48.8377 9.27554V16.6156C48.8377 17.4199 49.5834 17.6461 50.951 17.6461C52.2937 17.6461 52.8154 17.3947 52.8154 16.6156V6.10847C52.8158 5.60554 52.4924 5.30396 51.9455 5.30396Z" fill="#FC5656"/>
<path d="M36.6068 5.30396C35.6372 5.30396 34.6179 5.65591 33.7228 6.35972C33.2257 6.76196 32.803 7.21437 32.803 7.59144C32.803 7.91814 33.0266 8.09409 33.3499 8.09409C33.897 8.09409 34.071 7.86796 34.593 7.86796C35.1151 7.86796 35.3637 8.37065 35.3637 9.25051V16.6158C35.3637 17.42 36.1096 17.6463 37.4767 17.6463C38.8193 17.6463 39.3413 17.3949 39.3413 16.6158V8.54661C39.3413 6.63609 38.2226 5.30396 36.6068 5.30396Z" fill="#FC5656"/>
<path d="M29.6209 5.30396C28.6016 5.30396 27.6817 5.65591 26.7868 6.35972C26.2896 6.76196 25.867 7.21437 25.867 7.59144C25.867 7.91814 26.0906 8.09409 26.4139 8.09409C26.9607 8.09409 27.1349 7.86796 27.6073 7.86796C28.0797 7.86796 28.3283 8.37065 28.3283 9.25051V16.6158C28.3283 17.42 29.074 17.6463 30.4413 17.6463C31.7839 17.6463 32.3058 17.3949 32.3058 16.6158V8.54661C32.3058 6.63609 31.187 5.30396 29.6209 5.30396Z" fill="#FC5656"/>
<path d="M24.4001 5.30396C24.0272 5.30396 23.5798 5.37935 23.0078 5.63075C21.7648 6.18377 21.2925 6.53558 21.2925 7.31489V16.6157C21.2925 17.42 22.0382 17.6462 23.4056 17.6462C24.7481 17.6462 25.2701 17.3948 25.2701 16.6157V6.10847C25.2702 5.60554 24.9471 5.30396 24.4001 5.30396Z" fill="#FC5656"/>
<path d="M68.1301 14.2526C67.1356 14.504 66.8371 14.5794 66.4889 14.5794C66.0666 14.5794 65.9171 14.4537 65.9171 14.0013V7.71702H68.1798C68.7764 7.71702 69 7.49083 69 6.88758C69 6.38483 68.7764 6.13325 68.1798 6.13325H65.9171V3.69501C65.9171 2.94081 65.6687 2.63922 65.1466 2.63922C64.6493 2.63922 63.9533 3.09174 62.4616 4.37378C60.9454 5.68092 60.0751 6.53557 60.0751 7.13883C60.0751 7.49083 60.3239 7.71702 60.7214 7.71702H61.9395V14.504C61.9395 16.4899 62.9091 17.6462 64.5996 17.6462C65.7184 17.6462 66.539 17.2188 67.5087 16.4648C68.4034 15.7609 68.9752 15.2078 68.9752 14.7304C68.9752 14.3282 68.6771 14.1018 68.1301 14.2526Z" fill="#FC5656"/>
<path d="M58.0617 0C57.8625 0 57.241 0.07542 56.6692 0.326788C55.4259 0.854633 54.9539 1.23164 54.9539 2.01095V16.6156C54.9539 17.4201 55.6996 17.6463 57.0671 17.6463C58.4094 17.6463 58.9315 17.3949 58.9315 16.6156V0.804419C58.9315 0.301586 58.6081 0 58.0617 0Z" fill="#FC5656"/>
</svg>
