<svg width="69" height="55" viewBox="0 0 69 55" fill="none" xmlns="http://www.w3.org/2000/svg">
<path d="M34.1011 48.5547C33.8747 48.5547 33.6483 48.4903 33.4434 48.3828L31.3734 47.1582C31.0608 46.9864 31.2117 46.9219 31.3195 46.8897C31.7292 46.75 31.8155 46.7178 32.2575 46.46C32.3006 46.4385 32.3653 46.4492 32.4084 46.4707L34.0041 47.416C34.058 47.4483 34.1442 47.4483 34.1981 47.416L40.4297 43.8282C40.4836 43.7959 40.5267 43.7315 40.5267 43.6563V36.4912C40.5267 36.416 40.4944 36.3516 40.4297 36.3194L34.1981 32.7422C34.1442 32.71 34.0687 32.71 34.0041 32.7422L27.7725 36.3194C27.7078 36.3516 27.6755 36.4268 27.6755 36.4912V43.6563C27.6755 43.7207 27.7186 43.7852 27.7725 43.8174L29.4759 44.7949C30.4031 45.2569 30.9745 44.709 30.9745 44.1719V37.0928C30.9745 36.9961 31.05 36.9102 31.1578 36.9102H31.9448C32.0419 36.9102 32.1281 36.9854 32.1281 37.0928V44.1719C32.1281 45.4073 31.4597 46.1055 30.2845 46.1055C29.9287 46.1055 29.6377 46.1055 28.8506 45.7188L27.2119 44.7842C26.813 44.5479 26.5542 44.1182 26.5542 43.6563V36.4912C26.5542 36.0293 26.8022 35.5889 27.2119 35.3633L33.4434 31.7754C33.8423 31.5498 34.3598 31.5498 34.748 31.7754L40.9795 35.3633C41.3784 35.5996 41.6372 36.0293 41.6372 36.4912V43.6563C41.6372 44.1182 41.3892 44.5586 40.9795 44.7842L34.748 48.3721C34.5647 48.4903 34.3383 48.5547 34.1011 48.5547ZM39.1359 41.4864C39.1359 40.1436 38.2303 39.7891 36.3112 39.5313C34.3706 39.2735 34.1766 39.1446 34.1766 38.6934C34.1766 38.3174 34.3383 37.8233 35.7722 37.8233C37.0552 37.8233 37.5295 38.1026 37.7236 38.9619C37.7452 39.0479 37.8098 39.1016 37.8961 39.1016H38.7047C38.7586 39.1016 38.8017 39.0801 38.8341 39.0479C38.8664 39.0049 38.888 38.9619 38.8772 38.9082C38.7478 37.4258 37.7667 36.7383 35.7722 36.7383C33.9933 36.7383 32.9367 37.4903 32.9367 38.7364C32.9367 40.1006 33.9933 40.4658 35.6967 40.6377C37.7344 40.8418 37.8961 41.1319 37.8961 41.5293C37.8961 42.2276 37.3355 42.5176 36.0202 42.5176C34.3706 42.5176 34.0041 42.1094 33.8855 41.293C33.8747 41.2071 33.7992 41.1426 33.7022 41.1426H32.8936C32.7966 41.1426 32.7103 41.2178 32.7103 41.3252C32.7103 42.3672 33.2817 43.6133 36.0094 43.6133C38.0039 43.6133 39.1359 42.8399 39.1359 41.4864ZM45.0117 36.1045C45.0117 36.7598 44.4727 37.2969 43.815 37.2969C43.1573 37.2969 42.6183 36.7598 42.6183 36.1045C42.6183 35.4278 43.1789 34.9121 43.815 34.9121C44.4619 34.9014 45.0117 35.4278 45.0117 36.1045ZM44.8177 36.1045C44.8177 35.5459 44.3648 35.1055 43.8042 35.1055C43.2544 35.1055 42.8016 35.5459 42.8016 36.1045C42.8016 36.6631 43.2544 37.1143 43.8042 37.1143C44.3648 37.1035 44.8177 36.6524 44.8177 36.1045ZM44.3325 36.7705H44.0522C44.0414 36.7061 43.9983 36.3623 43.9983 36.3516C43.9767 36.2764 43.9552 36.2334 43.8581 36.2334H43.6209V36.7705H43.3622V35.4278H43.8258C43.9875 35.4278 44.3002 35.4278 44.3002 35.7823C44.3002 36.0293 44.1384 36.083 44.0414 36.1153C44.2247 36.126 44.2355 36.2442 44.2678 36.416C44.2786 36.5235 44.3002 36.7061 44.3325 36.7705ZM44.0306 35.8252C44.0306 35.6426 43.9012 35.6426 43.8366 35.6426H43.6209V36.0186H43.8258C43.9983 36.0186 44.0306 35.9004 44.0306 35.8252ZM14.8027 20.5176C14.8027 20.2276 14.6517 19.9698 14.4038 19.8301L7.79484 16.0381C7.68703 15.9737 7.55766 15.9414 7.42828 15.9307H7.36359C7.23422 15.9307 7.11563 15.9737 6.99703 16.0381L0.398906 19.8301C0.150938 19.9698 0 20.2383 0 20.5176L0.0107812 30.7227C0.0107812 30.8623 0.08625 30.9912 0.204844 31.0664C0.323438 31.1416 0.474375 31.1416 0.60375 31.0664L4.52812 28.8213C4.77609 28.6709 4.92703 28.4131 4.92703 28.1338V23.3643C4.92703 23.085 5.07797 22.8164 5.32594 22.6768L6.99703 21.7207C7.12641 21.6455 7.25578 21.6133 7.39594 21.6133C7.53609 21.6133 7.67625 21.6455 7.79484 21.7207L9.46594 22.6768C9.71391 22.8164 9.86484 23.085 9.86484 23.3643V28.1338C9.86484 28.4131 10.0158 28.6817 10.2638 28.8213L14.1881 31.0664C14.3067 31.1416 14.4684 31.1416 14.587 31.0664C14.7056 31.002 14.7811 30.8623 14.7811 30.7227L14.8027 20.5176ZM50.9414 9.37796V28.3272C50.9414 28.6065 50.7905 28.875 50.5425 29.0147L43.9336 32.8174C43.6856 32.9571 43.3837 32.9571 43.1358 32.8174L36.5269 29.0147C36.2789 28.875 36.128 28.6065 36.128 28.3272V20.7217C36.128 20.4424 36.2789 20.1739 36.5269 20.0342L43.1358 16.2315C43.3837 16.0918 43.6856 16.0918 43.9336 16.2315L45.5831 17.1768C45.7664 17.2842 46.0036 17.1446 46.0036 16.9405V6.8428C46.0036 6.54202 46.327 6.34866 46.5966 6.49905L50.5317 8.69046C50.7797 8.81936 50.9414 9.08792 50.9414 9.37796ZM45.982 23.2246C45.982 23.1494 45.9389 23.085 45.885 23.0528L43.6209 21.7422C43.5563 21.71 43.4808 21.71 43.4161 21.7422L41.152 23.0528C41.0873 23.085 41.055 23.1494 41.055 23.2246V25.835C41.055 25.9102 41.0981 25.9746 41.152 26.0069L43.4161 27.3067C43.4808 27.3389 43.5562 27.3389 43.6102 27.3067L45.8742 26.0069C45.9389 25.9746 45.9712 25.9102 45.9712 25.835V23.2246H45.982ZM68.6011 23.1494C68.8491 23.0098 69 22.7412 69 22.4619V20.625C69 20.3457 68.8491 20.0772 68.6011 19.9375L62.0353 16.1348C61.7873 15.9951 61.4855 15.9951 61.2375 16.1348L54.6286 19.9375C54.3806 20.0772 54.2297 20.3457 54.2297 20.625V28.2305C54.2297 28.5205 54.3806 28.7783 54.6286 28.918L61.1944 32.6455C61.4316 32.7852 61.7334 32.7852 61.9814 32.6455L65.9489 30.4434C66.2184 30.293 66.2184 29.9063 65.9489 29.7559L59.2969 25.9532C59.1675 25.878 59.092 25.749 59.092 25.6094V23.2246C59.092 23.085 59.1675 22.9561 59.2969 22.8809L61.3669 21.6885C61.4855 21.6133 61.6472 21.6133 61.7658 21.6885L63.8358 22.8809C63.9544 22.9561 64.0406 23.085 64.0406 23.2246V25.0938C64.0406 25.3946 64.3748 25.5879 64.6444 25.4375L68.6011 23.1494ZM60.2672 23.5254C60.2241 23.5576 60.1917 23.6006 60.1917 23.6543V25.1153C60.1917 25.169 60.2241 25.2227 60.2672 25.2442L61.5394 25.9746C61.5825 26.0069 61.6472 26.0069 61.6903 25.9746L62.9625 25.2442C63.0056 25.2119 63.038 25.169 63.038 25.1153V23.6543C63.038 23.6006 63.0056 23.5469 62.9625 23.5254L61.6903 22.7949C61.6472 22.7627 61.5825 22.7627 61.5394 22.7949L60.2672 23.5254ZM32.8612 28.1983V20.6358C32.8612 20.3565 32.6888 20.0879 32.4408 19.9483L25.8534 16.167C25.627 16.0381 25.3144 16.0166 25.0556 16.167L18.4683 19.9483C18.2203 20.0879 18.0478 20.3457 18.0478 20.6358V28.1983C18.0478 28.4991 18.2527 28.7569 18.4791 28.8858L25.0772 32.667C25.3359 32.8174 25.6378 32.8067 25.875 32.667L32.4516 28.8858C32.6456 28.7783 32.7858 28.5957 32.8397 28.3809C32.8505 28.3272 32.8612 28.2627 32.8612 28.1983ZM24.8508 14.7813L24.7645 14.835H24.8831L24.8508 14.7813ZM33.0661 28.7676L33.023 28.6924V28.7891L33.0661 28.7676Z" fill="black"/>
</svg>
