<svg width="51" height="49" viewBox="0 0 51 49" fill="none" xmlns="http://www.w3.org/2000/svg">
<g clip-path="url(#clip0)">
<path d="M35.3377 34.087C37.2197 33.8906 38.6475 32.2553 38.5825 30.2926C38.5178 28.3302 36.8951 26.7601 34.9482 26.7601H34.8185C32.8064 26.8255 31.2489 28.5263 31.3138 30.5543C31.3788 31.5356 31.7681 32.386 32.3522 32.9748C30.1456 37.3579 26.7709 40.5633 21.7087 43.2455C18.269 45.0772 14.6996 45.7314 11.1302 45.2736C8.20964 44.881 5.93814 43.5728 4.51014 41.4137C2.43349 38.2083 2.23885 34.741 3.99118 31.2739C5.22434 28.788 7.17111 26.9563 8.40427 26.0404C8.14469 25.19 7.75522 23.7508 7.56058 22.7042C-1.84992 29.5731 -0.876335 38.8625 1.97927 43.2455C4.12087 46.5166 8.46922 48.5445 13.2718 48.5445C14.5697 48.5445 15.8676 48.4136 17.1657 48.0867C25.4729 46.4511 31.7683 41.4792 35.3377 34.087ZM46.7601 25.9751C41.8276 20.1528 34.5589 16.9474 26.2517 16.9474H25.2134C24.6292 15.7699 23.3961 14.9847 22.0332 14.9847H21.9033C19.8916 15.0502 18.3341 16.751 18.3989 18.7791C18.4638 20.7416 20.0863 22.3117 22.0332 22.3117H22.1629C23.5907 22.2462 24.8239 21.3303 25.343 20.0874H26.5113C31.4437 20.0874 36.1164 21.5265 40.3351 24.3396C43.5799 26.4984 45.9164 29.3115 47.2143 32.7131C48.3176 35.4607 48.2526 38.1428 47.0844 40.4326C45.2673 43.8997 42.2171 45.7969 38.1933 45.7969C35.5972 45.7969 33.1311 45.0117 31.833 44.423C31.1192 45.0772 29.8211 46.1238 28.9125 46.7782C31.7033 48.0864 34.5589 48.8061 37.2846 48.8061C43.515 48.8061 48.1229 45.3389 49.8753 41.8718C51.7573 38.0774 51.6274 31.5356 46.7601 25.9751ZM13.7909 35.1989C13.8559 37.1615 15.4783 38.7314 17.4253 38.7314H17.5552C19.5671 38.6661 21.1246 36.9651 21.0596 34.9372C20.9949 32.9746 19.3723 31.4047 17.4253 31.4047H17.2956C17.1657 31.4047 16.9709 31.4047 16.8414 31.4699C14.1804 27.0215 13.0771 22.1807 13.4666 16.9472C13.726 13.0221 15.0241 9.62026 17.2956 6.8072C19.1776 4.38671 22.812 3.2092 25.2783 3.14394C32.1575 3.01301 35.0779 11.6482 35.2727 15.1155C36.1164 15.3116 37.5442 15.7697 38.5178 16.0968C37.7388 5.49916 31.2489 0.00396729 25.0187 0.00396729C19.1776 0.00396729 13.7909 4.25619 11.6491 10.5363C8.66385 18.9099 10.6108 26.9563 14.2452 33.3019C13.9208 33.7597 13.726 34.4794 13.7909 35.1991V35.1989Z" fill="white"/>
</g>
<defs>
<clipPath id="clip0">
<rect width="51" height="49" fill="white"/>
</clipPath>
</defs>
</svg>
