<svg width="451" height="278" viewBox="0 0 451 278" fill="none" xmlns="http://www.w3.org/2000/svg">
<g clip-path="url(#clip0)">
<path d="M48 45.5V94.5H97V45.5H48ZM74.6656 83.7156C74.6656 88.4844 71.8656 90.6609 67.7859 90.6609C64.1 90.6609 61.9672 88.7578 60.8734 86.45L64.625 84.1859C65.3469 85.4656 66.0031 86.5484 67.589 86.5484C69.0984 86.5484 70.0609 85.9578 70.0609 83.65V67.9984H74.6656V83.7156ZM85.5594 90.6609C81.2828 90.6609 78.5156 88.6266 77.1703 85.9578L80.9219 83.7922C81.9062 85.4 83.1969 86.5922 85.4609 86.5922C87.364 86.5922 88.589 85.6406 88.589 84.3172C88.589 82.7422 87.3422 82.1844 85.2312 81.2547L84.0828 80.7625C80.7578 79.3516 78.5594 77.5687 78.5594 73.8172C78.5594 70.3609 81.1953 67.7359 85.2969 67.7359C88.2281 67.7359 90.3281 68.7531 91.8375 71.4219L88.25 73.7188C87.4625 72.3078 86.6094 71.75 85.2859 71.75C83.9406 71.75 83.0875 72.6031 83.0875 73.7188C83.0875 75.0969 83.9406 75.6547 85.9203 76.5188L87.0687 77.0109C90.9844 78.6844 93.1828 80.4016 93.1828 84.2516C93.1828 88.3859 89.9234 90.6609 85.5594 90.6609Z" fill="black"/>
</g>
<g clip-path="url(#clip1)">
<path d="M244.741 61.3812C244.15 61.1843 243.559 60.9984 242.969 60.8234C243.067 60.4187 243.155 60.014 243.242 59.6093C244.587 53.0906 243.702 47.8515 240.716 46.1234C237.839 44.4719 233.147 46.189 228.4 50.3234C227.93 50.7281 227.47 51.1547 227.033 51.5812C226.737 51.2968 226.431 51.0125 226.125 50.739C221.148 46.3203 216.161 44.4609 213.175 46.2C210.309 47.8625 209.456 52.7953 210.659 58.964C210.78 59.5765 210.911 60.1781 211.064 60.7906C210.364 60.9875 209.675 61.2062 209.03 61.4359C203.189 63.4593 199 66.6531 199 69.9562C199 73.3687 203.462 76.7922 209.533 78.8703C210.025 79.0343 210.517 79.1984 211.02 79.3406C210.856 79.9968 210.714 80.6422 210.583 81.3093C209.434 87.3797 210.331 92.1922 213.197 93.8437C216.15 95.55 221.116 93.8 225.95 89.5672C226.333 89.2281 226.716 88.8781 227.098 88.5062C227.58 88.9765 228.083 89.425 228.586 89.8625C233.267 93.8875 237.894 95.5172 240.748 93.8656C243.702 92.1593 244.664 86.9859 243.417 80.6859C243.319 80.2047 243.209 79.7125 243.089 79.2093C243.439 79.1109 243.778 79.0015 244.117 78.8922C250.428 76.8031 255 73.4234 255 69.9562C255 66.6422 250.691 63.4265 244.741 61.3812ZM229.942 52.0953C234.011 48.5515 237.806 47.1625 239.534 48.1578C241.383 49.2187 242.094 53.5062 240.934 59.139C240.858 59.5109 240.781 59.8718 240.683 60.2328C238.255 59.6859 235.794 59.2922 233.322 59.0734C231.9 57.039 230.347 55.0922 228.662 53.2656C229.089 52.8609 229.505 52.4781 229.942 52.0953ZM217.287 75.6328C217.845 76.5843 218.414 77.5359 219.016 78.4656C217.309 78.2797 215.614 78.0062 213.941 77.6453C214.422 76.0703 215.023 74.4406 215.723 72.7781C216.227 73.7406 216.741 74.6922 217.287 75.6328ZM213.973 62.475C215.548 62.125 217.222 61.8406 218.961 61.6218C218.381 62.5297 217.812 63.4593 217.277 64.4C216.741 65.3297 216.216 66.2812 215.723 67.2437C215.034 65.614 214.455 64.0172 213.973 62.475ZM216.97 70.0109C217.692 68.5015 218.48 67.025 219.311 65.5703C220.142 64.1156 221.039 62.7047 221.98 61.3156C223.62 61.1953 225.294 61.1297 227 61.1297C228.706 61.1297 230.391 61.1953 232.02 61.3156C232.95 62.6937 233.836 64.1047 234.678 65.5484C235.52 66.9922 236.308 68.4687 237.052 69.9672C236.319 71.4765 235.531 72.964 234.689 74.4297C233.858 75.8843 232.972 77.2953 232.042 78.6953C230.412 78.8156 228.717 78.8703 227 78.8703C225.283 78.8703 223.62 78.8156 222.012 78.7172C221.061 77.3281 220.164 75.9062 219.322 74.4515C218.48 72.9968 217.703 71.5203 216.97 70.0109ZM236.723 75.6109C237.281 74.6484 237.806 73.675 238.32 72.6906C239.02 74.2765 239.633 75.8843 240.169 77.5359C238.473 77.9187 236.756 78.214 235.028 78.4109C235.619 77.4922 236.177 76.5515 236.723 75.6109ZM238.298 67.2437C237.784 66.2812 237.259 65.3187 236.712 64.3781C236.177 63.4484 235.619 62.5297 235.039 61.6218C236.8 61.8406 238.484 62.1359 240.059 62.4968C239.556 64.1156 238.966 65.6906 238.298 67.2437ZM227.022 54.939C228.17 56.1859 229.253 57.4984 230.259 58.8547C228.094 58.7562 225.917 58.7562 223.752 58.8547C224.823 57.4437 225.928 56.1312 227.022 54.939ZM214.334 48.2343C216.172 47.1625 220.252 48.6937 224.55 52.5C224.823 52.7406 225.097 53.0031 225.381 53.2656C223.686 55.0922 222.122 57.039 220.689 59.0734C218.217 59.2922 215.767 59.675 213.339 60.2109C213.197 59.6531 213.077 59.0843 212.956 58.5156C211.928 53.2218 212.606 49.2297 214.334 48.2343ZM211.655 77.0656C211.195 76.9343 210.747 76.7922 210.298 76.639C207.969 75.9062 205.322 74.7468 203.408 73.2265C202.303 72.4609 201.559 71.2797 201.352 69.9562C201.352 67.9547 204.808 65.3953 209.795 63.6562C210.419 63.4375 211.053 63.2406 211.687 63.0547C212.431 65.4281 213.328 67.7578 214.367 70.0109C213.317 72.2968 212.409 74.6593 211.655 77.0656ZM224.408 87.7843C222.603 89.4359 220.514 90.7484 218.239 91.6453C217.025 92.225 215.625 92.2797 214.378 91.7875C212.639 90.7812 211.917 86.9203 212.902 81.725C213.022 81.1125 213.153 80.5 213.306 79.8984C215.756 80.4234 218.228 80.7843 220.733 80.9703C222.177 83.0156 223.762 84.9734 225.458 86.8109C225.108 87.15 224.758 87.4781 224.408 87.7843ZM227.087 85.1265C225.972 83.9234 224.856 82.589 223.773 81.1562C224.823 81.2 225.906 81.2218 227 81.2218C228.127 81.2218 229.231 81.2 230.325 81.1453C229.319 82.5343 228.236 83.8578 227.087 85.1265ZM241.383 88.4078C241.284 89.7422 240.628 90.989 239.578 91.8312C237.839 92.8375 234.131 91.525 230.128 88.0906C229.669 87.6968 229.209 87.2703 228.739 86.8328C230.412 84.9843 231.955 83.0265 233.355 80.9703C235.859 80.7625 238.353 80.3797 240.814 79.8218C240.923 80.2703 241.022 80.7187 241.109 81.1562C241.645 83.5187 241.733 85.9797 241.383 88.4078ZM243.373 76.65C243.067 76.7484 242.761 76.8468 242.444 76.9343C241.678 74.55 240.737 72.2203 239.655 69.9562C240.705 67.725 241.591 65.4281 242.334 63.0765C242.903 63.2406 243.45 63.4156 243.975 63.5906C249.072 65.3406 252.648 67.9437 252.648 69.9343C252.648 72.0781 248.831 74.8453 243.373 76.65ZM227 75.0093C229.767 75.0093 232.009 72.7672 232.009 70C232.009 67.2328 229.767 64.9906 227 64.9906C224.233 64.9906 221.991 67.2328 221.991 70C221.991 72.7672 224.233 75.0093 227 75.0093Z" fill="#A8E0EE"/>
</g>
<g clip-path="url(#clip2)">
<path d="M76 194.001C92.6044 194.001 105.372 200.911 105.372 208.5C105.372 216.089 92.5947 222.999 76 222.999C59.3956 222.999 46.6275 216.089 46.6275 208.5C46.6275 200.911 59.4053 194.001 76 194.001ZM76 192.393C58.8822 192.393 45 199.6 45 208.5C45 217.4 58.8822 224.607 76 224.607C93.1178 224.607 107 217.4 107 208.5C107 199.6 93.1178 192.393 76 192.393ZM66.1381 207.208C65.3728 211.084 62.67 210.682 59.3472 210.682L60.6744 203.925C64.3556 203.925 66.855 203.533 66.1381 207.208ZM54.4356 217.525H57.9909L58.8337 213.237C62.8153 213.237 65.2856 213.524 67.5719 211.409C70.1003 209.113 70.759 205.026 68.9572 202.978C68.0175 201.906 66.5062 201.38 64.4525 201.38H57.6034L54.4356 217.525ZM72.4253 197.083H75.9612L75.1184 201.37C78.17 201.37 80.9987 201.15 82.3647 202.394C83.7984 203.696 83.1106 205.361 81.5606 213.218H77.9762C79.4681 205.619 79.749 204.988 79.2065 204.414C78.6834 203.858 77.4919 203.973 74.6147 203.973L72.7934 213.218H69.2575L72.4253 197.083ZM93.9219 207.208C93.1469 211.141 90.3665 210.682 87.1309 210.682L88.4581 203.925C92.1587 203.925 94.6387 203.533 93.9219 207.208ZM82.2194 217.525H85.7844L86.6272 213.237C90.8122 213.237 93.1275 213.477 95.3653 211.409C97.8937 209.113 98.5525 205.026 96.7506 202.978C95.8109 201.906 94.2997 201.38 92.2459 201.38H85.3969L82.2194 217.525Z" fill="white"/>
</g>
<g clip-path="url(#clip3)">
<path d="M224.939 219.563C224.914 219.615 224.888 219.656 224.939 219.563V219.563ZM246.349 212.087C244.621 212.086 242.915 212.483 241.365 213.247C240.858 212.224 240.333 211.331 240.247 210.66C240.144 209.878 240.033 209.414 240.153 208.486C240.273 207.558 240.815 206.243 240.806 206.149C240.797 206.054 240.686 205.581 239.577 205.573C238.469 205.564 237.515 205.788 237.404 206.08C237.208 206.614 237.056 207.163 236.948 207.721C236.751 208.727 234.732 212.319 233.589 214.192C233.211 213.462 232.893 212.817 232.824 212.302C232.721 211.52 232.609 211.056 232.73 210.127C232.85 209.199 233.391 207.885 233.383 207.79C233.374 207.695 233.262 207.223 232.155 207.214C231.047 207.206 230.092 207.429 229.98 207.721C229.869 208.013 229.748 208.701 229.525 209.363C229.302 210.024 226.613 216.006 225.909 217.561C225.548 218.352 225.238 218.988 225.015 219.417C224.981 219.486 224.955 219.529 224.938 219.563C224.963 219.52 224.981 219.477 224.981 219.495C224.792 219.864 224.68 220.07 224.68 220.07V220.079C224.534 220.354 224.37 220.603 224.293 220.603C224.242 220.603 224.13 219.881 224.319 218.893C224.723 216.813 225.677 213.582 225.668 213.47C225.66 213.41 225.849 212.852 225.041 212.551C224.259 212.267 223.975 212.74 223.906 212.74C223.838 212.74 223.786 212.912 223.786 212.912C223.786 212.912 224.654 209.268 222.12 209.268C220.539 209.268 218.339 211.004 217.257 212.577C216.579 212.946 215.109 213.745 213.562 214.596C212.969 214.923 212.359 215.258 211.783 215.576C211.74 215.533 211.706 215.49 211.663 215.447C208.587 212.164 202.908 209.844 203.149 205.435C203.235 203.828 203.794 199.609 214.069 194.487C222.491 190.293 229.224 191.445 230.384 194.006C232.051 197.658 226.784 204.456 218.038 205.435C214.704 205.805 212.952 204.516 212.514 204.035C212.058 203.527 211.989 203.502 211.818 203.596C211.534 203.751 211.714 204.198 211.818 204.464C212.075 205.143 213.15 206.346 214.979 206.948C216.586 207.472 220.495 207.764 225.22 205.934C230.53 203.888 234.662 198.191 233.451 193.421C232.217 188.574 224.18 186.985 216.58 189.683C212.052 191.29 207.155 193.817 203.633 197.108C199.449 201.027 198.779 204.438 199.054 205.865C200.033 210.927 207.009 214.227 209.801 216.667C209.664 216.745 209.535 216.813 209.415 216.882C208.015 217.578 202.696 220.363 201.365 223.302C199.861 226.636 201.614 229.025 202.765 229.352C206.356 230.349 210.034 228.552 212.009 225.605C213.985 222.657 213.745 218.807 212.834 217.054C212.826 217.028 212.808 217.011 212.8 216.985C213.161 216.77 213.53 216.556 213.9 216.341C214.612 215.92 215.308 215.533 215.919 215.198C215.575 216.126 215.326 217.243 215.197 218.859C215.042 220.749 215.824 223.199 216.838 224.161C217.285 224.582 217.825 224.591 218.161 224.591C219.347 224.591 219.879 223.611 220.471 222.442C221.202 221.016 221.846 219.357 221.846 219.357C221.846 219.357 221.039 223.843 223.247 223.843C224.054 223.843 224.862 222.803 225.224 222.27V222.279C225.224 222.279 225.241 222.245 225.284 222.176C225.37 222.047 225.413 221.97 225.413 221.97V221.944C225.739 221.385 226.453 220.105 227.526 217.991C228.918 215.258 230.249 211.846 230.249 211.846C230.378 212.596 230.556 213.337 230.782 214.063C231.023 214.88 231.53 215.774 231.934 216.642C231.607 217.088 231.41 217.346 231.41 217.346C231.41 217.353 231.413 217.359 231.418 217.363C231.16 217.707 230.868 218.077 230.567 218.438C229.468 219.744 228.161 221.239 227.989 221.669C227.783 222.176 227.835 222.554 228.23 222.846C228.522 223.07 229.038 223.104 229.578 223.061C230.567 222.992 231.263 222.752 231.598 222.597C232.216 222.375 232.8 222.069 233.333 221.686C234.407 220.895 235.06 219.761 235 218.266C234.966 217.441 234.699 216.616 234.373 215.842C234.467 215.705 234.57 215.559 234.665 215.413C236.366 212.929 237.68 210.203 237.68 210.203C237.809 210.953 237.987 211.694 238.213 212.42C238.42 213.116 238.823 213.881 239.192 214.629C237.595 215.927 236.606 217.43 236.263 218.419C235.627 220.249 236.125 221.074 237.062 221.263C237.483 221.349 238.084 221.152 238.531 220.962C239.195 220.741 239.821 220.42 240.387 220.009C241.461 219.218 242.5 218.109 242.431 216.605C242.405 215.927 242.216 215.248 241.967 214.595C243.316 214.027 245.069 213.718 247.303 213.976C252.088 214.534 253.025 217.525 252.844 218.771C252.664 220.017 251.658 220.713 251.323 220.92C250.988 221.126 250.885 221.203 250.911 221.358C250.954 221.581 251.108 221.573 251.392 221.521C251.787 221.452 253.9 220.507 253.995 218.195C254.132 215.273 251.323 212.059 246.346 212.085L246.349 212.087ZM209.466 224.522C207.886 226.249 205.669 226.902 204.716 226.352C203.693 225.758 204.097 223.216 206.047 221.375C207.233 220.258 208.762 219.227 209.776 218.591C210.008 218.453 210.343 218.247 210.755 217.998C210.824 217.955 210.859 217.937 210.859 217.937C210.936 217.886 211.022 217.843 211.108 217.791C211.82 220.404 211.134 222.707 209.466 224.52V224.522ZM221.013 216.667C220.463 218.017 219.304 221.454 218.599 221.274C217.997 221.119 217.628 218.498 218.479 215.92C218.908 214.622 219.819 213.075 220.361 212.474C221.228 211.502 222.182 211.193 222.405 211.58C222.706 212.087 221.357 215.825 221.013 216.667ZM230.552 221.222C230.32 221.342 230.105 221.42 230.002 221.36C229.925 221.317 230.096 221.153 230.096 221.153C230.096 221.153 231.291 219.873 231.764 219.288C232.039 218.945 232.357 218.541 232.7 218.094C232.7 218.137 232.708 218.18 232.708 218.231C232.697 219.77 231.22 220.81 230.549 221.222H230.552ZM237.906 219.546C237.735 219.426 237.76 219.022 238.336 217.767C238.56 217.277 239.074 216.452 239.969 215.662C240.07 215.961 240.125 216.274 240.132 216.59C240.124 218.524 238.74 219.245 237.907 219.546H237.906Z" fill="#CF649A"/>
</g>
<path d="M379.101 229.555C378.875 229.555 378.648 229.49 378.443 229.383L376.373 228.158C376.061 227.986 376.212 227.922 376.32 227.89C376.729 227.75 376.815 227.718 377.257 227.46C377.301 227.438 377.365 227.449 377.408 227.471L379.004 228.416C379.058 228.448 379.144 228.448 379.198 228.416L385.43 224.828C385.484 224.796 385.527 224.731 385.527 224.656V217.491C385.527 217.416 385.494 217.352 385.43 217.319L379.198 213.742C379.144 213.71 379.069 213.71 379.004 213.742L372.773 217.319C372.708 217.352 372.675 217.427 372.675 217.491V224.656C372.675 224.721 372.719 224.785 372.773 224.817L374.476 225.795C375.403 226.257 375.975 225.709 375.975 225.172V218.093C375.975 217.996 376.05 217.91 376.158 217.91H376.945C377.042 217.91 377.128 217.985 377.128 218.093V225.172C377.128 226.407 376.46 227.105 375.285 227.105C374.929 227.105 374.638 227.105 373.851 226.719L372.212 225.784C371.813 225.548 371.554 225.118 371.554 224.656V217.491C371.554 217.029 371.802 216.589 372.212 216.363L378.443 212.775C378.842 212.55 379.36 212.55 379.748 212.775L385.98 216.363C386.378 216.6 386.637 217.029 386.637 217.491V224.656C386.637 225.118 386.389 225.559 385.98 225.784L379.748 229.372C379.565 229.49 379.338 229.555 379.101 229.555ZM384.136 222.486C384.136 221.144 383.23 220.789 381.311 220.531C379.371 220.273 379.177 220.145 379.177 219.693C379.177 219.317 379.338 218.823 380.772 218.823C382.055 218.823 382.53 219.103 382.724 219.962C382.745 220.048 382.81 220.102 382.896 220.102H383.705C383.759 220.102 383.802 220.08 383.834 220.048C383.866 220.005 383.888 219.962 383.877 219.908C383.748 218.426 382.767 217.738 380.772 217.738C378.993 217.738 377.937 218.49 377.937 219.736C377.937 221.101 378.993 221.466 380.697 221.638C382.734 221.842 382.896 222.132 382.896 222.529C382.896 223.228 382.335 223.518 381.02 223.518C379.371 223.518 379.004 223.109 378.885 222.293C378.875 222.207 378.799 222.143 378.702 222.143H377.894C377.797 222.143 377.71 222.218 377.71 222.325C377.71 223.367 378.282 224.613 381.009 224.613C383.004 224.613 384.136 223.84 384.136 222.486ZM390.012 217.105C390.012 217.76 389.473 218.297 388.815 218.297C388.157 218.297 387.618 217.76 387.618 217.105C387.618 216.428 388.179 215.912 388.815 215.912C389.462 215.901 390.012 216.428 390.012 217.105ZM389.818 217.105C389.818 216.546 389.365 216.105 388.804 216.105C388.254 216.105 387.802 216.546 387.802 217.105C387.802 217.663 388.254 218.114 388.804 218.114C389.365 218.104 389.818 217.652 389.818 217.105ZM389.333 217.771H389.052C389.041 217.706 388.998 217.362 388.998 217.352C388.977 217.276 388.955 217.233 388.858 217.233H388.621V217.771H388.362V216.428H388.826C388.987 216.428 389.3 216.428 389.3 216.782C389.3 217.029 389.138 217.083 389.041 217.115C389.225 217.126 389.235 217.244 389.268 217.416C389.279 217.523 389.3 217.706 389.333 217.771ZM389.031 216.825C389.031 216.643 388.901 216.643 388.837 216.643H388.621V217.019H388.826C388.998 217.019 389.031 216.9 389.031 216.825ZM359.803 201.518C359.803 201.228 359.652 200.97 359.404 200.83L352.795 197.038C352.687 196.974 352.558 196.941 352.428 196.931H352.364C352.234 196.931 352.116 196.974 351.997 197.038L345.399 200.83C345.151 200.97 345 201.238 345 201.518L345.011 211.723C345.011 211.862 345.086 211.991 345.205 212.066C345.323 212.142 345.474 212.142 345.604 212.066L349.528 209.821C349.776 209.671 349.927 209.413 349.927 209.134V204.364C349.927 204.085 350.078 203.816 350.326 203.677L351.997 202.721C352.126 202.646 352.256 202.613 352.396 202.613C352.536 202.613 352.676 202.646 352.795 202.721L354.466 203.677C354.714 203.816 354.865 204.085 354.865 204.364V209.134C354.865 209.413 355.016 209.682 355.264 209.821L359.188 212.066C359.307 212.142 359.468 212.142 359.587 212.066C359.706 212.002 359.781 211.862 359.781 211.723L359.803 201.518ZM395.941 190.378V209.327C395.941 209.606 395.79 209.875 395.542 210.015L388.934 213.817C388.686 213.957 388.384 213.957 388.136 213.817L381.527 210.015C381.279 209.875 381.128 209.606 381.128 209.327V201.722C381.128 201.442 381.279 201.174 381.527 201.034L388.136 197.231C388.384 197.092 388.686 197.092 388.934 197.231L390.583 198.177C390.766 198.284 391.004 198.145 391.004 197.94V187.843C391.004 187.542 391.327 187.349 391.597 187.499L395.532 189.69C395.78 189.819 395.941 190.088 395.941 190.378ZM390.982 204.225C390.982 204.149 390.939 204.085 390.885 204.053L388.621 202.742C388.556 202.71 388.481 202.71 388.416 202.742L386.152 204.053C386.087 204.085 386.055 204.149 386.055 204.225V206.835C386.055 206.91 386.098 206.975 386.152 207.007L388.416 208.307C388.481 208.339 388.556 208.339 388.61 208.307L390.874 207.007C390.939 206.975 390.971 206.91 390.971 206.835V204.225H390.982ZM413.601 204.149C413.849 204.01 414 203.741 414 203.462V201.625C414 201.346 413.849 201.077 413.601 200.938L407.035 197.135C406.787 196.995 406.485 196.995 406.237 197.135L399.629 200.938C399.381 201.077 399.23 201.346 399.23 201.625V209.23C399.23 209.521 399.381 209.778 399.629 209.918L406.194 213.646C406.432 213.785 406.733 213.785 406.981 213.646L410.949 211.443C411.218 211.293 411.218 210.906 410.949 210.756L404.297 206.953C404.167 206.878 404.092 206.749 404.092 206.609V204.225C404.092 204.085 404.167 203.956 404.297 203.881L406.367 202.689C406.485 202.613 406.647 202.613 406.766 202.689L408.836 203.881C408.954 203.956 409.041 204.085 409.041 204.225V206.094C409.041 206.395 409.375 206.588 409.644 206.438L413.601 204.149ZM405.267 204.525C405.224 204.558 405.192 204.601 405.192 204.654V206.115C405.192 206.169 405.224 206.223 405.267 206.244L406.539 206.975C406.582 207.007 406.647 207.007 406.69 206.975L407.962 206.244C408.006 206.212 408.038 206.169 408.038 206.115V204.654C408.038 204.601 408.006 204.547 407.962 204.525L406.69 203.795C406.647 203.763 406.582 203.763 406.539 203.795L405.267 204.525ZM377.861 209.198V201.636C377.861 201.356 377.689 201.088 377.441 200.948L370.853 197.167C370.627 197.038 370.314 197.017 370.056 197.167L363.468 200.948C363.22 201.088 363.048 201.346 363.048 201.636V209.198C363.048 209.499 363.253 209.757 363.479 209.886L370.077 213.667C370.336 213.817 370.638 213.807 370.875 213.667L377.452 209.886C377.646 209.778 377.786 209.596 377.84 209.381C377.85 209.327 377.861 209.263 377.861 209.198ZM369.851 195.781L369.765 195.835H369.883L369.851 195.781ZM378.066 209.768L378.023 209.692V209.789L378.066 209.768Z" fill="black"/>
<defs>
<clipPath id="clip0">
<rect width="49" height="56" fill="white" transform="translate(48 42)"/>
</clipPath>
<clipPath id="clip1">
<rect width="56" height="56" fill="white" transform="translate(199 42)"/>
</clipPath>
<clipPath id="clip2">
<rect width="62" height="49" fill="white" transform="translate(45 184)"/>
</clipPath>
<clipPath id="clip3">
<rect width="55" height="44" fill="white" transform="translate(199 187)"/>
</clipPath>
</defs>
</svg>
