<svg width="47" height="49" viewBox="0 0 47 49" fill="none" xmlns="http://www.w3.org/2000/svg">
<g clip-path="url(#clip0)">
<path d="M12.8551 3.39747C12.755 3.29041 12.6361 3.20546 12.5052 3.14749C12.3742 3.08953 12.2339 3.05969 12.0921 3.05969C11.9503 3.05969 11.81 3.08953 11.679 3.14749C11.5481 3.20546 11.4292 3.29041 11.3291 3.39747L5.61316 9.45644L3.57559 7.33949C3.47552 7.23242 3.35662 7.14747 3.22569 7.08951C3.09476 7.03154 2.95439 7.0017 2.81263 7.0017C2.67086 7.0017 2.53049 7.03154 2.39956 7.08951C2.26864 7.14747 2.14973 7.23242 2.04966 7.33949L0.640416 8.84394C0.539999 8.95063 0.460323 9.07741 0.405958 9.21701C0.351593 9.3566 0.323608 9.50626 0.323608 9.65741C0.323608 9.80857 0.351593 9.95823 0.405958 10.0978C0.460323 10.2374 0.539999 10.3642 0.640416 10.4709L4.91213 15.0072C5.12535 15.2233 5.40829 15.3438 5.70247 15.3438C5.99666 15.3438 6.2796 15.2233 6.49282 15.0072L7.89219 13.5123L14.3729 6.60353C14.5748 6.38807 14.6889 6.0964 14.6904 5.79182C14.692 5.48724 14.5808 5.1943 14.381 4.97657L12.8551 3.39747ZM12.8551 18.6325C12.755 18.5254 12.6361 18.4404 12.5052 18.3825C12.3742 18.3245 12.2339 18.2947 12.0921 18.2947C11.9503 18.2947 11.81 18.3245 11.679 18.3825C11.5481 18.4404 11.4292 18.5254 11.3291 18.6325L5.61316 24.7307L3.57559 22.6156C3.47552 22.5086 3.35662 22.4236 3.22569 22.3656C3.09476 22.3077 2.95439 22.2778 2.81263 22.2778C2.67086 22.2778 2.53049 22.3077 2.39956 22.3656C2.26864 22.4236 2.14973 22.5086 2.04966 22.6156L0.640416 24.1172C0.539999 24.2239 0.460323 24.3507 0.405958 24.4903C0.351593 24.6299 0.323608 24.7795 0.323608 24.9307C0.323608 25.0818 0.351593 25.2315 0.405958 25.3711C0.460323 25.5107 0.539999 25.6375 0.640416 25.7442L4.90136 30.2901C5.11443 30.5061 5.39722 30.6266 5.69125 30.6266C5.98529 30.6266 6.26808 30.5061 6.48115 30.2901L7.89039 28.7885L14.3711 21.8768C14.5723 21.6628 14.686 21.3728 14.6875 21.0699C14.689 20.7669 14.5782 20.4756 14.3792 20.2594L12.8551 18.6325ZM6.06825 35.2188C3.69049 35.2188 1.70677 37.2764 1.70677 39.8125C1.70677 42.3486 3.69228 44.4063 6.06825 44.4063C7.21094 44.4063 8.30683 43.9223 9.11483 43.0608C9.92284 42.1993 10.3768 41.0308 10.3768 39.8125C10.3768 38.5942 9.92284 37.4257 9.11483 36.5642C8.30683 35.7027 7.21094 35.2188 6.06825 35.2188ZM44.8449 36.75H18.9938C18.6129 36.75 18.2476 36.9113 17.9783 37.1985C17.7089 37.4857 17.5576 37.8751 17.5576 38.2813V41.3438C17.5576 41.7499 17.7089 42.1394 17.9783 42.4265C18.2476 42.7137 18.6129 42.875 18.9938 42.875H44.8449C45.2258 42.875 45.5911 42.7137 45.8604 42.4265C46.1298 42.1394 46.2811 41.7499 46.2811 41.3438V38.2813C46.2811 37.8751 46.1298 37.4857 45.8604 37.1985C45.5911 36.9113 45.2258 36.75 44.8449 36.75ZM44.8449 6.12501H18.9938C18.6129 6.12501 18.2476 6.28634 17.9783 6.57351C17.7089 6.86067 17.5576 7.25015 17.5576 7.65626V10.7188C17.5576 11.1249 17.7089 11.5144 17.9783 11.8015C18.2476 12.0887 18.6129 12.25 18.9938 12.25H44.8449C45.2258 12.25 45.5911 12.0887 45.8604 11.8015C46.1298 11.5144 46.2811 11.1249 46.2811 10.7188V7.65626C46.2811 7.25015 46.1298 6.86067 45.8604 6.57351C45.5911 6.28634 45.2258 6.12501 44.8449 6.12501ZM44.8449 21.4375H18.9938C18.6129 21.4375 18.2476 21.5988 17.9783 21.886C17.7089 22.1732 17.5576 22.5626 17.5576 22.9688V26.0313C17.5576 26.4374 17.7089 26.8269 17.9783 27.114C18.2476 27.4012 18.6129 27.5625 18.9938 27.5625H44.8449C45.2258 27.5625 45.5911 27.4012 45.8604 27.114C46.1298 26.8269 46.2811 26.4374 46.2811 26.0313V22.9688C46.2811 22.5626 46.1298 22.1732 45.8604 21.886C45.5911 21.5988 45.2258 21.4375 44.8449 21.4375Z" fill="#FAFAFA"/>
</g>
<defs>
<clipPath id="clip0">
<rect width="45.9575" height="49" fill="white" transform="translate(0.323486)"/>
</clipPath>
</defs>
</svg>
