<svg width="26" height="38" viewBox="0 0 26 38" fill="none" xmlns="http://www.w3.org/2000/svg">
<g clip-path="url(#clip0)">
<path d="M17.9282 19L25.3197 11.5729C26.2268 10.6615 26.2268 9.18383 25.3197 8.27168L23.677 6.62105C22.7699 5.70965 21.2993 5.70965 20.3915 6.62105L13 14.0481L5.60847 6.62105C4.70142 5.70965 3.2308 5.70965 2.32301 6.62105L0.680284 8.27168C-0.226761 9.18309 -0.226761 10.6608 0.680284 11.5729L8.07182 19L0.680284 26.4271C-0.226761 27.3385 -0.226761 28.8162 0.680284 29.7283L2.32301 31.3789C3.23006 32.2904 4.70142 32.2904 5.60847 31.3789L13 23.9519L20.3915 31.3789C21.2986 32.2904 22.7699 32.2904 23.677 31.3789L25.3197 29.7283C26.2268 28.8169 26.2268 27.3392 25.3197 26.4271L17.9282 19Z" fill="#061529"/>
</g>
<defs>
<clipPath id="clip0">
<rect width="26" height="38" fill="white"/>
</clipPath>
</defs>
</svg>
