<svg width="406" height="338" viewBox="0 0 406 338" fill="none" xmlns="http://www.w3.org/2000/svg">
<g clip-path="url(#clip0)">
<path d="M98.8287 87.8268H41.54C39.0934 87.8268 37.11 89.8127 37.11 92.2624V204.015C37.11 206.465 39.0934 208.451 41.54 208.451H98.8287C101.275 208.451 103.259 206.465 103.259 204.015V92.2624C103.259 89.8127 101.275 87.8268 98.8287 87.8268Z" fill="url(#paint0_linear)"/>
<path d="M97.3048 89.8095H43.064C40.6173 89.8095 38.634 91.7954 38.634 94.2452V201.212C38.634 203.662 40.6173 205.648 43.064 205.648H97.3048C99.7514 205.648 101.735 203.662 101.735 201.212V94.2452C101.735 91.7954 99.7514 89.8095 97.3048 89.8095Z" fill="white"/>
<path d="M94.7903 97.7817L45.9364 97.85L46.0678 192.117L94.9217 192.049L94.7903 97.7817Z" fill="#E6E6E6"/>
<path d="M70.5054 202.871C72.656 202.868 74.3969 201.076 74.3938 198.869C74.3907 196.661 72.6448 194.875 70.4942 194.878C68.3437 194.881 66.6028 196.672 66.6059 198.88C66.6089 201.087 68.3548 202.874 70.5054 202.871Z" fill="#DBDBDB"/>
<path d="M62.9602 94.2245C63.3908 94.2239 63.7394 93.866 63.7388 93.425C63.7382 92.9841 63.3886 92.6271 62.958 92.6277C62.5274 92.6283 62.1788 92.9863 62.1794 93.4272C62.18 93.8682 62.5296 94.2251 62.9602 94.2245Z" fill="#DBDBDB"/>
<path d="M78.0956 92.8061L66.9054 92.8218C66.6607 92.8221 66.4627 93.021 66.463 93.266L66.4635 93.5765C66.4638 93.8214 66.6624 94.0198 66.9071 94.0194L78.0972 94.0038C78.3419 94.0034 78.54 93.8046 78.5396 93.5596L78.5392 93.2491C78.5388 93.0041 78.3402 92.8058 78.0956 92.8061Z" fill="#DBDBDB"/>
<path d="M84.2584 152.481H56.5976V181.562H84.2584V152.481Z" fill="url(#paint1_linear)"/>
<path d="M83.058 153.746H57.8026V180.298H83.058V153.746Z" fill="#95A1B2"/>
<g opacity="0.5">
<path opacity="0.5" d="M72.3418 165.78V165.278H73.6708V162.71C74.0734 162.098 74.3053 161.39 74.3425 160.658C74.3798 159.926 74.2211 159.197 73.8828 158.548C73.5445 157.898 73.0389 157.35 72.4184 156.962C71.7978 156.573 71.0849 156.358 70.3533 156.338C69.6218 156.318 68.8981 156.494 68.2574 156.848C67.6166 157.202 67.0819 157.721 66.7087 158.352C66.3355 158.982 66.1373 159.701 66.1347 160.433C66.132 161.166 66.325 161.886 66.6936 162.519V165.278H68.1599V165.868C66.3639 166.364 64.7799 167.436 63.6509 168.92C62.5218 170.404 61.91 172.218 61.9092 174.083V181.562H78.9602V174.083C78.9593 172.153 78.304 170.281 77.1016 168.772C75.8993 167.264 74.2211 166.209 72.3418 165.78Z" fill="url(#paint2_linear)"/>
</g>
<path d="M73.374 160.572H67.0612V165.629H73.374V160.572Z" fill="#F55F44"/>
<path d="M68.4257 165.895H72.4127C73.9236 165.895 75.3726 166.496 76.441 167.566C77.5094 168.636 78.1096 170.086 78.1096 171.599V180.373H62.7287V171.59C62.731 170.079 63.3323 168.63 64.4004 167.563C65.4686 166.495 66.9163 165.895 68.4257 165.895Z" fill="#FDD835"/>
<path d="M70.7603 163.367H69.7813C69.0106 163.367 68.3858 163.992 68.3858 164.764V166.689C68.3858 167.461 69.0106 168.086 69.7813 168.086H70.7603C71.531 168.086 72.1557 167.461 72.1557 166.689V164.764C72.1557 163.992 71.531 163.367 70.7603 163.367Z" fill="#FDA57D"/>
<path d="M69.5509 167.944L70.2553 168.973L70.9951 167.944H69.5509Z" fill="#FDA57D"/>
<path opacity="0.1" d="M65.6259 171.661C65.6259 171.661 64.8773 179.122 65.3601 179.606L65.6259 171.661Z" fill="black"/>
<path opacity="0.1" d="M74.8846 171.661C74.8846 171.661 75.6333 179.122 75.1504 179.606L74.8846 171.661Z" fill="black"/>
<path opacity="0.05" d="M70.273 165.66C70.9427 165.661 71.5948 165.446 72.1336 165.048C72.0631 164.604 71.8371 164.2 71.4961 163.909C71.1552 163.617 70.7216 163.456 70.273 163.455C69.8245 163.456 69.3909 163.617 69.0499 163.909C68.709 164.2 68.483 164.604 68.4124 165.048C68.9512 165.446 69.6034 165.661 70.273 165.66Z" fill="black"/>
<path d="M70.273 164.981C72.3257 164.981 73.9897 163.315 73.9897 161.26C73.9897 159.204 72.3257 157.538 70.273 157.538C68.2203 157.538 66.5562 159.204 66.5562 161.26C66.5562 163.315 68.2203 164.981 70.273 164.981Z" fill="#F55F44"/>
<path d="M70.273 165.567C72.0077 165.567 73.4139 164.159 73.4139 162.422C73.4139 160.685 72.0077 159.277 70.273 159.277C68.5384 159.277 67.1321 160.685 67.1321 162.422C67.1321 164.159 68.5384 165.567 70.273 165.567Z" fill="#FDA57D"/>
<path d="M67.1232 162.617C67.2456 162.617 67.3447 162.438 67.3447 162.218C67.3447 161.997 67.2456 161.819 67.1232 161.819C67.0009 161.819 66.9017 161.997 66.9017 162.218C66.9017 162.438 67.0009 162.617 67.1232 162.617Z" fill="#FDA57D"/>
<path d="M73.4271 162.617C73.5495 162.617 73.6486 162.438 73.6486 162.218C73.6486 161.997 73.5495 161.819 73.4271 161.819C73.3048 161.819 73.2056 161.997 73.2056 162.218C73.2056 162.438 73.3048 162.617 73.4271 162.617Z" fill="#FDA57D"/>
<path d="M91.7451 103.911H49.1109V105.765H91.7451V103.911Z" fill="white"/>
<path d="M91.7451 107.619H49.1109V109.473H91.7451V107.619Z" fill="white"/>
<path d="M73.2101 111.332H49.1109V113.186H73.2101V111.332Z" fill="white"/>
<path d="M84.3293 115.044H49.1109V116.898H84.3293V115.044Z" fill="white"/>
<path d="M78.7697 118.757H49.1109V120.611H78.7697V118.757Z" fill="white"/>
<path d="M91.7451 122.47H49.1109V124.324H91.7451V122.47Z" fill="white"/>
<path d="M88.0417 128.036H50.9671V142.883H88.0417V128.036Z" fill="white"/>
<path d="M312.523 202.769C312.523 202.769 318.725 245.436 355.135 259.608L281.464 259.71L207.793 259.812C244.146 245.538 250.255 202.853 250.255 202.853L312.523 202.769Z" fill="#E0E0E0"/>
<path d="M355.792 259.599L207.059 259.807L207.072 268.82L355.804 268.612L355.792 259.599Z" fill="url(#paint3_linear)"/>
<path d="M355.145 259.6L207.804 259.806L207.813 266.761L355.155 266.555L355.145 259.6Z" fill="#F5F5F5"/>
<path d="M401.021 49.2362L161.402 49.5689C160.099 49.6003 158.861 50.1487 157.961 51.0937C157.062 52.0386 156.574 53.3027 156.605 54.6078L156.791 194.59V199.251C156.791 209.897 165.044 218.498 175.197 218.485L387.664 218.192C397.813 218.192 406.031 209.547 406.018 198.91V194.252L405.832 54.2707C405.846 53.6237 405.734 52.9802 405.5 52.3769C405.266 51.7736 404.915 51.2224 404.469 50.7548C404.022 50.2872 403.487 49.9124 402.896 49.6518C402.304 49.3913 401.667 49.25 401.021 49.2362Z" fill="url(#paint4_linear)"/>
<path d="M164.246 53.9247H397.924C399.187 53.9247 400.398 54.4271 401.292 55.3214C402.185 56.2156 402.686 57.4285 402.686 58.6931V191.906H159.48V58.6931C159.48 58.0666 159.603 57.4461 159.843 56.8673C160.082 56.2885 160.433 55.7626 160.876 55.3198C161.319 54.877 161.844 54.5258 162.423 54.2864C163.001 54.0471 163.621 53.9242 164.246 53.9247Z" fill="white"/>
<path d="M386.034 214.049L176.779 214.337C174.55 214.34 172.342 213.903 170.281 213.052C168.22 212.2 166.347 210.951 164.769 209.374C163.19 207.798 161.937 205.926 161.082 203.865C160.226 201.804 159.784 199.594 159.781 197.362V191.595L402.988 191.258V197.025C402.991 199.257 402.555 201.469 401.705 203.532C400.855 205.596 399.607 207.472 398.033 209.053C396.458 210.634 394.588 211.889 392.53 212.746C390.471 213.603 388.264 214.046 386.034 214.049Z" fill="#F5F5F5"/>
<path d="M391.58 65.1027H171.494V176.492H391.58V65.1027Z" fill="#E6E6E6"/>
<path d="M372.633 72.4482H333.676V113.407H372.633V72.4482Z" fill="url(#paint5_linear)"/>
<path d="M370.941 74.2314H335.368V111.629H370.941V74.2314Z" fill="#95A1B2"/>
<g opacity="0.5">
<path opacity="0.5" d="M355.587 90.8608L355.144 90.7011L355.117 90.741H355.091V89.5345C355.091 89.3859 355.079 89.2376 355.055 89.0909C355.773 88.5621 356.322 87.8365 356.637 87.0017C357.257 86.1965 357.64 85.2332 357.741 84.2213C357.843 83.2094 357.659 82.1892 357.211 81.2764C356.763 80.3637 356.068 79.5949 355.206 79.0573C354.344 78.5196 353.349 78.2347 352.333 78.2347C351.317 78.2347 350.322 78.5196 349.46 79.0573C348.597 79.5949 347.903 80.3637 347.455 81.2764C347.007 82.1892 346.823 83.2094 346.925 84.2213C347.026 85.2332 347.409 86.1965 348.029 87.0017C348.344 87.8365 348.893 88.5621 349.611 89.0909C349.587 89.2376 349.575 89.3859 349.575 89.5345V90.8652C347.198 91.5223 345.102 92.942 343.608 94.9066C342.114 96.8712 341.305 99.2723 341.304 101.742V111.638H363.809V101.728C363.81 99.2668 363.007 96.8727 361.522 94.9107C360.038 92.9487 357.953 91.5264 355.587 90.8608Z" fill="url(#paint6_linear)"/>
</g>
<path d="M351.874 90.6168H353.248C355.942 90.6168 358.525 91.6884 360.43 93.5959C362.335 95.5033 363.406 98.0904 363.406 100.788V110.99H341.699V100.788C341.699 99.4507 341.962 98.1267 342.474 96.8915C342.985 95.6563 343.735 94.5343 344.68 93.5896C345.625 92.6449 346.747 91.8961 347.982 91.386C349.216 90.8759 350.539 90.6145 351.874 90.6168Z" fill="#514ABF"/>
<path d="M352.508 87.0727H352.176C350.801 87.0727 349.686 88.1888 349.686 89.5656V91.2289C349.686 92.6057 350.801 93.7218 352.176 93.7218H352.508C353.883 93.7218 354.997 92.6057 354.997 91.2289V89.5656C354.997 88.1888 353.883 87.0727 352.508 87.0727Z" fill="#FDA57D"/>
<path opacity="0.05" d="M347.843 91.7923L349.624 95.6158L351.392 93.846L349.624 91.127L347.843 91.7923Z" fill="black"/>
<path d="M347.905 91.6059L349.677 95.4295L351.449 93.6552L349.677 90.9406L348.862 91.189C348.782 91.2137 348.703 91.2433 348.627 91.2777L347.905 91.6059Z" fill="white"/>
<path opacity="0.05" d="M356.845 91.606L355.059 95.6158L353.287 93.846L355.108 90.985L356.845 91.606Z" fill="black"/>
<path d="M356.783 91.4197L355.011 95.4118L353.239 93.6375L355.059 90.7765L355.392 90.8741C355.752 90.9772 356.106 91.1031 356.451 91.2511L356.783 91.4197Z" fill="white"/>
<path d="M351.321 93.5178L352.313 94.9638L353.358 93.5178H351.321Z" fill="#FDA57D"/>
<path opacity="0.1" d="M345.792 98.7563C345.792 98.7563 344.738 109.264 345.42 109.948L345.792 98.7563Z" fill="black"/>
<path opacity="0.1" d="M358.834 98.7563C358.834 98.7563 359.888 109.264 359.206 109.948L358.834 98.7563Z" fill="black"/>
<path opacity="0.05" d="M352.34 90.2975C353.283 90.2976 354.202 89.9961 354.962 89.437C354.862 88.8125 354.543 88.244 354.063 87.8336C353.582 87.4231 352.971 87.1974 352.34 87.1969C351.708 87.1974 351.097 87.4231 350.616 87.8336C350.136 88.244 349.817 88.8125 349.717 89.437C350.477 89.9961 351.396 90.2976 352.34 90.2975Z" fill="black"/>
<path d="M352.339 89.3394C355.229 89.3394 357.571 86.994 357.571 84.1008C357.571 81.2076 355.229 78.8622 352.339 78.8622C349.45 78.8622 347.108 81.2076 347.108 84.1008C347.108 86.994 349.45 89.3394 352.339 89.3394Z" fill="black"/>
<path d="M352.34 90.1733C354.784 90.1733 356.765 88.1893 356.765 85.742C356.765 83.2947 354.784 81.3107 352.34 81.3107C349.895 81.3107 347.914 83.2947 347.914 85.742C347.914 88.1893 349.895 90.1733 352.34 90.1733Z" fill="#FDA57D"/>
<path opacity="0.05" d="M348.773 81.3507L349.89 82.7169C349.89 82.7169 354.794 83.1604 355.352 82.0338C355.91 80.9071 352.122 80.1042 352.122 80.1042L348.773 81.3507Z" fill="black"/>
<path d="M348.773 81.2265L349.89 82.5927C349.89 82.5927 354.794 83.0362 355.352 81.9096C355.91 80.7829 352.122 79.98 352.122 79.98L348.773 81.2265Z" fill="black"/>
<path d="M347.905 86.0126C348.076 86.0126 348.215 85.7623 348.215 85.4537C348.215 85.145 348.076 84.8948 347.905 84.8948C347.734 84.8948 347.595 85.145 347.595 85.4537C347.595 85.7623 347.734 86.0126 347.905 86.0126Z" fill="#FDA57D"/>
<path d="M356.783 86.0126C356.954 86.0126 357.093 85.7623 357.093 85.4537C357.093 85.145 356.954 84.8948 356.783 84.8948C356.612 84.8948 356.473 85.145 356.473 85.4537C356.473 85.7623 356.612 86.0126 356.783 86.0126Z" fill="#FDA57D"/>
<path d="M372.859 121.582H333.902V162.542H372.859V121.582Z" fill="url(#paint7_linear)"/>
<path d="M371.167 123.361H335.594V160.758H371.167V123.361Z" fill="#95A1B2"/>
<g opacity="0.5">
<path opacity="0.5" d="M356.07 140.212V138.837C356.07 138.771 356.07 138.7 356.07 138.633C356.823 138.068 357.398 137.298 357.726 136.415C358.271 135.708 358.645 134.884 358.819 134.007C358.992 133.131 358.961 132.226 358.727 131.364C358.493 130.501 358.063 129.705 357.471 129.037C356.878 128.369 356.139 127.847 355.312 127.513C355.375 127.232 355.376 126.94 355.314 126.658C355.253 126.376 355.13 126.112 354.955 125.883C354.78 125.654 354.557 125.466 354.301 125.333C354.046 125.2 353.764 125.125 353.476 125.112C353.189 125.1 352.902 125.151 352.636 125.262C352.37 125.373 352.132 125.542 351.938 125.755C351.744 125.968 351.6 126.221 351.514 126.497C351.429 126.772 351.405 127.063 351.445 127.349C350.552 127.624 349.739 128.112 349.075 128.77C348.411 129.429 347.917 130.239 347.635 131.13C347.352 132.022 347.289 132.969 347.452 133.89C347.615 134.811 347.998 135.679 348.57 136.42C348.898 137.303 349.473 138.073 350.226 138.638C350.226 138.704 350.226 138.771 350.226 138.842V140.297C347.753 140.771 345.521 142.094 343.915 144.036C342.309 145.979 341.428 148.42 341.424 150.942V162.613H365.39V150.96C365.39 148.345 364.446 145.818 362.734 143.844C361.022 141.869 358.655 140.58 356.07 140.212Z" fill="url(#paint8_linear)"/>
</g>
<path d="M352.694 140.461H354.067C355.401 140.461 356.722 140.724 357.955 141.235C359.187 141.746 360.307 142.495 361.25 143.44C362.193 144.384 362.942 145.505 363.452 146.739C363.963 147.973 364.225 149.296 364.225 150.632V160.834H342.518V150.632C342.518 147.934 343.588 145.347 345.493 143.44C347.398 141.532 349.982 140.461 352.676 140.461H352.694Z" fill="white"/>
<path d="M353.323 136.917H352.991C351.616 136.917 350.501 138.033 350.501 139.409V141.073C350.501 142.45 351.616 143.566 352.991 143.566H353.323C354.698 143.566 355.813 142.45 355.813 141.073V139.409C355.813 138.033 354.698 136.917 353.323 136.917Z" fill="#FDB797"/>
<path d="M352.14 143.362L353.132 144.808L354.174 143.362H352.14Z" fill="#FDB797"/>
<path opacity="0.1" d="M346.612 148.596C346.612 148.596 345.557 159.104 346.239 159.787L346.612 148.596Z" fill="black"/>
<path opacity="0.1" d="M359.653 148.596C359.653 148.596 360.708 159.104 360.026 159.787L359.653 148.596Z" fill="black"/>
<path opacity="0.05" d="M353.177 140.141C354.12 140.141 355.039 139.84 355.799 139.281C355.699 138.656 355.38 138.088 354.9 137.677C354.419 137.267 353.808 137.041 353.177 137.041C352.539 137.033 351.92 137.255 351.432 137.666C350.944 138.077 350.62 138.65 350.519 139.281C351.289 139.847 352.221 140.149 353.177 140.141Z" fill="black"/>
<path d="M353.159 139.183C356.048 139.183 358.391 136.838 358.391 133.945C358.391 131.052 356.048 128.706 353.159 128.706C350.27 128.706 347.927 131.052 347.927 133.945C347.927 136.838 350.27 139.183 353.159 139.183Z" fill="#FDD835"/>
<path d="M353.159 140.017C355.603 140.017 357.585 138.033 357.585 135.586C357.585 133.139 355.603 131.155 353.159 131.155C350.715 131.155 348.734 133.139 348.734 135.586C348.734 138.033 350.715 140.017 353.159 140.017Z" fill="#FDB797"/>
<path d="M348.72 135.856C348.891 135.856 349.03 135.606 349.03 135.298C349.03 134.989 348.891 134.739 348.72 134.739C348.549 134.739 348.41 134.989 348.41 135.298C348.41 135.606 348.549 135.856 348.72 135.856Z" fill="#FDB797"/>
<path d="M357.602 135.856C357.774 135.856 357.912 135.606 357.912 135.298C357.912 134.989 357.774 134.739 357.602 134.739C357.431 134.739 357.292 134.989 357.292 135.298C357.292 135.606 357.431 135.856 357.602 135.856Z" fill="#FDB797"/>
<path d="M353.381 130.485C354.362 130.485 355.157 129.689 355.157 128.706C355.157 127.724 354.362 126.927 353.381 126.927C352.4 126.927 351.604 127.724 351.604 128.706C351.604 129.689 352.4 130.485 353.381 130.485Z" fill="#FDD835"/>
<path d="M349.823 130.485C349.823 130.485 351.595 134.033 356.938 132.259L355.166 130.485H349.823Z" fill="#FDD835"/>
<path d="M287.059 79.0795H189.165V83.3422H287.059V79.0795Z" fill="white"/>
<path d="M287.059 87.6006H189.165V91.8633H287.059V87.6006Z" fill="white"/>
<path d="M244.496 96.1259H189.165V100.389H244.496V96.1259Z" fill="white"/>
<path d="M270.035 104.647H189.165V108.91H270.035V104.647Z" fill="white"/>
<path d="M257.263 113.172H189.165V117.435H257.263V113.172Z" fill="white"/>
<path d="M287.059 121.693H189.165V125.956H287.059V121.693Z" fill="white"/>
<path d="M278.545 134.481H193.422V168.574H278.545V134.481Z" fill="white"/>
<path d="M61.4794 270.857H14.6588V15.1523H291.316V36.4614" stroke="#3AD29F" stroke-width="6" stroke-miterlimit="10" stroke-dasharray="12 12"/>
<g opacity="0.5">
<path opacity="0.5" d="M16.0809 32.2031C24.9621 32.2031 32.1617 24.9942 32.1617 16.1016C32.1617 7.20892 24.9621 0 16.0809 0C7.19965 0 0 7.20892 0 16.1016C0 24.9942 7.19965 32.2031 16.0809 32.2031Z" fill="url(#paint9_linear)"/>
</g>
<path d="M16.0809 31.2539C24.4385 31.2539 31.2137 24.47 31.2137 16.1016C31.2137 7.73315 24.4385 0.949219 16.0809 0.949219C7.72324 0.949219 0.948029 7.73315 0.948029 16.1016C0.948029 24.47 7.72324 31.2539 16.0809 31.2539Z" fill="#69F0AE"/>
<path d="M10.4061 15.1523L16.0809 20.3598L24.1169 8.52094L26.9565 10.8896L16.0809 25.0971L8.04044 16.1015L10.4061 15.1523Z" fill="white"/>
<path d="M187.96 147.278L80.391 147.428C76.1902 147.434 72.7895 150.849 72.7953 155.055L73.0399 330.398C73.0457 334.604 76.4559 338.009 80.6568 338.003L188.226 337.853C192.427 337.847 195.827 334.432 195.821 330.226L195.577 154.883C195.571 150.677 192.161 147.272 187.96 147.278Z" fill="url(#paint10_linear)"/>
<path d="M187.431 161.837L81.3992 161.985L81.6221 321.825L187.654 321.677L187.431 161.837Z" fill="url(#paint11_linear)"/>
<path d="M186.219 150.159L82.1405 150.305C79.0382 150.309 76.5268 152.831 76.5311 155.937L76.7689 326.485C76.7733 329.591 79.2917 332.106 82.394 332.101L186.472 331.956C189.574 331.952 192.086 329.43 192.082 326.324L191.844 155.776C191.839 152.669 189.321 150.155 186.219 150.159Z" fill="white"/>
<path d="M184.196 164.055L84.6141 164.194L84.8267 316.675L184.408 316.536L184.196 164.055Z" fill="#E6E6E6"/>
<path d="M134.402 328.663C136.667 328.663 138.504 326.778 138.504 324.453C138.504 322.129 136.667 320.244 134.402 320.244C132.136 320.244 130.299 322.129 130.299 324.453C130.299 326.778 132.136 328.663 134.402 328.663Z" fill="#DBDBDB"/>
<path d="M117.167 158.954C117.923 158.953 118.535 158.325 118.534 157.551C118.533 156.776 117.919 156.15 117.163 156.151C116.407 156.152 115.795 156.78 115.796 157.554C115.798 158.329 116.411 158.955 117.167 158.954Z" fill="#DBDBDB"/>
<path d="M141.449 156.676L124.341 156.7C124.155 156.7 124.004 156.851 124.004 157.037L124.005 157.765C124.006 157.951 124.157 158.102 124.343 158.101L141.451 158.077C141.637 158.077 141.788 157.926 141.787 157.74L141.786 157.012C141.786 156.826 141.635 156.675 141.449 156.676Z" fill="#DBDBDB"/>
<path d="M172.867 258.069H133.91V299.028H172.867V258.069Z" fill="url(#paint12_linear)"/>
<path d="M171.175 259.852H135.602V297.249H171.175V259.852Z" fill="#95A1B2"/>
<g opacity="0.5">
<path opacity="0.5" d="M156.414 276.486L155.971 276.326L155.945 276.366H155.918V275.16C155.918 275.011 155.906 274.863 155.883 274.716C156.6 274.187 157.15 273.461 157.464 272.627C158.085 271.821 158.467 270.858 158.569 269.846C158.67 268.834 158.487 267.814 158.039 266.901C157.59 265.989 156.896 265.22 156.034 264.682C155.172 264.145 154.176 263.86 153.16 263.86C152.145 263.86 151.149 264.145 150.287 264.682C149.425 265.22 148.73 265.989 148.282 266.901C147.834 267.814 147.65 268.834 147.752 269.846C147.854 270.858 148.236 271.821 148.857 272.627C149.171 273.461 149.72 274.187 150.438 274.716C150.415 274.863 150.403 275.011 150.403 275.16V276.49C148.026 277.147 145.929 278.567 144.435 280.532C142.941 282.496 142.132 284.897 142.132 287.367V297.263H164.658V287.349C164.657 284.885 163.85 282.49 162.362 280.528C160.873 278.567 158.784 277.147 156.414 276.486Z" fill="url(#paint13_linear)"/>
</g>
<path d="M152.702 276.237H154.075C156.769 276.237 159.353 277.309 161.258 279.216C163.163 281.124 164.233 283.711 164.233 286.408V296.611H142.526V286.408C142.526 285.071 142.79 283.747 143.301 282.512C143.813 281.277 144.563 280.155 145.508 279.21C146.453 278.265 147.575 277.517 148.809 277.007C150.044 276.496 151.366 276.235 152.702 276.237Z" fill="#3AD29F"/>
<path d="M153.335 272.693H153.003C151.628 272.693 150.513 273.809 150.513 275.186V276.85C150.513 278.226 151.628 279.342 153.003 279.342H153.335C154.71 279.342 155.825 278.226 155.825 276.85V275.186C155.825 273.809 154.71 272.693 153.335 272.693Z" fill="#BE7C5E"/>
<path d="M152.148 279.138L153.14 280.584L154.186 279.138H152.148Z" fill="#BE7C5E"/>
<path opacity="0.1" d="M146.62 284.377C146.62 284.377 145.565 294.885 146.247 295.568L146.62 284.377Z" fill="black"/>
<path opacity="0.1" d="M159.661 284.377C159.661 284.377 160.716 294.885 160.034 295.568L159.661 284.377Z" fill="black"/>
<path opacity="0.05" d="M153.167 275.9C154.11 275.9 155.029 275.599 155.79 275.04C155.69 274.415 155.371 273.847 154.89 273.436C154.41 273.026 153.799 272.8 153.167 272.8C152.535 272.8 151.924 273.026 151.444 273.436C150.963 273.847 150.644 274.415 150.544 275.04C151.305 275.599 152.224 275.9 153.167 275.9Z" fill="black"/>
<path d="M153.167 274.96C156.056 274.96 158.399 272.615 158.399 269.721C158.399 266.828 156.056 264.483 153.167 264.483C150.278 264.483 147.935 266.828 147.935 269.721C147.935 272.615 150.278 274.96 153.167 274.96Z" fill="#444444"/>
<path d="M153.167 275.794C155.611 275.794 157.593 273.81 157.593 271.363C157.593 268.915 155.611 266.931 153.167 266.931C150.723 266.931 148.741 268.915 148.741 271.363C148.741 273.81 150.723 275.794 153.167 275.794Z" fill="#BE7C5E"/>
<path opacity="0.05" d="M149.601 266.971L150.717 268.337C150.717 268.337 155.621 268.781 156.179 267.654C156.738 266.528 152.95 265.725 152.95 265.725L149.601 266.971Z" fill="black"/>
<path d="M149.601 266.847L150.717 268.213C150.717 268.213 155.621 268.657 156.179 267.53C156.738 266.403 152.95 265.601 152.95 265.601L149.601 266.847Z" fill="#444444"/>
<path d="M148.733 271.633C148.904 271.633 149.043 271.383 149.043 271.074C149.043 270.766 148.904 270.515 148.733 270.515C148.561 270.515 148.422 270.766 148.422 271.074C148.422 271.383 148.561 271.633 148.733 271.633Z" fill="#BE7C5E"/>
<path d="M157.61 271.633C157.782 271.633 157.92 271.383 157.92 271.074C157.92 270.766 157.782 270.515 157.61 270.515C157.439 270.515 157.3 270.766 157.3 271.074C157.3 271.383 157.439 271.633 157.61 271.633Z" fill="#BE7C5E"/>
<path d="M149.707 264.851C150.054 264.408 150.531 264.087 151.072 263.933C152.051 263.542 153.07 263.143 154.119 263.214C154.222 263.213 154.322 263.242 154.407 263.298C154.478 263.373 154.536 263.459 154.58 263.551C154.899 264.026 155.794 263.995 155.909 264.554C155.94 264.736 155.865 264.931 155.909 265.108C156.024 265.552 156.649 265.507 157.017 265.76C157.213 265.937 157.331 266.184 157.348 266.447C157.365 266.711 157.277 266.971 157.105 267.171C156.741 267.558 156.269 267.827 155.75 267.943C154.839 268.292 153.85 268.38 152.892 268.195C151.55 267.845 148.409 266.976 149.707 264.851Z" fill="#444444"/>
<path d="M132.997 257.625H94.0399V298.584H132.997V257.625Z" fill="url(#paint14_linear)"/>
<path d="M131.305 259.408H95.7322V296.806H131.305V259.408Z" fill="#95A1B2"/>
<g opacity="0.5">
<path opacity="0.5" d="M116.544 276.042L116.101 275.883L116.075 275.922H116.048V274.716C116.048 274.567 116.036 274.419 116.013 274.272C116.73 273.744 117.28 273.018 117.594 272.183C118.215 271.378 118.597 270.415 118.699 269.403C118.8 268.391 118.617 267.371 118.169 266.458C117.721 265.545 117.026 264.776 116.164 264.239C115.302 263.701 114.306 263.416 113.29 263.416C112.275 263.416 111.279 263.701 110.417 264.239C109.555 264.776 108.86 265.545 108.412 266.458C107.964 267.371 107.781 268.391 107.882 269.403C107.984 270.415 108.366 271.378 108.987 272.183C109.301 273.018 109.851 273.744 110.568 274.272C110.545 274.419 110.533 274.567 110.533 274.716V276.047C108.156 276.704 106.059 278.123 104.565 280.088C103.071 282.053 102.262 284.454 102.262 286.923V296.819H124.788V286.905C124.787 284.442 123.98 282.046 122.492 280.085C121.003 278.123 118.914 276.704 116.544 276.042Z" fill="url(#paint15_linear)"/>
</g>
<path d="M112.832 275.794H114.205C115.539 275.794 116.86 276.057 118.093 276.568C119.325 277.079 120.445 277.828 121.388 278.773C122.331 279.717 123.08 280.839 123.59 282.073C124.101 283.307 124.363 284.629 124.363 285.965V296.167H102.656V285.965C102.656 284.628 102.92 283.304 103.431 282.068C103.943 280.833 104.693 279.711 105.638 278.767C106.583 277.822 107.705 277.073 108.939 276.563C110.174 276.053 111.497 275.792 112.832 275.794Z" fill="#514ABF"/>
<path d="M113.465 272.25H113.133C111.758 272.25 110.643 273.366 110.643 274.743V276.406C110.643 277.783 111.758 278.899 113.133 278.899H113.465C114.84 278.899 115.955 277.783 115.955 276.406V274.743C115.955 273.366 114.84 272.25 113.465 272.25Z" fill="#FDA57D"/>
<path opacity="0.1" d="M106.75 283.933C106.75 283.933 105.695 294.441 106.377 295.125L106.75 283.933Z" fill="black"/>
<path opacity="0.1" d="M119.791 283.933C119.791 283.933 120.846 294.441 120.164 295.125L119.791 283.933Z" fill="black"/>
<path opacity="0.05" d="M113.297 275.457C114.24 275.457 115.159 275.155 115.92 274.596C115.82 273.972 115.501 273.403 115.02 272.993C114.54 272.582 113.929 272.357 113.297 272.356C112.665 272.357 112.055 272.582 111.574 272.993C111.093 273.403 110.775 273.972 110.674 274.596C111.435 275.155 112.354 275.457 113.297 275.457Z" fill="black"/>
<path d="M113.297 274.516C116.187 274.516 118.529 272.171 118.529 269.278C118.529 266.385 116.187 264.039 113.297 264.039C110.408 264.039 108.065 266.385 108.065 269.278C108.065 272.171 110.408 274.516 113.297 274.516Z" fill="#444444"/>
<path d="M113.297 275.35C115.741 275.35 117.723 273.366 117.723 270.919C117.723 268.472 115.741 266.488 113.297 266.488C110.853 266.488 108.871 268.472 108.871 270.919C108.871 273.366 110.853 275.35 113.297 275.35Z" fill="#FDA57D"/>
<path opacity="0.05" d="M109.731 266.528L110.847 267.894C110.847 267.894 115.751 268.337 116.31 267.211C116.868 266.084 113.08 265.281 113.08 265.281L109.731 266.528Z" fill="black"/>
<path d="M109.731 266.403L110.847 267.77C110.847 267.77 115.751 268.213 116.31 267.087C116.868 265.96 113.08 265.157 113.08 265.157L109.731 266.403Z" fill="#444444"/>
<path d="M108.863 271.19C109.034 271.19 109.173 270.939 109.173 270.631C109.173 270.322 109.034 270.072 108.863 270.072C108.691 270.072 108.553 270.322 108.553 270.631C108.553 270.939 108.691 271.19 108.863 271.19Z" fill="#FDA57D"/>
<path d="M117.74 271.19C117.912 271.19 118.05 270.939 118.05 270.631C118.05 270.322 117.912 270.072 117.74 270.072C117.569 270.072 117.43 270.322 117.43 270.631C117.43 270.939 117.569 271.19 117.74 271.19Z" fill="#FDA57D"/>
<path d="M167.883 183.562H95.5284V186.712H167.883V183.562Z" fill="white"/>
<path d="M167.883 189.861H95.5284V193.01H167.883V189.861Z" fill="white"/>
<path d="M136.426 196.16H95.5284V199.309H136.426V196.16Z" fill="white"/>
<path d="M155.302 202.463H95.5284V205.612H155.302V202.463Z" fill="white"/>
<path d="M145.862 208.762H95.5284V211.911H145.862V208.762Z" fill="white"/>
<path d="M167.883 215.06H95.5284V218.21H167.883V215.06Z" fill="white"/>
<path d="M161.593 224.513H98.6736V249.712H161.593V224.513Z" fill="white"/>
<path d="M110.223 269.247C110.446 268.851 110.631 268.435 110.776 268.005C111.012 267.495 111.383 267.06 111.85 266.748C112.316 266.436 112.86 266.259 113.42 266.237C113.981 266.215 114.537 266.349 115.026 266.623C115.516 266.897 115.92 267.302 116.194 267.792C116.558 268.444 116.677 269.216 117.08 269.846C117.138 269.888 117.203 269.919 117.273 269.936C117.342 269.952 117.414 269.954 117.485 269.941C117.555 269.928 117.622 269.901 117.681 269.86C117.74 269.82 117.791 269.769 117.829 269.708C117.899 269.58 117.94 269.438 117.948 269.292C117.957 269.146 117.932 269.001 117.878 268.865C117.785 268.59 117.63 268.337 117.528 268.067C117.426 267.626 117.278 267.198 117.085 266.789C116.848 266.48 116.545 266.227 116.199 266.049C115.22 265.445 114.086 264.82 112.978 265.161C112.604 265.289 112.251 265.47 111.928 265.698L110.519 266.585C110.067 266.839 109.662 267.171 109.323 267.566C109.018 267.965 108.437 269.158 108.708 269.673C109.027 270.258 109.944 269.615 110.223 269.247Z" fill="#444444"/>
<path d="M112.185 278.562V296.185H114.786L114.4 278.562H112.185Z" fill="white"/>
<path d="M111.751 278.322L113.257 280.518L114.843 278.322H111.751Z" fill="#FDA57D"/>
</g>
<defs>
<linearGradient id="paint0_linear" x1="70.1888" y1="209.224" x2="70.1888" y2="88.2145" gradientUnits="userSpaceOnUse">
<stop stop-color="#808080" stop-opacity="0.25"/>
<stop offset="0.54" stop-color="#808080" stop-opacity="0.12"/>
<stop offset="1" stop-color="#808080" stop-opacity="0.1"/>
</linearGradient>
<linearGradient id="paint1_linear" x1="4454.12" y1="12055.7" x2="4454.12" y2="10149.2" gradientUnits="userSpaceOnUse">
<stop stop-color="#808080" stop-opacity="0.25"/>
<stop offset="0.54" stop-color="#808080" stop-opacity="0.12"/>
<stop offset="1" stop-color="#808080" stop-opacity="0.1"/>
</linearGradient>
<linearGradient id="paint2_linear" x1="5190.01" y1="12222.1" x2="5190.01" y2="10787.6" gradientUnits="userSpaceOnUse">
<stop stop-color="#808080" stop-opacity="0.25"/>
<stop offset="0.54" stop-color="#808080" stop-opacity="0.12"/>
<stop offset="1" stop-color="#808080" stop-opacity="0.1"/>
</linearGradient>
<linearGradient id="paint3_linear" x1="115744" y1="6183.19" x2="115743" y2="5999.95" gradientUnits="userSpaceOnUse">
<stop stop-color="#808080" stop-opacity="0.25"/>
<stop offset="0.54" stop-color="#808080" stop-opacity="0.12"/>
<stop offset="1" stop-color="#808080" stop-opacity="0.1"/>
</linearGradient>
<linearGradient id="paint4_linear" x1="193916" y1="98955.4" x2="193916" y2="34245.8" gradientUnits="userSpaceOnUse">
<stop stop-color="#808080" stop-opacity="0.25"/>
<stop offset="0.54" stop-color="#808080" stop-opacity="0.12"/>
<stop offset="1" stop-color="#808080" stop-opacity="0.1"/>
</linearGradient>
<linearGradient id="paint5_linear" x1="31390.1" y1="10544.5" x2="31390.1" y2="6762.32" gradientUnits="userSpaceOnUse">
<stop stop-color="#808080" stop-opacity="0.25"/>
<stop offset="0.54" stop-color="#808080" stop-opacity="0.12"/>
<stop offset="1" stop-color="#808080" stop-opacity="0.1"/>
</linearGradient>
<linearGradient id="paint6_linear" x1="20869.6" y1="9531.92" x2="22013.9" y2="9531.92" gradientUnits="userSpaceOnUse">
<stop stop-color="#808080" stop-opacity="0.25"/>
<stop offset="0.54" stop-color="#808080" stop-opacity="0.12"/>
<stop offset="1" stop-color="#808080" stop-opacity="0.1"/>
</linearGradient>
<linearGradient id="paint7_linear" x1="31410.2" y1="15130.7" x2="31410.2" y2="11348.5" gradientUnits="userSpaceOnUse">
<stop stop-color="#808080" stop-opacity="0.25"/>
<stop offset="0.54" stop-color="#808080" stop-opacity="0.12"/>
<stop offset="1" stop-color="#808080" stop-opacity="0.1"/>
</linearGradient>
<linearGradient id="paint8_linear" x1="22856.8" y1="16462.4" x2="22856.8" y2="13293.1" gradientUnits="userSpaceOnUse">
<stop stop-color="#808080" stop-opacity="0.25"/>
<stop offset="0.54" stop-color="#808080" stop-opacity="0.12"/>
<stop offset="1" stop-color="#808080" stop-opacity="0.1"/>
</linearGradient>
<linearGradient id="paint9_linear" x1="1167.47" y1="2337.63" x2="1167.47" y2="0" gradientUnits="userSpaceOnUse">
<stop stop-color="#808080" stop-opacity="0.25"/>
<stop offset="0.54" stop-color="#808080" stop-opacity="0.12"/>
<stop offset="1" stop-color="#808080" stop-opacity="0.1"/>
</linearGradient>
<linearGradient id="paint10_linear" x1="54899.9" y1="161286" x2="54784.9" y2="79033.4" gradientUnits="userSpaceOnUse">
<stop stop-color="#808080" stop-opacity="0.25"/>
<stop offset="0.54" stop-color="#808080" stop-opacity="0.12"/>
<stop offset="1" stop-color="#808080" stop-opacity="0.1"/>
</linearGradient>
<linearGradient id="paint11_linear" x1="134.647" y1="323.374" x2="134.422" y2="162.798" gradientUnits="userSpaceOnUse">
<stop stop-opacity="0.09"/>
<stop offset="0.55" stop-opacity="0.07"/>
<stop offset="1" stop-opacity="0.02"/>
</linearGradient>
<linearGradient id="paint12_linear" x1="13622.9" y1="27870.3" x2="13622.9" y2="24088.1" gradientUnits="userSpaceOnUse">
<stop stop-color="#808080" stop-opacity="0.25"/>
<stop offset="0.54" stop-color="#808080" stop-opacity="0.12"/>
<stop offset="1" stop-color="#808080" stop-opacity="0.1"/>
</linearGradient>
<linearGradient id="paint13_linear" x1="10562.7" y1="23695.7" x2="11708.2" y2="23695.7" gradientUnits="userSpaceOnUse">
<stop stop-color="#808080" stop-opacity="0.25"/>
<stop offset="0.54" stop-color="#808080" stop-opacity="0.12"/>
<stop offset="1" stop-color="#808080" stop-opacity="0.1"/>
</linearGradient>
<linearGradient id="paint14_linear" x1="10076.9" y1="27828.9" x2="10076.9" y2="24046.7" gradientUnits="userSpaceOnUse">
<stop stop-color="#808080" stop-opacity="0.25"/>
<stop offset="0.54" stop-color="#808080" stop-opacity="0.12"/>
<stop offset="1" stop-color="#808080" stop-opacity="0.1"/>
</linearGradient>
<linearGradient id="paint15_linear" x1="8495.42" y1="23661.8" x2="9640.89" y2="23661.8" gradientUnits="userSpaceOnUse">
<stop stop-color="#808080" stop-opacity="0.25"/>
<stop offset="0.54" stop-color="#808080" stop-opacity="0.12"/>
<stop offset="1" stop-color="#808080" stop-opacity="0.1"/>
</linearGradient>
<clipPath id="clip0">
<rect width="406" height="338" fill="white"/>
</clipPath>
</defs>
</svg>
