<svg width="387" height="416" viewBox="0 0 387 416" fill="none" xmlns="http://www.w3.org/2000/svg">
<path d="M245.486 236.025L78.1997 279.06C72.5251 280.513 66.5054 279.658 61.4611 276.683C56.4168 273.707 52.7599 268.855 51.2926 263.189L0.700933 66.9183C-0.753493 61.2493 0.102355 55.2355 3.08072 50.1962C6.05909 45.1568 10.9167 41.5035 16.588 40.0377L172.22 0L212.055 17.8151L261.373 209.144C262.827 214.813 261.971 220.827 258.993 225.866C256.015 230.906 251.157 234.559 245.486 236.025Z" fill="#F2F2F2"/>
<path d="M18.1738 46.1914C14.1352 47.2352 10.6759 49.8369 8.55499 53.4255C6.43402 57.0141 5.82456 61.2967 6.86029 65.3337L57.452 261.604C58.4968 265.639 61.101 269.095 64.6931 271.214C68.2853 273.333 72.5721 273.941 76.613 272.907L243.899 229.871C247.938 228.827 251.397 226.226 253.518 222.637C255.639 219.048 256.248 214.766 255.213 210.729L206.659 22.3643L171.651 6.70801L18.1738 46.1914Z" fill="white"/>
<path d="M211.629 18.8277L185.74 25.488C183.85 25.9742 181.844 25.6905 180.163 24.6991C178.482 23.7078 177.265 22.0901 176.778 20.202L171.854 1.09895C171.833 1.01532 171.835 0.92731 171.861 0.845017C171.887 0.762724 171.936 0.68948 172.002 0.633682C172.068 0.577884 172.149 0.541792 172.234 0.529546C172.32 0.5173 172.407 0.529393 172.486 0.564442L211.701 17.9628C211.789 18.0015 211.862 18.0664 211.91 18.1485C211.959 18.2305 211.981 18.3257 211.973 18.4207C211.965 18.5158 211.928 18.6061 211.866 18.679C211.805 18.7519 211.722 18.8039 211.629 18.8277Z" fill="#F2F2F2"/>
<path d="M198.009 186.439L121.846 206.032C121.378 206.153 120.891 206.18 120.413 206.112C119.934 206.044 119.474 205.883 119.058 205.638C118.642 205.392 118.278 205.067 117.988 204.682C117.697 204.296 117.486 203.857 117.365 203.389C117.245 202.922 117.218 202.435 117.285 201.957C117.353 201.479 117.514 201.019 117.76 200.604C118.006 200.188 118.331 199.825 118.717 199.535C119.103 199.244 119.543 199.033 120.011 198.913L196.174 179.319C196.642 179.199 197.129 179.172 197.607 179.239C198.086 179.307 198.546 179.468 198.962 179.714C199.378 179.959 199.742 180.284 200.032 180.67C200.323 181.056 200.534 181.495 200.655 181.962C200.775 182.43 200.802 182.916 200.735 183.394C200.667 183.872 200.505 184.332 200.26 184.748C200.014 185.163 199.689 185.527 199.303 185.817C198.917 186.107 198.477 186.318 198.009 186.439Z" fill="#CCCCCC"/>
<path d="M215.804 194.671L124.943 218.046C123.998 218.289 122.995 218.147 122.155 217.652C121.314 217.156 120.705 216.347 120.462 215.403C120.219 214.459 120.361 213.457 120.857 212.617C121.353 211.778 122.163 211.17 123.108 210.927L213.969 187.552C214.913 187.31 215.916 187.452 216.755 187.948C217.595 188.444 218.203 189.252 218.446 190.196C218.69 191.139 218.548 192.141 218.052 192.98C217.557 193.819 216.748 194.427 215.804 194.671Z" fill="#CCCCCC"/>
<path d="M90.7606 229.631C97.9429 229.631 103.765 223.814 103.765 216.639C103.765 209.463 97.9429 203.647 90.7606 203.647C83.5783 203.647 77.7559 209.463 77.7559 216.639C77.7559 223.814 83.5783 229.631 90.7606 229.631Z" fill="#E6E6E6"/>
<path d="M189.911 152.438L88.7587 178.45C85.8353 179.199 82.7343 178.758 80.1359 177.225C77.5374 175.692 75.6538 173.192 74.8982 170.273L53.7005 88.0056C52.9515 85.0852 53.3926 81.9872 54.9272 79.3913C56.4617 76.7954 58.9643 74.9136 61.886 74.1588L163.038 48.1463C165.961 47.398 169.062 47.8388 171.661 49.3718C174.259 50.9048 176.143 53.405 176.898 56.3237L198.096 138.591C198.845 141.511 198.404 144.609 196.869 147.205C195.335 149.801 192.832 151.683 189.911 152.438Z" fill="white"/>
<path d="M189.911 152.438L88.7587 178.45C85.8353 179.199 82.7343 178.758 80.1359 177.225C77.5374 175.692 75.6538 173.192 74.8982 170.273L53.7005 88.0056C52.9515 85.0852 53.3926 81.9872 54.9272 79.3913C56.4617 76.7954 58.9643 74.9136 61.886 74.1588L163.038 48.1463C165.961 47.398 169.062 47.8388 171.661 49.3718C174.259 50.9048 176.143 53.405 176.898 56.3237L198.096 138.591C198.845 141.511 198.404 144.609 196.869 147.205C195.335 149.801 192.832 151.683 189.911 152.438ZM62.2198 75.4543C59.6419 76.1204 57.4337 77.7808 56.0797 80.0713C54.7257 82.3618 54.3364 85.0953 54.9973 87.6722L76.195 169.939C76.8617 172.515 78.5238 174.721 80.8165 176.073C83.1092 177.426 85.8455 177.815 88.4249 177.155L189.577 151.142C192.155 150.476 194.363 148.816 195.717 146.525C197.071 144.235 197.46 141.501 196.799 138.924L175.602 56.6572C174.935 54.0819 173.273 51.8759 170.98 50.5232C168.687 49.1705 165.951 48.7816 163.372 49.4418L62.2198 75.4543Z" fill="#E6E6E6"/>
<path d="M157.906 75.8078L106.856 88.936C106.41 89.0605 105.933 89.011 105.522 88.7976C105.111 88.5843 104.796 88.2228 104.641 87.7865C104.569 87.5585 104.544 87.3183 104.568 87.0805C104.592 86.8427 104.665 86.6122 104.781 86.4032C104.897 86.1942 105.054 86.011 105.244 85.8648C105.433 85.7186 105.65 85.6125 105.882 85.5529L157.848 72.1892C159.947 73.2518 159.394 75.4252 157.906 75.808L157.906 75.8078Z" fill="#F2F2F2"/>
<path d="M160.211 84.7534L109.161 97.8815C108.715 98.006 108.238 97.9566 107.827 97.7432C107.416 97.5298 107.101 97.1684 106.946 96.732C106.874 96.5041 106.849 96.2639 106.873 96.026C106.897 95.7882 106.97 95.5578 107.086 95.3488C107.202 95.1397 107.359 94.9565 107.549 94.8103C107.738 94.6641 107.955 94.558 108.187 94.4984L160.153 81.1348C162.252 82.1974 161.699 84.3707 160.211 84.7535L160.211 84.7534Z" fill="#F2F2F2"/>
<path d="M99.4379 105.813L83.8579 109.82C83.3491 109.95 82.8093 109.873 82.357 109.606C81.9047 109.34 81.5768 108.904 81.4453 108.396L76.7126 90.0287C76.5821 89.5204 76.6589 88.9811 76.926 88.5293C77.1931 88.0774 77.6288 87.7499 78.1373 87.6186L93.7173 83.612C94.2261 83.4818 94.7659 83.5586 95.2181 83.8254C95.6704 84.0923 95.9983 84.5274 96.1299 85.0353L100.863 103.403C100.993 103.911 100.916 104.451 100.649 104.902C100.382 105.354 99.9465 105.682 99.4379 105.813V105.813Z" fill="#E6E6E6"/>
<path d="M164.783 103.108L86.8707 123.144C86.4244 123.269 85.9474 123.219 85.5362 123.006C85.125 122.792 84.8102 122.431 84.6555 121.995C84.5835 121.767 84.5587 121.526 84.5827 121.289C84.6067 121.051 84.679 120.82 84.795 120.611C84.9111 120.402 85.0686 120.219 85.2579 120.073C85.4472 119.927 85.6643 119.821 85.8961 119.761L164.724 99.4893C166.823 100.552 166.271 102.725 164.783 103.108L164.783 103.108Z" fill="#F2F2F2"/>
<path d="M167.088 112.056L89.1764 132.092C88.7301 132.217 88.2531 132.167 87.8419 131.954C87.4307 131.741 87.1159 131.379 86.9612 130.943C86.8892 130.715 86.8645 130.475 86.8885 130.237C86.9124 129.999 86.9847 129.768 87.1008 129.559C87.2169 129.35 87.3744 129.167 87.5637 129.021C87.753 128.875 87.9701 128.769 88.2018 128.709L167.03 108.438C169.129 109.5 168.577 111.673 167.088 112.056V112.056Z" fill="#F2F2F2"/>
<path d="M169.392 120.999L91.4806 141.035C91.0343 141.159 90.5573 141.11 90.1461 140.897C89.7349 140.683 89.4201 140.322 89.2654 139.885C89.1934 139.657 89.1687 139.417 89.1927 139.179C89.2166 138.942 89.2889 138.711 89.405 138.502C89.5211 138.293 89.6786 138.11 89.8679 137.964C90.0572 137.818 90.2743 137.711 90.506 137.652L169.334 117.38C171.433 118.443 170.881 120.616 169.392 120.999Z" fill="#F2F2F2"/>
<path d="M171.698 129.947L93.7862 149.983C93.3399 150.107 92.8629 150.058 92.4517 149.844C92.0405 149.631 91.7257 149.269 91.571 148.833C91.499 148.605 91.4742 148.365 91.4982 148.127C91.5222 147.889 91.5944 147.659 91.7105 147.45C91.8266 147.241 91.9841 147.058 92.1734 146.911C92.3627 146.765 92.5798 146.659 92.8115 146.6L171.64 126.328C173.739 127.39 173.187 129.564 171.698 129.947L171.698 129.947Z" fill="#F2F2F2"/>
<path d="M174.002 138.89L96.0905 158.926C95.6442 159.05 95.1672 159.001 94.756 158.787C94.3448 158.574 94.03 158.213 93.8753 157.776C93.8033 157.548 93.7785 157.308 93.8025 157.07C93.8265 156.832 93.8988 156.602 94.0148 156.393C94.1309 156.184 94.2884 156.001 94.4777 155.855C94.667 155.708 94.8841 155.602 95.1159 155.543L173.944 135.271C176.043 136.334 175.491 138.507 174.002 138.89Z" fill="#F2F2F2"/>
<path d="M91.7201 221.193C91.4369 221.266 91.1375 221.245 90.867 221.134L90.8503 221.127L87.3075 219.627C87.1431 219.557 86.994 219.456 86.8688 219.329C86.7436 219.202 86.6447 219.051 86.5778 218.886C86.5108 218.72 86.4772 218.543 86.4788 218.365C86.4804 218.187 86.5172 218.01 86.587 217.846C86.6569 217.682 86.7585 217.533 86.886 217.408C87.0134 217.283 87.1643 217.185 87.3299 217.118C87.4956 217.052 87.6727 217.018 87.8513 217.02C88.0298 217.022 88.2062 217.059 88.3704 217.129L90.666 218.105L93.6743 211.035C93.744 210.871 93.8454 210.723 93.9727 210.598C94.0999 210.473 94.2505 210.375 94.4159 210.308C94.5812 210.241 94.7581 210.208 94.9363 210.21C95.1146 210.211 95.2908 210.248 95.4549 210.318L95.4553 210.318L95.4373 210.364L95.4561 210.318C95.7872 210.459 96.0488 210.725 96.1834 211.059C96.318 211.393 96.3146 211.766 96.1741 212.097L92.6349 220.409C92.5529 220.601 92.4277 220.771 92.2692 220.907C92.1107 221.042 91.9231 221.139 91.7208 221.191L91.7201 221.193Z" fill="white"/>
<path d="M309.65 310.818H136.906C131.048 310.812 125.432 308.484 121.29 304.346C117.148 300.208 114.818 294.597 114.811 288.745V86.0712C114.818 80.219 117.148 74.6084 121.29 70.4702C125.432 66.3321 131.048 64.0044 136.906 63.9978H297.616L331.745 91.1741V288.745C331.738 294.597 329.408 300.208 325.266 304.346C321.124 308.484 315.508 310.812 309.65 310.818Z" fill="#E6E6E6"/>
<path d="M136.906 70.3523C132.734 70.357 128.735 72.0146 125.785 74.9614C122.836 77.9083 121.176 81.9037 121.172 86.0712V288.745C121.176 292.912 122.836 296.908 125.785 299.855C128.735 302.802 132.734 304.459 136.906 304.464H309.65C313.821 304.459 317.821 302.802 320.77 299.855C323.72 296.908 325.379 292.912 325.384 288.745V94.2354L295.391 70.3523H136.906Z" fill="white"/>
<path d="M276.051 129.284H197.403C196.427 129.284 195.492 128.897 194.802 128.208C194.112 127.518 193.724 126.583 193.724 125.608C193.724 124.634 194.112 123.699 194.802 123.009C195.492 122.32 196.427 121.933 197.403 121.933H276.051C277.027 121.933 277.963 122.32 278.653 123.009C279.343 123.699 279.73 124.634 279.73 125.608C279.73 126.583 279.343 127.518 278.653 128.208C277.963 128.897 277.027 129.284 276.051 129.284Z" fill="#6EA4F5"/>
<path d="M291.229 141.69H197.403C196.428 141.689 195.494 141.301 194.805 140.612C194.116 139.923 193.729 138.988 193.729 138.014C193.729 137.04 194.116 136.106 194.805 135.417C195.494 134.728 196.428 134.34 197.403 134.339H291.229C291.712 134.338 292.191 134.433 292.638 134.617C293.085 134.801 293.491 135.072 293.834 135.413C294.176 135.755 294.447 136.16 294.633 136.607C294.818 137.053 294.913 137.531 294.913 138.014C294.913 138.498 294.818 138.976 294.633 139.422C294.447 139.869 294.176 140.274 293.834 140.615C293.491 140.957 293.085 141.227 292.638 141.412C292.191 141.596 291.712 141.691 291.229 141.69Z" fill="#6EA4F5"/>
<path d="M276.052 177.527H197.406C196.431 177.527 195.495 177.914 194.805 178.604C194.115 179.293 193.727 180.228 193.727 181.203C193.727 182.177 194.115 183.112 194.805 183.802C195.495 184.491 196.431 184.878 197.406 184.878H276.052C277.027 184.878 277.963 184.491 278.653 183.802C279.343 183.112 279.731 182.177 279.731 181.203C279.731 180.228 279.343 179.293 278.653 178.604C277.963 177.914 277.027 177.527 276.052 177.527Z" fill="#CCCCCC"/>
<path d="M291.23 189.935H197.406C196.431 189.935 195.495 190.322 194.805 191.012C194.115 191.701 193.727 192.636 193.727 193.611C193.727 194.585 194.115 195.52 194.805 196.21C195.495 196.899 196.431 197.286 197.406 197.286H291.23C292.206 197.286 293.142 196.899 293.832 196.21C294.522 195.52 294.909 194.585 294.909 193.611C294.909 192.636 294.522 191.701 293.832 191.012C293.142 190.322 292.206 189.935 291.23 189.935Z" fill="#CCCCCC"/>
<path d="M276.051 240.478H197.403C196.427 240.478 195.492 240.09 194.802 239.401C194.112 238.712 193.724 237.777 193.724 236.802C193.724 235.827 194.112 234.892 194.802 234.203C195.492 233.513 196.427 233.126 197.403 233.126H276.051C277.027 233.126 277.963 233.513 278.653 234.203C279.343 234.892 279.73 235.827 279.73 236.802C279.73 237.777 279.343 238.712 278.653 239.401C277.963 240.09 277.027 240.478 276.051 240.478Z" fill="#CCCCCC"/>
<path d="M291.229 252.883H197.403C196.428 252.882 195.494 252.494 194.805 251.805C194.116 251.116 193.729 250.182 193.729 249.208C193.729 248.234 194.116 247.299 194.805 246.61C195.494 245.921 196.428 245.533 197.403 245.532H291.229C291.712 245.531 292.191 245.626 292.638 245.81C293.085 245.995 293.491 246.265 293.834 246.607C294.176 246.948 294.447 247.353 294.633 247.8C294.818 248.246 294.913 248.724 294.913 249.208C294.913 249.691 294.818 250.169 294.633 250.615C294.447 251.062 294.176 251.467 293.834 251.809C293.491 252.15 293.085 252.421 292.638 252.605C292.191 252.789 291.712 252.884 291.229 252.883Z" fill="#CCCCCC"/>
<path d="M164.652 144.803C171.835 144.803 177.657 138.987 177.657 131.812C177.657 124.636 171.835 118.82 164.652 118.82C157.47 118.82 151.648 124.636 151.648 131.812C151.648 138.987 157.47 144.803 164.652 144.803Z" fill="#6EA4F5"/>
<path d="M163.364 136.767C163.071 136.768 162.786 136.673 162.552 136.498L162.538 136.487L159.481 134.152C159.339 134.043 159.22 133.908 159.131 133.754C159.041 133.599 158.983 133.429 158.959 133.252C158.936 133.075 158.947 132.895 158.993 132.723C159.039 132.551 159.119 132.389 159.228 132.247C159.336 132.106 159.472 131.987 159.626 131.898C159.781 131.809 159.952 131.751 160.129 131.728C160.306 131.704 160.486 131.716 160.659 131.763C160.831 131.809 160.993 131.889 161.134 131.998L163.114 133.514L167.792 127.418C167.9 127.276 168.035 127.158 168.19 127.068C168.344 126.979 168.515 126.921 168.691 126.898C168.868 126.875 169.048 126.887 169.22 126.933C169.392 126.979 169.554 127.058 169.695 127.166L169.696 127.167L169.666 127.207L169.696 127.167C169.982 127.386 170.169 127.709 170.216 128.066C170.263 128.422 170.166 128.783 169.947 129.069L164.445 136.237C164.318 136.402 164.154 136.536 163.967 136.627C163.78 136.719 163.574 136.766 163.365 136.766L163.364 136.767Z" fill="white"/>
<path d="M178.994 187.407C178.994 189.113 178.659 190.803 178.005 192.38C177.352 193.956 176.395 195.389 175.187 196.596C173.98 197.803 172.546 198.76 170.968 199.413C169.39 200.067 167.699 200.403 165.991 200.403C165.879 200.406 165.768 200.401 165.656 200.39C163.099 200.324 160.618 199.507 158.524 198.04C156.43 196.573 154.815 194.521 153.882 192.142C152.949 189.763 152.739 187.161 153.278 184.663C153.818 182.165 155.083 179.882 156.915 178.099C158.747 176.315 161.064 175.111 163.578 174.637C166.091 174.163 168.689 174.44 171.046 175.434C173.402 176.428 175.413 178.093 176.827 180.223C178.241 182.353 178.995 184.851 178.994 187.407Z" fill="#CCCCCC"/>
<path d="M164.652 255.997C171.835 255.997 177.657 250.18 177.657 243.005C177.657 235.829 171.835 230.013 164.652 230.013C157.47 230.013 151.648 235.829 151.648 243.005C151.648 250.18 157.47 255.997 164.652 255.997Z" fill="#CCCCCC"/>
<path d="M331.08 92.0486H304.346C302.394 92.0486 300.523 91.274 299.143 89.8953C297.762 88.5166 296.987 86.6467 296.987 84.6969V64.9707C296.987 64.8843 297.012 64.7997 297.057 64.7266C297.103 64.6534 297.169 64.5947 297.247 64.5571C297.325 64.5195 297.412 64.5045 297.498 64.514C297.583 64.5235 297.665 64.5569 297.733 64.6105L331.366 91.2289C331.441 91.2882 331.495 91.3692 331.522 91.4608C331.549 91.5524 331.546 91.65 331.515 91.7401C331.483 91.8302 331.425 91.9083 331.347 91.9636C331.269 92.0189 331.176 92.0486 331.08 92.0486Z" fill="#CCCCCC"/>
<path d="M178.994 187.407C178.994 189.113 178.659 190.803 178.005 192.379C177.352 193.956 176.395 195.389 175.187 196.596C173.98 197.803 172.546 198.76 170.968 199.413C169.39 200.067 167.699 200.403 165.991 200.403C165.879 200.405 165.768 200.401 165.656 200.39C163.976 196.203 163.329 191.675 163.768 187.186C164.207 182.697 165.721 178.379 168.181 174.597C171.206 175.115 173.95 176.685 175.929 179.029C177.908 181.373 178.993 184.34 178.994 187.407Z" fill="#6EA4F5"/>
<path d="M193.724 181.206C193.726 180.231 194.114 179.296 194.804 178.607C195.495 177.917 196.43 177.529 197.406 177.527H217.004C218.149 179.853 218.962 182.327 219.421 184.878H197.406C196.431 184.878 195.495 184.491 194.805 183.803C194.115 183.114 193.726 182.18 193.724 181.206Z" fill="#6EA4F5"/>
<path d="M219.876 189.935C219.878 192.418 219.549 194.89 218.899 197.286H197.406C196.431 197.286 195.495 196.899 194.805 196.21C194.115 195.52 193.727 194.585 193.727 193.611C193.727 192.636 194.115 191.701 194.805 191.012C195.495 190.322 196.431 189.935 197.406 189.935H219.876Z" fill="#6EA4F5"/>
</svg>
