<svg width="37" height="37" viewBox="0 0 37 37" fill="none" xmlns="http://www.w3.org/2000/svg">
<path d="M18.5937 0.59375C8.67198 0.59375 0.59375 8.66472 0.59375 18.5937C0.59375 28.5155 8.67198 36.5937 18.5937 36.5937C28.5155 36.5937 36.5937 28.5155 36.5937 18.5937C36.5937 8.66472 28.5155 0.59375 18.5937 0.59375ZM2.40827 18.5937C2.40827 16.2494 2.90907 14.0212 3.80907 12.0107L11.5317 33.1607C6.13165 30.5333 2.40827 24.9954 2.40827 18.5937ZM18.5937 34.7792C17.0042 34.7792 15.4728 34.547 14.0212 34.1187L18.8768 20.0091L23.8486 33.6397C23.8849 33.7196 23.9212 33.7921 23.9647 33.8647C22.2881 34.4526 20.4808 34.7792 18.5937 34.7792V34.7792ZM20.822 11.0091C21.7946 10.9583 22.6728 10.8567 22.6728 10.8567C23.5438 10.755 23.4421 9.47036 22.5712 9.52117C22.5712 9.52117 19.951 9.7244 18.2599 9.7244C16.6704 9.7244 13.9994 9.52117 13.9994 9.52117C13.1284 9.47036 13.0268 10.8058 13.8978 10.8567C13.8978 10.8567 14.7252 10.9583 15.5962 11.0091L18.1147 17.9187L14.5728 28.5373L8.67923 11.0091C9.65181 10.9583 10.53 10.8567 10.53 10.8567C11.401 10.755 11.2994 9.47036 10.4284 9.52117C10.4284 9.52117 7.80827 9.7244 6.11714 9.7244C5.8123 9.7244 5.45665 9.71714 5.07198 9.70262C7.96794 5.31149 12.9397 2.40827 18.5937 2.40827C22.8034 2.40827 26.6429 4.01956 29.5244 6.65423C29.4518 6.64698 29.3865 6.63972 29.3139 6.63972C27.7244 6.63972 26.5994 8.02601 26.5994 9.51391C26.5994 10.8494 27.3688 11.9744 28.1889 13.3099C28.8058 14.3841 29.5244 15.7704 29.5244 17.7736C29.5244 19.1599 28.9946 20.7639 28.2905 23.0067L26.6792 28.3994L20.822 11.0091V11.0091ZM26.73 32.58L31.6728 18.2889C32.5946 15.9808 32.9067 14.1373 32.9067 12.4897C32.9067 11.8946 32.8704 11.3429 32.7978 10.8276C34.0607 13.1357 34.7792 15.7776 34.7792 18.5937C34.7792 24.5671 31.5421 29.7784 26.73 32.58V32.58Z" fill="#B5BAC4"/>
</svg>
