<svg width="31" height="35" viewBox="0 0 31 35" fill="none" xmlns="http://www.w3.org/2000/svg">
<path d="M31 5.00001V8.12499C31 10.8789 24.0573 13.125 15.5 13.125C6.94269 13.125 0 10.8789 0 8.12499V5.00001C0 2.24608 6.94269 0 15.5 0C24.0573 0 31 2.24608 31 5.00001ZM31 12.0312V19.0625C31 21.8164 24.0573 24.0625 15.5 24.0625C6.94269 24.0625 0 21.8164 0 19.0625V12.0312C3.33008 14.2969 9.42511 15.3516 15.5 15.3516C21.5749 15.3516 27.6699 14.2969 31 12.0312ZM31 22.9688V30C31 32.7539 24.0573 35 15.5 35C6.94269 35 0 32.7539 0 30V22.9688C3.33008 25.2344 9.42511 26.2891 15.5 26.2891C21.5749 26.2891 27.6699 25.2344 31 22.9688Z" fill="#B5BAC4"/>
</svg>
