<svg width="61" height="48" viewBox="0 0 61 48" fill="none" xmlns="http://www.w3.org/2000/svg">
<g clip-path="url(#clip0_2404_227)">
<path d="M60.0081 19.7219C58.5126 18.7183 54.5829 18.2897 51.7259 19.0569C51.5718 16.2198 50.1046 13.8291 47.4202 11.7431L46.4265 11.078L45.7643 12.0752C44.4624 14.0454 43.914 16.6701 44.1083 19.0561C44.2616 20.5261 44.7746 22.1786 45.7643 23.3776C42.0459 25.5279 38.6186 25.0398 23.44 25.0398H0.00501707C-0.063544 28.4566 0.487364 35.0298 4.68008 40.3806C5.14306 40.9717 5.65122 41.5434 6.20213 42.0943C9.61083 45.4975 14.761 47.9928 22.4624 48C34.2113 48.0105 44.2777 41.6793 50.4006 26.3706C52.4155 26.4036 57.7342 26.7309 60.3372 21.7162C60.4009 21.6318 60.9994 20.3861 60.9994 20.3861L60.0073 19.7211L60.0081 19.7219ZM15.299 16.597H8.70905V23.1669H15.299V16.597ZM23.8126 16.597H17.2227V23.1669H23.8126V16.597ZM32.3263 16.597H25.7364V23.1669H32.3263V16.597ZM40.84 16.597H34.2501V23.1669H40.84V16.597ZM6.7853 16.597H0.195375V23.1669H6.7853V16.597ZM15.299 8.29888H8.70905V14.8688H15.299V8.29888ZM23.8126 8.29888H17.2227V14.8688H23.8126V8.29888ZM32.3263 8.29888H25.7364V14.8688H32.3263V8.29888ZM32.3263 0H25.7364V6.56994H32.3263V0Z" fill="#061529"/>
</g>
<defs>
<clipPath id="clip0_2404_227">
<rect width="61" height="48" fill="white"/>
</clipPath>
</defs>
</svg>
