<svg width="31" height="31" viewBox="0 0 31 31" fill="none" xmlns="http://www.w3.org/2000/svg">
<path d="M0 0V30.625H31V0H0ZM16.8701 23.8848C16.8701 26.8652 15.0987 28.2256 12.5176 28.2256C10.1857 28.2256 8.83638 27.0361 8.14442 25.5938L10.5179 24.1787C10.9746 24.9785 11.3897 25.6553 12.3931 25.6553C13.348 25.6553 13.9569 25.2861 13.9569 23.8438V14.0615H16.8701V23.8848ZM23.7621 28.2256C21.0565 28.2256 19.3058 26.9541 18.4547 25.2861L20.8281 23.9326C21.4509 24.9375 22.2674 25.6826 23.6998 25.6826C24.9038 25.6826 25.6788 25.0879 25.6788 24.2607C25.6788 23.2764 24.89 22.9277 23.5545 22.3467L22.8279 22.0391C20.7243 21.1572 19.3335 20.043 19.3335 17.6982C19.3335 15.5381 21.0011 13.8975 23.596 13.8975C25.4504 13.8975 26.779 14.5332 27.7339 16.2012L25.4643 17.6367C24.9661 16.7549 24.4263 16.4062 23.5891 16.4062C22.7379 16.4062 22.1982 16.9395 22.1982 17.6367C22.1982 18.498 22.7379 18.8467 23.9904 19.3867L24.717 19.6943C27.1942 20.7402 28.585 21.8135 28.585 24.2197C28.585 26.8037 26.523 28.2256 23.7621 28.2256Z" fill="#B5BAC4"/>
</svg>
