<svg width="48" height="29" viewBox="0 0 48 29" fill="none" xmlns="http://www.w3.org/2000/svg">
<path d="M23.7225 29C23.565 29 23.4075 28.9556 23.265 28.8816L21.825 28.0382C21.6075 27.9199 21.7125 27.8755 21.7875 27.8533C22.0725 27.7571 22.1325 27.7349 22.44 27.5573C22.47 27.5425 22.515 27.5499 22.545 27.5647L23.655 28.2158C23.6925 28.238 23.7525 28.238 23.79 28.2158L28.125 25.7448C28.1625 25.7226 28.1925 25.6782 28.1925 25.6264V20.6918C28.1925 20.64 28.17 20.5956 28.125 20.5734L23.79 18.1098C23.7525 18.0876 23.7 18.0876 23.655 18.1098L19.32 20.5734C19.275 20.5956 19.2525 20.6474 19.2525 20.6918V25.6264C19.2525 25.6708 19.2825 25.7152 19.32 25.7374L20.505 26.4106C21.15 26.7287 21.5475 26.3514 21.5475 25.9815V21.1061C21.5475 21.0395 21.6 20.9803 21.675 20.9803H22.2225C22.29 20.9803 22.35 21.0321 22.35 21.1061V25.9815C22.35 26.8323 21.885 27.3132 21.0675 27.3132C20.82 27.3132 20.6175 27.3132 20.07 27.0469L18.93 26.4032C18.6525 26.2405 18.4725 25.9445 18.4725 25.6264V20.6918C18.4725 20.3737 18.645 20.0703 18.93 19.915L23.265 17.444C23.5425 17.2886 23.9025 17.2886 24.1725 17.444L28.5075 19.915C28.785 20.0777 28.965 20.3737 28.965 20.6918V25.6264C28.965 25.9445 28.7925 26.2479 28.5075 26.4032L24.1725 28.8742C24.045 28.9556 23.8875 29 23.7225 29ZM27.225 24.132C27.225 23.2072 26.595 22.963 25.26 22.7855C23.91 22.6079 23.775 22.5191 23.775 22.2084C23.775 21.9495 23.8875 21.6092 24.885 21.6092C25.7775 21.6092 26.1075 21.8015 26.2425 22.3934C26.2575 22.4526 26.3025 22.4896 26.3625 22.4896H26.925C26.9625 22.4896 26.9925 22.4748 27.015 22.4526C27.0375 22.423 27.0525 22.3934 27.045 22.3564C26.955 21.3354 26.2725 20.8619 24.885 20.8619C23.6475 20.8619 22.9125 21.3798 22.9125 22.238C22.9125 23.1776 23.6475 23.4291 24.8325 23.5475C26.25 23.6881 26.3625 23.8878 26.3625 24.1616C26.3625 24.6424 25.9725 24.8422 25.0575 24.8422C23.91 24.8422 23.655 24.5611 23.5725 23.9988C23.565 23.9396 23.5125 23.8952 23.445 23.8952H22.8825C22.815 23.8952 22.755 23.947 22.755 24.021C22.755 24.7386 23.1525 25.5968 25.05 25.5968C26.4375 25.5968 27.225 25.0641 27.225 24.132ZM31.3125 20.4254C31.3125 20.8767 30.9375 21.2467 30.48 21.2467C30.0225 21.2467 29.6475 20.8767 29.6475 20.4254C29.6475 19.9594 30.0375 19.6042 30.48 19.6042C30.93 19.5968 31.3125 19.9594 31.3125 20.4254ZM31.1775 20.4254C31.1775 20.0407 30.8625 19.7374 30.4725 19.7374C30.09 19.7374 29.775 20.0407 29.775 20.4254C29.775 20.8102 30.09 21.1209 30.4725 21.1209C30.8625 21.1135 31.1775 20.8028 31.1775 20.4254ZM30.84 20.8841H30.645C30.6375 20.8397 30.6075 20.603 30.6075 20.5956C30.5925 20.5438 30.5775 20.5142 30.51 20.5142H30.345V20.8841H30.165V19.9594H30.4875C30.6 19.9594 30.8175 19.9594 30.8175 20.2035C30.8175 20.3737 30.705 20.4107 30.6375 20.4328C30.765 20.4402 30.7725 20.5216 30.795 20.64C30.8025 20.714 30.8175 20.8397 30.84 20.8841ZM30.63 20.2331C30.63 20.1073 30.54 20.1073 30.495 20.1073H30.345V20.3663H30.4875C30.6075 20.3663 30.63 20.2849 30.63 20.2331ZM10.2975 9.69061C10.2975 9.49086 10.1925 9.3133 10.02 9.21712L5.4225 6.60555C5.3475 6.56116 5.2575 6.53896 5.1675 6.53156H5.1225C5.0325 6.53156 4.95 6.56116 4.8675 6.60555L0.2775 9.21712C0.105 9.3133 0 9.49826 0 9.69061L0.0075 16.7189C0.0075 16.8151 0.06 16.9039 0.1425 16.9557C0.225 17.0075 0.33 17.0075 0.42 16.9557L3.15 15.4094C3.3225 15.3059 3.4275 15.1283 3.4275 14.936V11.6511C3.4275 11.4588 3.5325 11.2738 3.705 11.1777L4.8675 10.5192C4.9575 10.4674 5.0475 10.4452 5.145 10.4452C5.2425 10.4452 5.34 10.4674 5.4225 10.5192L6.585 11.1777C6.7575 11.2738 6.8625 11.4588 6.8625 11.6511V14.936C6.8625 15.1283 6.9675 15.3133 7.14 15.4094L9.87 16.9557C9.9525 17.0075 10.065 17.0075 10.1475 16.9557C10.23 16.9113 10.2825 16.8151 10.2825 16.7189L10.2975 9.69061ZM35.4375 2.01864V15.0691C35.4375 15.2615 35.3325 15.4464 35.16 15.5426L30.5625 18.1616C30.39 18.2578 30.18 18.2578 30.0075 18.1616L25.41 15.5426C25.2375 15.4464 25.1325 15.2615 25.1325 15.0691V9.83118C25.1325 9.63882 25.2375 9.45387 25.41 9.35769L30.0075 6.73872C30.18 6.64254 30.39 6.64254 30.5625 6.73872L31.71 7.38976C31.8375 7.46374 32.0025 7.36756 32.0025 7.227V0.27266C32.0025 0.0655097 32.2275 -0.0676585 32.415 0.0359167L35.1525 1.54516C35.325 1.63394 35.4375 1.81889 35.4375 2.01864ZM31.9875 11.555C31.9875 11.5032 31.9575 11.4588 31.92 11.4366L30.345 10.534C30.3 10.5118 30.2475 10.5118 30.2025 10.534L28.6275 11.4366C28.5825 11.4588 28.56 11.5032 28.56 11.555V13.3527C28.56 13.4045 28.59 13.4489 28.6275 13.4711L30.2025 14.3663C30.2475 14.3885 30.3 14.3885 30.3375 14.3663L31.9125 13.4711C31.9575 13.4489 31.98 13.4045 31.98 13.3527V11.555H31.9875ZM47.7225 11.5032C47.895 11.407 48 11.222 48 11.0297V9.76459C48 9.57224 47.895 9.38728 47.7225 9.29111L43.155 6.67213C42.9825 6.57595 42.7725 6.57595 42.6 6.67213L38.0025 9.29111C37.83 9.38728 37.725 9.57224 37.725 9.76459V15.0025C37.725 15.2023 37.83 15.3799 38.0025 15.476L42.57 18.0432C42.735 18.1394 42.945 18.1394 43.1175 18.0432L45.8775 16.5266C46.065 16.423 46.065 16.1567 45.8775 16.0531L41.25 13.4341C41.16 13.3823 41.1075 13.2936 41.1075 13.1974V11.555C41.1075 11.4588 41.16 11.37 41.25 11.3182L42.69 10.497C42.7725 10.4452 42.885 10.4452 42.9675 10.497L44.4075 11.3182C44.49 11.37 44.55 11.4588 44.55 11.555V12.8423C44.55 13.0494 44.7825 13.1826 44.97 13.079L47.7225 11.5032ZM41.925 11.7621C41.895 11.7843 41.8725 11.8139 41.8725 11.8509V12.8571C41.8725 12.894 41.895 12.931 41.925 12.9458L42.81 13.4489C42.84 13.4711 42.885 13.4711 42.915 13.4489L43.8 12.9458C43.83 12.9236 43.8525 12.894 43.8525 12.8571V11.8509C43.8525 11.8139 43.83 11.7769 43.8 11.7621L42.915 11.259C42.885 11.2368 42.84 11.2368 42.81 11.259L41.925 11.7621ZM22.86 14.9803V9.77199C22.86 9.57964 22.74 9.39468 22.5675 9.2985L17.985 6.69433C17.8275 6.60555 17.61 6.59075 17.43 6.69433L12.8475 9.2985C12.675 9.39468 12.555 9.57224 12.555 9.77199V14.9803C12.555 15.1875 12.6975 15.3651 12.855 15.4538L17.445 18.058C17.625 18.1616 17.835 18.1542 18 18.058L22.575 15.4538C22.71 15.3799 22.8075 15.2541 22.845 15.1061C22.8525 15.0691 22.86 15.0247 22.86 14.9803ZM17.2875 5.73995L17.2275 5.77695H17.31L17.2875 5.73995ZM23.0025 15.3725L22.9725 15.3207V15.3872L23.0025 15.3725Z" fill="#B5BAC4"/>
</svg>
