<svg width="37" height="37" viewBox="0 0 37 37" fill="none" xmlns="http://www.w3.org/2000/svg">
<path d="M30.2215 13.4921C29.8313 13.362 29.441 13.2391 29.0508 13.1235C29.1158 12.8561 29.1736 12.5887 29.2314 12.3214C30.1203 8.01433 29.535 4.55281 27.5621 3.41101C25.6615 2.3198 22.5613 3.45437 19.425 6.18601C19.1143 6.45339 18.8107 6.73523 18.5217 7.01706C18.3266 6.82917 18.1242 6.64128 17.9219 6.46062C14.6338 3.54109 11.3385 2.31257 9.36563 3.4616C7.47227 4.56003 6.90859 7.81921 7.70352 11.895C7.78301 12.2997 7.86973 12.6971 7.9709 13.1018C7.5084 13.2319 7.05312 13.3764 6.62676 13.5282C2.76777 14.8651 0 16.9753 0 19.1577C0 21.4124 2.94844 23.6743 6.95918 25.0473C7.28438 25.1557 7.60957 25.2641 7.94199 25.3581C7.83359 25.7917 7.73965 26.218 7.65293 26.6589C6.89414 30.6696 7.48672 33.8493 9.38008 34.9405C11.3313 36.0678 14.6121 34.9116 17.8062 32.1149C18.0592 31.8909 18.3121 31.6596 18.565 31.4139C18.883 31.7247 19.2154 32.021 19.5479 32.31C22.6408 34.9694 25.6977 36.0462 27.5838 34.9549C29.535 33.8276 30.1709 30.4094 29.3471 26.2469C29.282 25.929 29.2098 25.6038 29.1303 25.2714C29.3615 25.2063 29.5855 25.134 29.8096 25.0618C33.9793 23.6815 37 21.4485 37 19.1577C37 16.968 34.1527 14.8434 30.2215 13.4921ZM20.4439 7.35671C23.1322 5.01531 25.6398 4.09753 26.7816 4.75515C28.0029 5.45613 28.4727 8.28894 27.7066 12.0106C27.6561 12.2563 27.6055 12.4948 27.5404 12.7333C25.9361 12.3719 24.3102 12.1118 22.677 11.9673C21.7375 10.6231 20.7113 9.33679 19.5984 8.12995C19.8803 7.86257 20.1549 7.60964 20.4439 7.35671ZM12.0828 22.9083C12.4514 23.537 12.8271 24.1657 13.2246 24.7799C12.0973 24.6571 10.9771 24.4764 9.87148 24.238C10.1895 23.1973 10.5869 22.1206 11.0494 21.0221C11.3818 21.6581 11.7215 22.2868 12.0828 22.9083ZM9.89316 14.2147C10.9338 13.9835 12.0395 13.7956 13.1885 13.651C12.8055 14.2508 12.4297 14.8651 12.0756 15.4866C11.7215 16.1009 11.3746 16.7296 11.0494 17.3655C10.5941 16.2887 10.2111 15.2337 9.89316 14.2147ZM11.8732 19.1938C12.3502 18.1966 12.8705 17.221 13.4197 16.2598C13.9689 15.2987 14.5615 14.3665 15.183 13.4487C16.267 13.3692 17.3727 13.3258 18.5 13.3258C19.6273 13.3258 20.7402 13.3692 21.817 13.4487C22.4312 14.3592 23.0166 15.2915 23.573 16.2454C24.1295 17.1993 24.6498 18.1749 25.1412 19.1649C24.657 20.1622 24.1367 21.145 23.5803 22.1133C23.0311 23.0745 22.4457 24.0067 21.8314 24.9317C20.7547 25.0112 19.6346 25.0473 18.5 25.0473C17.3654 25.0473 16.267 25.0112 15.2047 24.9462C14.576 24.0284 13.9834 23.0889 13.427 22.1278C12.8705 21.1667 12.3574 20.1911 11.8732 19.1938ZM24.9244 22.8938C25.293 22.2579 25.6398 21.6147 25.9795 20.9643C26.442 22.0122 26.8467 23.0745 27.2008 24.1657C26.0807 24.4186 24.9461 24.6137 23.8043 24.7438C24.1945 24.1368 24.5631 23.5153 24.9244 22.8938ZM25.965 17.3655C25.6254 16.7296 25.2785 16.0936 24.9172 15.4721C24.5631 14.8579 24.1945 14.2508 23.8115 13.651C24.975 13.7956 26.0879 13.9907 27.1285 14.2292C26.7961 15.2987 26.4059 16.3393 25.965 17.3655ZM18.5145 9.23562C19.2732 10.0594 19.9887 10.9266 20.6535 11.8227C19.2227 11.7577 17.7846 11.7577 16.3537 11.8227C17.0619 10.8905 17.7918 10.0233 18.5145 9.23562ZM10.1316 4.80574C11.3457 4.09753 14.0412 5.10925 16.8813 7.62409C17.0619 7.78308 17.2426 7.95652 17.4305 8.12995C16.3104 9.33679 15.277 10.6231 14.3303 11.9673C12.6971 12.1118 11.0783 12.3647 9.47402 12.7188C9.38008 12.3503 9.30059 11.9745 9.22109 11.5987C8.5418 8.10105 8.98984 5.46335 10.1316 4.80574ZM8.36113 23.8549C8.05762 23.7682 7.76133 23.6743 7.46504 23.5731C5.92578 23.0889 4.17695 22.3229 2.9123 21.3184C2.18242 20.8126 1.69102 20.0321 1.55371 19.1577C1.55371 17.8352 3.8373 16.1442 7.13262 14.9952C7.54453 14.8507 7.96367 14.7206 8.38281 14.5977C8.87422 16.1659 9.4668 17.7051 10.1533 19.1938C9.45957 20.7042 8.85977 22.2651 8.36113 23.8549ZM16.7873 30.937C15.5949 32.0282 14.2146 32.8954 12.7115 33.488C11.9094 33.871 10.9844 33.9071 10.1605 33.5819C9.01152 32.9171 8.53457 30.3661 9.18496 26.9335C9.26445 26.5288 9.35117 26.1241 9.45234 25.7266C11.0711 26.0735 12.7043 26.312 14.3592 26.4348C15.3131 27.7862 16.3609 29.0798 17.4811 30.2938C17.2498 30.5178 17.0186 30.7346 16.7873 30.937ZM18.5578 29.1809C17.8207 28.386 17.0836 27.5044 16.3682 26.5577C17.0619 26.5866 17.7773 26.601 18.5 26.601C19.2443 26.601 19.9742 26.5866 20.6969 26.5505C20.032 27.4682 19.3166 28.3426 18.5578 29.1809ZM28.0029 31.3489C27.9379 32.2305 27.5043 33.0544 26.8105 33.6108C25.6615 34.2756 23.2117 33.4085 20.5668 31.1393C20.2633 30.8792 19.9598 30.5973 19.649 30.3083C20.7547 29.087 21.7736 27.7934 22.6986 26.4348C24.3535 26.2975 26.0012 26.0446 27.6271 25.676C27.6994 25.9723 27.7645 26.2686 27.8223 26.5577C28.1764 28.1186 28.2342 29.7446 28.0029 31.3489ZM29.3182 23.5803C29.1158 23.6454 28.9135 23.7104 28.7039 23.7682C28.198 22.1928 27.5766 20.6536 26.8611 19.1577C27.5549 17.6835 28.1402 16.1659 28.6316 14.6122C29.0074 14.7206 29.3688 14.8362 29.7156 14.9518C33.0832 16.1081 35.4463 17.828 35.4463 19.1432C35.4463 20.5596 32.9242 22.388 29.3182 23.5803ZM18.5 22.4964C20.3283 22.4964 21.8098 21.0149 21.8098 19.1866C21.8098 17.3583 20.3283 15.8768 18.5 15.8768C16.6717 15.8768 15.1902 17.3583 15.1902 19.1866C15.1902 21.0149 16.6717 22.4964 18.5 22.4964Z" fill="#B5BAC4"/>
</svg>
