<svg width="46" height="36" viewBox="0 0 46 36" fill="none" xmlns="http://www.w3.org/2000/svg">
<path d="M21.6948 26.6428C21.6732 26.6849 21.6516 26.7187 21.6948 26.6428V26.6428ZM39.601 20.5256C38.1554 20.5251 36.729 20.8499 35.4322 21.4748C35.0082 20.6381 34.5697 19.9068 34.4978 19.3584C34.4116 18.7185 34.3182 18.3389 34.4188 17.5795C34.5194 16.8201 34.9722 15.7443 34.965 15.667C34.9578 15.5896 34.8644 15.2029 33.9372 15.1959C33.01 15.1889 32.2122 15.3717 32.1195 15.6107C31.9557 16.0476 31.8284 16.4967 31.7386 16.9537C31.5733 17.7764 29.8849 20.7154 28.929 22.2482C28.6127 21.6506 28.3468 21.1232 28.2893 20.7014C28.203 20.0615 28.1096 19.6818 28.2102 18.9224C28.3108 18.1631 28.7637 17.0873 28.7565 17.0099C28.7493 16.9326 28.6558 16.5459 27.7294 16.5389C26.8029 16.5318 26.0044 16.7146 25.9109 16.9537C25.8175 17.1928 25.7169 17.7553 25.53 18.2967C25.3431 18.8381 23.0942 23.7318 22.5055 25.0045C22.2036 25.6514 21.9449 26.1717 21.758 26.5232C21.7293 26.5795 21.7077 26.6146 21.6933 26.6428C21.7149 26.6076 21.7293 26.5724 21.7293 26.5865C21.5711 26.8889 21.4777 27.0576 21.4777 27.0576V27.0646C21.3555 27.2896 21.2189 27.4935 21.1543 27.4935C21.1111 27.4935 21.0177 26.9029 21.1758 26.0943C21.5136 24.3928 22.3114 21.749 22.3043 21.6576C22.2971 21.6084 22.4552 21.1514 21.7796 20.9053C21.1255 20.6732 20.8883 21.0599 20.8308 21.0599C20.7733 21.0599 20.7302 21.2006 20.7302 21.2006C20.7302 21.2006 21.4561 18.2193 19.3365 18.2193C18.014 18.2193 16.174 19.6396 15.2698 20.9264C14.702 21.2287 13.473 21.8826 12.1792 22.5787C11.6833 22.8459 11.173 23.1201 10.6914 23.3803C10.6555 23.3451 10.6267 23.3099 10.5908 23.2748C8.01838 20.5889 3.26888 18.6904 3.47013 15.0834C3.542 13.7685 4.00919 10.3162 12.6033 6.12557C19.647 2.69432 25.2784 3.63651 26.248 5.73182C27.6424 8.7201 23.2372 14.2818 15.9225 15.0834C13.1344 15.3857 11.6689 14.331 11.3023 13.9373C10.9214 13.5224 10.8639 13.5014 10.7202 13.5787C10.483 13.7053 10.6339 14.0709 10.7202 14.2889C10.9358 14.8443 11.8342 15.8287 13.3644 16.3209C14.7085 16.7498 17.9774 16.9889 21.9298 15.4912C26.3702 13.8178 29.8267 9.15604 28.8133 5.2537C27.7811 1.28807 21.0594 -0.0127106 14.7035 2.1951C10.9164 3.50995 6.82094 5.57713 3.87478 8.2701C0.375191 11.4764 -0.184715 14.2678 0.0452846 15.4349C0.863941 19.5764 6.69875 22.2764 9.03397 24.2732C8.91897 24.3365 8.81116 24.3928 8.71053 24.449C7.53969 25.0185 3.09135 27.2967 1.978 29.7014C0.720191 32.4295 2.18644 34.3842 3.14885 34.6514C6.1525 35.467 9.22803 33.9974 10.8804 31.5857C12.5328 29.174 12.3323 26.024 11.5704 24.5896C11.5633 24.5685 11.5489 24.5545 11.5417 24.5334C11.8436 24.3576 12.1526 24.1818 12.4617 24.006C13.0575 23.6615 13.6397 23.3451 14.15 23.0709C13.8625 23.8303 13.6541 24.7443 13.5463 26.0662C13.4169 27.6131 14.071 29.617 14.9191 30.4045C15.2928 30.749 15.7449 30.756 16.0253 30.756C17.0171 30.756 17.4628 29.9545 17.958 28.9982C18.5689 27.831 19.108 26.474 19.108 26.474C19.108 26.474 18.4323 30.1443 20.2795 30.1443C20.9544 30.1443 21.6301 29.2935 21.9327 28.8576V28.8646C21.9327 28.8646 21.947 28.8365 21.983 28.7803C22.0548 28.6748 22.0908 28.6115 22.0908 28.6115V28.5904C22.3639 28.1334 22.9605 27.0857 23.8582 25.356C25.0226 23.1201 26.1359 20.3287 26.1359 20.3287C26.2435 20.9423 26.3924 21.5483 26.5815 22.1428C26.7828 22.8107 27.2068 23.542 27.5447 24.2521C27.2715 24.6178 27.1062 24.8287 27.1062 24.8287C27.1067 24.8341 27.1093 24.8391 27.1134 24.8428C26.8978 25.124 26.6534 25.4264 26.4018 25.7217C25.4826 26.7904 24.3893 28.0139 24.2456 28.3654C24.0731 28.7803 24.1162 29.0896 24.4468 29.3287C24.6912 29.5115 25.1225 29.5396 25.5746 29.5045C26.4011 29.4482 26.9833 29.2514 27.2636 29.1248C27.7804 28.9435 28.2688 28.6927 28.7148 28.3795C29.6132 27.7326 30.1595 26.8045 30.1092 25.581C30.0804 24.906 29.8576 24.231 29.5845 23.5982C29.6635 23.4857 29.7498 23.3662 29.8288 23.2467C31.2513 21.2146 32.3509 18.9843 32.3509 18.9843C32.4585 19.5979 32.6074 20.2039 32.7966 20.7984C32.9691 21.3679 33.3062 21.9937 33.6152 22.6054C32.2791 23.6671 31.4525 24.8976 31.165 25.7062C30.6331 27.2039 31.05 27.8789 31.8334 28.0335C32.1856 28.1039 32.6888 27.9421 33.0625 27.7874C33.6176 27.6066 34.1409 27.3434 34.6143 27.007C35.5127 26.3601 36.3817 25.4531 36.3242 24.2226C36.3026 23.6671 36.1445 23.1117 35.9361 22.5773C37.0645 22.1132 38.53 21.8601 40.3988 22.071C44.4008 22.5281 45.1842 24.9749 45.0333 25.9945C44.8823 27.014 44.0414 27.5835 43.7611 27.7523C43.4808 27.921 43.3945 27.9843 43.4161 28.1109C43.452 28.2937 43.5814 28.2867 43.8186 28.2445C44.1492 28.1882 45.9166 27.4148 45.9957 25.5234C46.1107 23.1328 43.7611 20.5031 39.5988 20.5242L39.601 20.5256ZM8.75366 30.6998C7.43188 32.1131 5.5775 32.6474 4.78041 32.1975C3.9251 31.7109 4.26291 29.631 5.89375 28.1249C6.88563 27.2109 8.16428 26.3671 9.01241 25.8468C9.20647 25.7343 9.48678 25.5656 9.83178 25.3617C9.88928 25.3265 9.91803 25.3124 9.91803 25.3124C9.98272 25.2703 10.0546 25.2351 10.1265 25.1929C10.7223 27.3304 10.148 29.2148 8.75366 30.6984V30.6998ZM18.4108 24.2732C17.9508 25.3771 16.9812 28.1896 16.3918 28.042C15.8887 27.9154 15.5796 25.7709 16.2912 23.6615C16.6506 22.5998 17.4124 21.3342 17.8653 20.842C18.5905 20.0474 19.3883 19.7943 19.5752 20.1107C19.8267 20.5256 18.6983 23.5842 18.4108 24.2732ZM26.3889 27.9998C26.1948 28.0982 26.0152 28.1615 25.9289 28.1123C25.8642 28.0771 26.008 27.9435 26.008 27.9435C26.008 27.9435 27.007 26.8959 27.4023 26.4178C27.6323 26.1365 27.8983 25.806 28.1851 25.4404C28.1851 25.4756 28.1923 25.5107 28.1923 25.5529C28.1829 26.8115 26.9474 27.6623 26.3868 27.9998H26.3889ZM32.54 26.6287C32.3962 26.5303 32.4178 26.1998 32.8993 25.1732C33.0862 24.7724 33.5168 24.0974 34.265 23.4506C34.3497 23.6954 34.3957 23.9515 34.4015 24.2099C34.3943 25.792 33.2372 26.3826 32.5407 26.6287H32.54Z" fill="#B5BAC4"/>
</svg>
