<svg width="48" height="48" viewBox="0 0 48 48" fill="none" xmlns="http://www.w3.org/2000/svg">
<g clip-path="url(#clip0_402_228)">
<path d="M0 16.62C0 8.82 0 4.86 2.4 2.46C4.92 0 8.88 0 16.68 0H31.44C39.24 0 43.2 0 45.6 2.4C48 4.92 48 8.88 48 16.68V31.44C48 39.24 48 43.2 45.6 45.6C43.08 48 39.12 48 31.32 48H16.62C8.82 48 4.86 48 2.46 45.6C0 43.08 0 39.12 0 31.32V16.62Z" fill="#061529"/>
<path fill-rule="evenodd" clip-rule="evenodd" d="M33.1199 14.5801H16.9199V22.8001H25.1999V31.0201H33.4199V14.8801C33.4199 14.7001 33.2999 14.5801 33.1199 14.5801Z" fill="#F0F2F5"/>
<path d="M24.8999 22.8H25.1999V23.1H24.8999V22.8Z" fill="white"/>
<path d="M16.9799 22.8001H24.8999C25.0799 22.8001 25.1999 22.9201 25.1999 23.1001V31.0201H17.2799C17.2004 31.0201 17.124 30.9885 17.0678 30.9322C17.0115 30.876 16.9799 30.7996 16.9799 30.7201V22.8001ZM25.1999 31.0201H33.4199L25.4999 39.0001C25.3799 39.1201 25.1999 39.0001 25.1999 38.8801V31.0801V31.0201ZM16.9799 22.8001H9.11992C9.08637 22.7975 9.05422 22.7856 9.0271 22.7657C8.99998 22.7458 8.97898 22.7187 8.96649 22.6875C8.95399 22.6562 8.9505 22.6221 8.95641 22.589C8.96232 22.5559 8.97739 22.5251 8.99992 22.5001L16.9799 14.5801V22.8001Z" fill="white"/>
</g>
<defs>
<clipPath id="clip0_402_228">
<rect width="48" height="48" fill="white"/>
</clipPath>
</defs>
</svg>
