<svg width="49" height="56" viewBox="0 0 49 56" fill="none" xmlns="http://www.w3.org/2000/svg">
<g clip-path="url(#clip0)">
<path d="M-1.52588e-05 3.5V52.5H49V3.5H-1.52588e-05ZM26.6656 41.7156C26.6656 46.4844 23.8656 48.6609 19.7859 48.6609C16.1 48.6609 13.9672 46.7578 12.8734 44.45L16.625 42.1859C17.3469 43.4656 18.0031 44.5484 19.589 44.5484C21.0984 44.5484 22.0609 43.9578 22.0609 41.65V25.9984H26.6656V41.7156ZM37.5594 48.6609C33.2828 48.6609 30.5156 46.6266 29.1703 43.9578L32.9219 41.7922C33.9062 43.4 35.1969 44.5922 37.4609 44.5922C39.364 44.5922 40.589 43.6406 40.589 42.3172C40.589 40.7422 39.3422 40.1844 37.2312 39.2547L36.0828 38.7625C32.7578 37.3516 30.5594 35.5687 30.5594 31.8172C30.5594 28.3609 33.1953 25.7359 37.2969 25.7359C40.2281 25.7359 42.3281 26.7531 43.8375 29.4219L40.25 31.7188C39.4625 30.3078 38.6094 29.75 37.2859 29.75C35.9406 29.75 35.0875 30.6031 35.0875 31.7188C35.0875 33.0969 35.9406 33.6547 37.9203 34.5188L39.0687 35.0109C42.9844 36.6844 45.1828 38.4016 45.1828 42.2516C45.1828 46.3859 41.9234 48.6609 37.5594 48.6609Z" fill="black"/>
</g>
<defs>
<clipPath id="clip0">
<rect width="49" height="56" fill="white"/>
</clipPath>
</defs>
</svg>
