<svg width="62" height="49" viewBox="0 0 62 49" fill="none" xmlns="http://www.w3.org/2000/svg">
<g clip-path="url(#clip0)">
<path d="M31 10.001C47.6044 10.001 60.3725 16.9108 60.3725 24.5C60.3725 32.0893 47.5947 38.999 31 38.999C14.3956 38.999 1.62748 32.0893 1.62748 24.5C1.62748 16.9108 14.4053 10.001 31 10.001ZM31 8.39319C13.8822 8.39319 -1.52588e-05 15.5996 -1.52588e-05 24.5C-1.52588e-05 33.4004 13.8822 40.6069 31 40.6069C48.1178 40.6069 62 33.4004 62 24.5C62 15.5996 48.1178 8.39319 31 8.39319ZM21.1381 23.208C20.3728 27.084 17.67 26.6821 14.3472 26.6821L15.6744 19.9254C19.3556 19.9254 21.855 19.533 21.1381 23.208ZM9.43561 33.5248H12.9909L13.8337 29.2373C17.8153 29.2373 20.2856 29.5244 22.5719 27.4094C25.1003 25.1125 25.759 21.026 23.9572 18.978C23.0175 17.9061 21.5062 17.3797 19.4525 17.3797H12.6034L9.43561 33.5248ZM27.4253 13.0826H30.9612L30.1184 17.3701C33.17 17.3701 35.9987 17.15 37.3647 18.3942C38.7984 19.6957 38.1106 21.361 36.5606 29.2182H32.9762C34.4681 21.6194 34.749 20.9877 34.2065 20.4135C33.6834 19.8584 32.4919 19.9733 29.6147 19.9733L27.7934 29.2182H24.2575L27.4253 13.0826ZM48.9219 23.208C48.1469 27.1414 45.3665 26.6821 42.1309 26.6821L43.4581 19.9254C47.1587 19.9254 49.6387 19.533 48.9219 23.208ZM37.2194 33.5248H40.7844L41.6272 29.2373C45.8122 29.2373 48.1275 29.4766 50.3653 27.4094C52.8937 25.1125 53.5525 21.026 51.7506 18.978C50.8109 17.9061 49.2997 17.3797 47.2459 17.3797H40.3969L37.2194 33.5248Z" fill="white"/>
</g>
<defs>
<clipPath id="clip0">
<rect width="62" height="49" fill="white"/>
</clipPath>
</defs>
</svg>
