<svg width="56" height="56" viewBox="0 0 56 56" fill="none" xmlns="http://www.w3.org/2000/svg">
<g clip-path="url(#clip0)">
<path d="M45.7406 19.3812C45.15 19.1843 44.5594 18.9984 43.9687 18.8234C44.0672 18.4187 44.1547 18.014 44.2422 17.6093C45.5875 11.0906 44.7015 5.85154 41.7156 4.12341C38.839 2.47185 34.1469 4.18904 29.4 8.32341C28.9297 8.7281 28.4703 9.15466 28.0328 9.58122C27.7375 9.29685 27.4312 9.01247 27.125 8.73904C22.1484 4.32029 17.1609 2.46091 14.175 4.19998C11.3094 5.86247 10.4562 10.7953 11.6594 16.964C11.7797 17.5765 11.9109 18.1781 12.064 18.7906C11.364 18.9875 10.675 19.2062 10.0297 19.4359C4.18905 21.4593 -1.52588e-05 24.6531 -1.52588e-05 27.9562C-1.52588e-05 31.3687 4.46249 34.7922 10.5328 36.8703C11.025 37.0343 11.5172 37.1984 12.0203 37.3406C11.8562 37.9968 11.714 38.6422 11.5828 39.3093C10.4344 45.3797 11.3312 50.1922 14.1969 51.8437C17.15 53.55 22.1156 51.8 26.95 47.5672C27.3328 47.2281 27.7156 46.8781 28.0984 46.5062C28.5797 46.9765 29.0828 47.425 29.5859 47.8625C34.2672 51.8875 38.8937 53.5172 41.7484 51.8656C44.7015 50.1593 45.664 44.9859 44.4172 38.6859C44.3187 38.2047 44.2094 37.7125 44.089 37.2093C44.439 37.1109 44.7781 37.0015 45.1172 36.8922C51.4281 34.8031 56 31.4234 56 27.9562C56 24.6422 51.6906 21.4265 45.7406 19.3812ZM30.9422 10.0953C35.0109 6.55154 38.8062 5.16247 40.5344 6.15779C42.3828 7.21872 43.0937 11.5062 41.9344 17.139C41.8578 17.5109 41.7812 17.8718 41.6828 18.2328C39.2547 17.6859 36.7937 17.2922 34.3219 17.0734C32.9 15.039 31.3469 13.0922 29.6625 11.2656C30.089 10.8609 30.5047 10.4781 30.9422 10.0953ZM18.2875 33.6328C18.8453 34.5843 19.414 35.5359 20.0156 36.4656C18.3094 36.2797 16.614 36.0062 14.9406 35.6453C15.4219 34.0703 16.0234 32.4406 16.7234 30.7781C17.2265 31.7406 17.7406 32.6922 18.2875 33.6328ZM14.9734 20.475C16.5484 20.125 18.2219 19.8406 19.9609 19.6218C19.3812 20.5297 18.8125 21.4593 18.2765 22.4C17.7406 23.3297 17.2156 24.2812 16.7234 25.2437C16.0344 23.614 15.4547 22.0172 14.9734 20.475ZM17.9703 28.0109C18.6922 26.5015 19.4797 25.025 20.3109 23.5703C21.1422 22.1156 22.039 20.7047 22.9797 19.3156C24.6203 19.1953 26.2937 19.1297 28 19.1297C29.7062 19.1297 31.3906 19.1953 33.0203 19.3156C33.95 20.6937 34.8359 22.1047 35.6781 23.5484C36.5203 24.9922 37.3078 26.4687 38.0515 27.9672C37.3187 29.4765 36.5312 30.964 35.689 32.4297C34.8578 33.8843 33.9719 35.2953 33.0422 36.6953C31.4125 36.8156 29.7172 36.8703 28 36.8703C26.2828 36.8703 24.6203 36.8156 23.0125 36.7172C22.0609 35.3281 21.164 33.9062 20.3219 32.4515C19.4797 30.9968 18.7031 29.5203 17.9703 28.0109ZM37.7234 33.6109C38.2812 32.6484 38.8062 31.675 39.3203 30.6906C40.0203 32.2765 40.6328 33.8843 41.1687 35.5359C39.4734 35.9187 37.7562 36.214 36.0281 36.4109C36.6187 35.4922 37.1765 34.5515 37.7234 33.6109ZM39.2984 25.2437C38.7844 24.2812 38.2594 23.3187 37.7125 22.3781C37.1765 21.4484 36.6187 20.5297 36.039 19.6218C37.8 19.8406 39.4844 20.1359 41.0594 20.4968C40.5562 22.1156 39.9656 23.6906 39.2984 25.2437ZM28.0219 12.939C29.1703 14.1859 30.2531 15.4984 31.2594 16.8547C29.0937 16.7562 26.9172 16.7562 24.7515 16.8547C25.8234 15.4437 26.9281 14.1312 28.0219 12.939ZM15.3344 6.23435C17.1719 5.16247 21.2515 6.69372 25.55 10.5C25.8234 10.7406 26.0969 11.0031 26.3812 11.2656C24.6859 13.0922 23.1219 15.039 21.689 17.0734C19.2172 17.2922 16.7672 17.675 14.339 18.2109C14.1969 17.6531 14.0765 17.0843 13.9562 16.5156C12.9281 11.2218 13.6062 7.22966 15.3344 6.23435ZM12.6547 35.0656C12.1953 34.9343 11.7469 34.7922 11.2984 34.639C8.96873 33.9062 6.32186 32.7468 4.4078 31.2265C3.30311 30.4609 2.55936 29.2797 2.35155 27.9562C2.35155 25.9547 5.8078 23.3953 10.7953 21.6562C11.4187 21.4375 12.0531 21.2406 12.6875 21.0547C13.4312 23.4281 14.3281 25.7578 15.3672 28.0109C14.3172 30.2968 13.4094 32.6593 12.6547 35.0656ZM25.4078 45.7843C23.6031 47.4359 21.514 48.7484 19.239 49.6453C18.025 50.225 16.625 50.2797 15.3781 49.7875C13.639 48.7812 12.9172 44.9203 13.9015 39.725C14.0219 39.1125 14.1531 38.5 14.3062 37.8984C16.7562 38.4234 19.2281 38.7843 21.7328 38.9703C23.1765 41.0156 24.7625 42.9734 26.4578 44.8109C26.1078 45.15 25.7578 45.4781 25.4078 45.7843ZM28.0875 43.1265C26.9719 41.9234 25.8562 40.589 24.7734 39.1562C25.8234 39.2 26.9062 39.2218 28 39.2218C29.1265 39.2218 30.2312 39.2 31.325 39.1453C30.3187 40.5343 29.2359 41.8578 28.0875 43.1265ZM42.3828 46.4078C42.2844 47.7422 41.6281 48.989 40.5781 49.8312C38.839 50.8375 35.1312 49.525 31.1281 46.0906C30.6687 45.6968 30.2094 45.2703 29.739 44.8328C31.4125 42.9843 32.9547 41.0265 34.3547 38.9703C36.8594 38.7625 39.3531 38.3797 41.814 37.8218C41.9234 38.2703 42.0219 38.7187 42.1094 39.1562C42.6453 41.5187 42.7328 43.9797 42.3828 46.4078ZM44.3734 34.65C44.0672 34.7484 43.7609 34.8468 43.4437 34.9343C42.6781 32.55 41.7375 30.2203 40.6547 27.9562C41.7047 25.725 42.5906 23.4281 43.3344 21.0765C43.9031 21.2406 44.45 21.4156 44.975 21.5906C50.0719 23.3406 53.6484 25.9437 53.6484 27.9343C53.6484 30.0781 49.8312 32.8453 44.3734 34.65ZM28 33.0093C30.7672 33.0093 33.0094 30.7672 33.0094 28C33.0094 25.2328 30.7672 22.9906 28 22.9906C25.2328 22.9906 22.9906 25.2328 22.9906 28C22.9906 30.7672 25.2328 33.0093 28 33.0093Z" fill="#A8E0EE"/>
</g>
<defs>
<clipPath id="clip0">
<rect width="56" height="56" fill="white"/>
</clipPath>
</defs>
</svg>
