<svg width="55" height="44" viewBox="0 0 55 44" fill="none" xmlns="http://www.w3.org/2000/svg">
<g clip-path="url(#clip0)">
<path d="M25.9394 32.5634C25.9136 32.615 25.8878 32.6562 25.9394 32.5634V32.5634ZM47.349 25.0869C45.6206 25.0863 43.9152 25.4833 42.3646 26.247C41.8576 25.2244 41.3334 24.3306 41.2474 23.6603C41.1443 22.8783 41.0326 22.4142 41.1529 21.4861C41.2732 20.558 41.8146 19.2431 41.806 19.1486C41.7974 19.0541 41.6857 18.5814 40.5771 18.5728C39.4685 18.5642 38.5146 18.7877 38.4038 19.0798C38.208 19.6138 38.0556 20.1627 37.9483 20.7212C37.7506 21.7267 35.732 25.3189 34.589 27.1923C34.2109 26.4619 33.8929 25.8173 33.8242 25.3017C33.721 24.5197 33.6093 24.0556 33.7296 23.1275C33.8499 22.1994 34.3913 20.8845 34.3827 20.79C34.3742 20.6955 34.2624 20.2228 33.1547 20.2142C32.047 20.2056 31.0922 20.4291 30.9805 20.7212C30.8688 21.0134 30.7484 21.7009 30.525 22.3626C30.3016 23.0244 27.6126 29.0056 26.9088 30.5611C26.5478 31.3517 26.2384 31.9876 26.015 32.4173C25.9806 32.4861 25.9549 32.5291 25.9377 32.5634C25.9634 32.5205 25.9806 32.4775 25.9806 32.4947C25.7916 32.8642 25.6799 33.0705 25.6799 33.0705V33.0791C25.5338 33.3541 25.3705 33.6033 25.2931 33.6033C25.2416 33.6033 25.1299 32.8814 25.3189 31.8931C25.7228 29.8134 26.6767 26.5822 26.6681 26.4705C26.6595 26.4103 26.8486 25.8517 26.0408 25.5509C25.2588 25.2673 24.9752 25.74 24.9064 25.74C24.8377 25.74 24.7861 25.9119 24.7861 25.9119C24.7861 25.9119 25.6541 22.2681 23.1198 22.2681C21.5385 22.2681 19.3385 24.0041 18.2574 25.5767C17.5785 25.9462 16.109 26.7455 14.5621 27.5962C13.9691 27.9228 13.359 28.258 12.7832 28.5759C12.7402 28.533 12.7059 28.49 12.6629 28.447C9.58719 25.1642 3.90844 22.8439 4.14907 18.4353C4.235 16.8283 4.7936 12.6087 15.0691 7.48687C23.491 3.29313 30.2242 4.44469 31.3835 7.00562C33.0507 10.658 27.7836 17.4556 19.0377 18.4353C15.7042 18.8048 13.952 17.5158 13.5137 17.0345C13.0582 16.5275 12.9895 16.5017 12.8176 16.5962C12.534 16.7509 12.7145 17.1978 12.8176 17.4642C13.0754 18.1431 14.1496 19.3462 15.9792 19.9478C17.5863 20.472 21.4947 20.7642 26.2204 18.9337C31.5296 16.8884 35.6624 11.1908 34.4506 6.42125C33.2166 1.57438 25.1797 -0.0154667 17.5802 2.68297C13.0522 4.29 8.15547 6.81656 4.63289 10.108C0.448597 14.0267 -0.220857 17.4384 0.0541434 18.865C1.03297 23.9267 8.00938 27.2267 10.8015 29.6673C10.664 29.7447 10.5351 29.8134 10.4148 29.8822C9.01485 30.5783 3.69618 33.3626 2.365 36.3017C0.861097 39.6361 2.61422 42.0251 3.76493 42.3517C7.35626 43.3486 11.0335 41.5525 13.0092 38.6048C14.9849 35.6572 14.7452 31.8072 13.8342 30.0541C13.8256 30.0283 13.8084 30.0111 13.7998 29.9853C14.1608 29.7705 14.5303 29.5556 14.8998 29.3408C15.6123 28.9197 16.3084 28.533 16.9185 28.1978C16.5748 29.1259 16.3256 30.2431 16.1966 31.8587C16.042 33.7494 16.824 36.1986 17.8381 37.1611C18.2849 37.5822 18.8255 37.5908 19.1606 37.5908C20.3466 37.5908 20.8794 36.6111 21.4715 35.4423C22.202 34.0158 22.8465 32.3572 22.8465 32.3572C22.8465 32.3572 22.0387 36.8431 24.2473 36.8431C25.0542 36.8431 25.862 35.8033 26.2238 35.2705V35.2791C26.2238 35.2791 26.241 35.2447 26.284 35.1759C26.3699 35.047 26.4129 34.9697 26.4129 34.9697V34.9439C26.7395 34.3853 27.4527 33.1048 28.5261 30.9908C29.9183 28.258 31.2495 24.8462 31.2495 24.8462C31.3781 25.5962 31.5561 26.3369 31.7823 27.0634C32.0229 27.8798 32.5299 28.7736 32.9338 29.6416C32.6073 30.0884 32.4096 30.3462 32.4096 30.3462C32.4102 30.3528 32.4133 30.359 32.4182 30.3634C32.1604 30.7072 31.8682 31.0767 31.5674 31.4376C30.4683 32.7439 29.1612 34.2392 28.9893 34.6689C28.7831 35.1759 28.8346 35.5541 29.2299 35.8462C29.5221 36.0697 30.0377 36.1041 30.5783 36.0611C31.5666 35.9923 32.2627 35.7517 32.5978 35.597C33.2157 35.3755 33.7997 35.0689 34.3329 34.6861C35.4071 33.8955 36.0602 32.7611 36.0001 31.2658C35.9657 30.4408 35.6993 29.6158 35.3727 28.8423C35.4673 28.7048 35.5704 28.5587 35.6649 28.4126C37.3656 25.9291 38.6805 23.2031 38.6805 23.2031C38.8091 23.9531 38.9871 24.6938 39.2133 25.4203C39.4195 26.1164 39.8226 26.8812 40.1921 27.6289C38.5945 28.9266 37.6063 30.4305 37.2625 31.4187C36.6266 33.2492 37.125 34.0742 38.0617 34.2633C38.4828 34.3492 39.0844 34.1516 39.5313 33.9625C40.1949 33.7414 40.8207 33.4197 41.3867 33.0086C42.4609 32.218 43.4999 31.1094 43.4311 29.6055C43.4053 28.9266 43.2163 28.2476 42.967 27.5945C44.3163 27.0273 46.0685 26.718 48.3029 26.9758C53.0879 27.5344 54.0246 30.525 53.8442 31.7711C53.6637 33.0172 52.6582 33.7133 52.3231 33.9195C51.9879 34.1258 51.8848 34.2031 51.9106 34.3578C51.9535 34.5812 52.1082 34.5726 52.3918 34.5211C52.7871 34.4523 54.9003 33.507 54.9949 31.1953C55.1324 28.2734 52.3231 25.0594 47.3464 25.0851L47.349 25.0869ZM10.4663 37.522C8.88594 39.2494 6.66875 39.9025 5.71571 39.3525C4.69305 38.7578 5.09696 36.2158 7.04688 34.375C8.23282 33.2578 9.76165 32.2266 10.7757 31.5906C11.0077 31.4531 11.3429 31.2469 11.7554 30.9976C11.8241 30.9547 11.8585 30.9375 11.8585 30.9375C11.9359 30.8859 12.0218 30.843 12.1077 30.7914C12.8202 33.4039 12.1335 35.707 10.4663 37.5203V37.522ZM22.0129 29.6673C21.4629 31.0166 20.3036 34.4541 19.5989 34.2736C18.9974 34.1189 18.6278 31.4978 19.4786 28.9197C19.9083 27.622 20.8192 26.0752 21.3606 25.4736C22.2277 24.5025 23.1817 24.1931 23.4051 24.5798C23.7059 25.0869 22.3566 28.8251 22.0129 29.6673ZM31.552 34.222C31.3199 34.3423 31.1051 34.4197 31.002 34.3595C30.9246 34.3166 31.0965 34.1533 31.0965 34.1533C31.0965 34.1533 32.291 32.8728 32.7637 32.2884C33.0387 31.9447 33.3567 31.5408 33.6995 31.0939C33.6995 31.1369 33.7081 31.1798 33.7081 31.2314C33.697 32.7697 32.2197 33.8095 31.5494 34.222H31.552ZM38.9065 32.5462C38.7346 32.4259 38.7604 32.022 39.3362 30.7673C39.5596 30.2775 40.0744 29.4525 40.969 28.6619C41.0703 28.9611 41.1253 29.2741 41.1323 29.59C41.1237 31.5236 39.7401 32.2455 38.9074 32.5462H38.9065Z" fill="#CF649A"/>
</g>
<defs>
<clipPath id="clip0">
<rect width="55" height="44" fill="white"/>
</clipPath>
</defs>
</svg>
